<?xml version="1.0" encoding="utf-8" standalone="no"?>
<!DOCTYPE svg PUBLIC "-//W3C//DTD SVG 1.1//EN"
  "http://www.w3.org/Graphics/SVG/1.1/DTD/svg11.dtd">
<svg xmlns:xlink="http://www.w3.org/1999/xlink" width="373.8pt" height="282.278906pt" viewBox="0 0 373.8 282.278906" xmlns="http://www.w3.org/2000/svg" version="1.1">
 <metadata>
  <rdf:RDF xmlns:dc="http://purl.org/dc/elements/1.1/" xmlns:cc="http://creativecommons.org/ns#" xmlns:rdf="http://www.w3.org/1999/02/22-rdf-syntax-ns#">
   <cc:Work>
    <dc:type rdf:resource="http://purl.org/dc/dcmitype/StillImage"/>
    <dc:date>2026-07-10T15:13:15.195615</dc:date>
    <dc:format>image/svg+xml</dc:format>
    <dc:creator>
     <cc:Agent>
      <dc:title>Matplotlib v3.11.0, https://matplotlib.org/</dc:title>
     </cc:Agent>
    </dc:creator>
   </cc:Work>
  </rdf:RDF>
 </metadata>
 <defs>
  <style type="text/css">*{stroke-linejoin: round; stroke-linecap: butt}</style>
 </defs>
 <g id="figure_1">
  <g id="patch_1">
   <path d="M 0 282.278906 
L 373.8 282.278906 
L 373.8 0 
L 0 0 
z
" style="fill: #ffffff"/>
  </g>
  <g id="axes_1">
   <g id="patch_2">
    <path d="M 31.8 244.078125 
L 366.6 244.078125 
L 366.6 22.318125 
L 31.8 22.318125 
z
" style="fill: #ffffff"/>
   </g>
   <g id="patch_3">
    <path d="M 47.018182 53308.315254 
L 59.192727 53308.315254 
L 59.192727 32.398125 
L 47.018182 32.398125 
z
" clip-path="url(#p8b20cf4033)" style="fill: #1f77b4"/>
   </g>
   <g id="patch_4">
    <path d="M 59.192727 53308.315254 
L 71.367273 53308.315254 
L 71.367273 83.435505 
L 59.192727 83.435505 
z
" clip-path="url(#p8b20cf4033)" style="fill: #1f77b4"/>
   </g>
   <g id="patch_5">
    <path d="M 71.367273 53308.315254 
L 83.541818 53308.315254 
L 83.541818 90.540788 
L 71.367273 90.540788 
z
" clip-path="url(#p8b20cf4033)" style="fill: #1f77b4"/>
   </g>
   <g id="patch_6">
    <path d="M 83.541818 53308.315254 
L 95.716364 53308.315254 
L 95.716364 105.835831 
L 83.541818 105.835831 
z
" clip-path="url(#p8b20cf4033)" style="fill: #1f77b4"/>
   </g>
   <g id="patch_7">
    <path d="M 95.716364 53308.315254 
L 107.890909 53308.315254 
L 107.890909 116.134459 
L 95.716364 116.134459 
z
" clip-path="url(#p8b20cf4033)" style="fill: #1f77b4"/>
   </g>
   <g id="patch_8">
    <path d="M 107.890909 53308.315254 
L 120.065455 53308.315254 
L 120.065455 128.14488 
L 107.890909 128.14488 
z
" clip-path="url(#p8b20cf4033)" style="fill: #1f77b4"/>
   </g>
   <g id="patch_9">
    <path d="M 120.065455 53308.315254 
L 132.24 53308.315254 
L 132.24 134.311192 
L 120.065455 134.311192 
z
" clip-path="url(#p8b20cf4033)" style="fill: #1f77b4"/>
   </g>
   <g id="patch_10">
    <path d="M 132.24 53308.315254 
L 144.414545 53308.315254 
L 144.414545 141.270067 
L 132.24 141.270067 
z
" clip-path="url(#p8b20cf4033)" style="fill: #1f77b4"/>
   </g>
   <g id="patch_11">
    <path d="M 144.414545 53308.315254 
L 156.589091 53308.315254 
L 156.589091 161.029649 
L 144.414545 161.029649 
z
" clip-path="url(#p8b20cf4033)" style="fill: #1f77b4"/>
   </g>
   <g id="patch_12">
    <path d="M 156.589091 53308.315254 
L 168.763636 53308.315254 
L 168.763636 164.419575 
L 156.589091 164.419575 
z
" clip-path="url(#p8b20cf4033)" style="fill: #1f77b4"/>
   </g>
   <g id="patch_13">
    <path d="M 168.763636 53308.315254 
L 180.938182 53308.315254 
L 180.938182 153.627708 
L 168.763636 153.627708 
z
" clip-path="url(#p8b20cf4033)" style="fill: #1f77b4"/>
   </g>
   <g id="patch_14">
    <path d="M 180.938182 53308.315254 
L 193.112727 53308.315254 
L 193.112727 167.415481 
L 180.938182 167.415481 
z
" clip-path="url(#p8b20cf4033)" style="fill: #1f77b4"/>
   </g>
   <g id="patch_15">
    <path d="M 193.112727 53308.315254 
L 205.287273 53308.315254 
L 205.287273 186.827444 
L 193.112727 186.827444 
z
" clip-path="url(#p8b20cf4033)" style="fill: #1f77b4"/>
   </g>
   <g id="patch_16">
    <path d="M 205.287273 53308.315254 
L 217.461818 53308.315254 
L 217.461818 184.699531 
L 205.287273 184.699531 
z
" clip-path="url(#p8b20cf4033)" style="fill: #1f77b4"/>
   </g>
   <g id="patch_17">
    <path d="M 217.461818 53308.315254 
L 229.636364 53308.315254 
L 229.636364 233.998125 
L 217.461818 233.998125 
z
" clip-path="url(#p8b20cf4033)" style="fill: #1f77b4"/>
   </g>
   <g id="patch_18">
    <path d="M 229.636364 53308.315254 
L 241.810909 53308.315254 
L 241.810909 53308.315254 
L 229.636364 53308.315254 
z
" clip-path="url(#p8b20cf4033)" style="fill: #1f77b4"/>
   </g>
   <g id="patch_19">
    <path d="M 241.810909 53308.315254 
L 253.985455 53308.315254 
L 253.985455 53308.315254 
L 241.810909 53308.315254 
z
" clip-path="url(#p8b20cf4033)" style="fill: #1f77b4"/>
   </g>
   <g id="patch_20">
    <path d="M 253.985455 53308.315254 
L 266.16 53308.315254 
L 266.16 53308.315254 
L 253.985455 53308.315254 
z
" clip-path="url(#p8b20cf4033)" style="fill: #1f77b4"/>
   </g>
   <g id="patch_21">
    <path d="M 266.16 53308.315254 
L 278.334545 53308.315254 
L 278.334545 53308.315254 
L 266.16 53308.315254 
z
" clip-path="url(#p8b20cf4033)" style="fill: #1f77b4"/>
   </g>
   <g id="patch_22">
    <path d="M 278.334545 53308.315254 
L 290.509091 53308.315254 
L 290.509091 53308.315254 
L 278.334545 53308.315254 
z
" clip-path="url(#p8b20cf4033)" style="fill: #1f77b4"/>
   </g>
   <g id="patch_23">
    <path d="M 290.509091 53308.315254 
L 302.683636 53308.315254 
L 302.683636 210.694872 
L 290.509091 210.694872 
z
" clip-path="url(#p8b20cf4033)" style="fill: #1f77b4"/>
   </g>
   <g id="patch_24">
    <path d="M 302.683636 53308.315254 
L 314.858182 53308.315254 
L 314.858182 193.703533 
L 302.683636 193.703533 
z
" clip-path="url(#p8b20cf4033)" style="fill: #1f77b4"/>
   </g>
   <g id="patch_25">
    <path d="M 314.858182 53308.315254 
L 327.032727 53308.315254 
L 327.032727 183.382829 
L 314.858182 183.382829 
z
" clip-path="url(#p8b20cf4033)" style="fill: #1f77b4"/>
   </g>
   <g id="patch_26">
    <path d="M 327.032727 53308.315254 
L 339.207273 53308.315254 
L 339.207273 178.760176 
L 327.032727 178.760176 
z
" clip-path="url(#p8b20cf4033)" style="fill: #1f77b4"/>
   </g>
   <g id="patch_27">
    <path d="M 339.207273 53308.315254 
L 351.381818 53308.315254 
L 351.381818 206.846612 
L 339.207273 206.846612 
z
" clip-path="url(#p8b20cf4033)" style="fill: #1f77b4"/>
   </g>
   <g id="matplotlib.axis_1">
    <g id="xtick_1">
     <g id="line2d_1">
      <defs>
       <path id="m5fb4c018b4" d="M 0 0 
L 0 3.5 
" style="stroke: #000000; stroke-width: 0.8"/>
      </defs>
      <g>
       <use xlink:href="#m5fb4c018b4" x="47.018182" y="244.078125" style="stroke: #000000; stroke-width: 0.8"/>
      </g>
     </g>
     <g id="text_1">
      <!-- 0 -->
      <g transform="translate(43.836932 258.675781) scale(0.1 -0.1)">
       <defs>
        <path id="DejaVuSans-13" d="M 2034 4250 
Q 1547 4250 1301 3770 
Q 1056 3291 1056 2328 
Q 1056 1369 1301 889 
Q 1547 409 2034 409 
Q 2525 409 2770 889 
Q 3016 1369 3016 2328 
Q 3016 3291 2770 3770 
Q 2525 4250 2034 4250 
z
M 2034 4750 
Q 2819 4750 3233 4129 
Q 3647 3509 3647 2328 
Q 3647 1150 3233 529 
Q 2819 -91 2034 -91 
Q 1250 -91 836 529 
Q 422 1150 422 2328 
Q 422 3509 836 4129 
Q 1250 4750 2034 4750 
z
" transform="scale(0.015625)"/>
       </defs>
       <use xlink:href="#DejaVuSans-13"/>
      </g>
     </g>
    </g>
    <g id="xtick_2">
     <g id="line2d_2">
      <g>
       <use xlink:href="#m5fb4c018b4" x="93.986017" y="244.078125" style="stroke: #000000; stroke-width: 0.8"/>
      </g>
     </g>
     <g id="text_2">
      <!-- 1 -->
      <g transform="translate(90.804767 258.675781) scale(0.1 -0.1)">
       <defs>
        <path id="DejaVuSans-14" d="M 794 531 
L 1825 531 
L 1825 4091 
L 703 3866 
L 703 4441 
L 1819 4666 
L 2450 4666 
L 2450 531 
L 3481 531 
L 3481 0 
L 794 0 
L 794 531 
z
" transform="scale(0.015625)"/>
       </defs>
       <use xlink:href="#DejaVuSans-14"/>
      </g>
     </g>
    </g>
    <g id="xtick_3">
     <g id="line2d_3">
      <g>
       <use xlink:href="#m5fb4c018b4" x="140.953851" y="244.078125" style="stroke: #000000; stroke-width: 0.8"/>
      </g>
     </g>
     <g id="text_3">
      <!-- 2 -->
      <g transform="translate(137.772601 258.675781) scale(0.1 -0.1)">
       <defs>
        <path id="DejaVuSans-15" d="M 1228 531 
L 3431 531 
L 3431 0 
L 469 0 
L 469 531 
Q 828 903 1448 1529 
Q 2069 2156 2228 2338 
Q 2531 2678 2651 2914 
Q 2772 3150 2772 3378 
Q 2772 3750 2511 3984 
Q 2250 4219 1831 4219 
Q 1534 4219 1204 4116 
Q 875 4013 500 3803 
L 500 4441 
Q 881 4594 1212 4672 
Q 1544 4750 1819 4750 
Q 2544 4750 2975 4387 
Q 3406 4025 3406 3419 
Q 3406 3131 3298 2873 
Q 3191 2616 2906 2266 
Q 2828 2175 2409 1742 
Q 1991 1309 1228 531 
z
" transform="scale(0.015625)"/>
       </defs>
       <use xlink:href="#DejaVuSans-15"/>
      </g>
     </g>
    </g>
    <g id="xtick_4">
     <g id="line2d_4">
      <g>
       <use xlink:href="#m5fb4c018b4" x="187.921686" y="244.078125" style="stroke: #000000; stroke-width: 0.8"/>
      </g>
     </g>
     <g id="text_4">
      <!-- 3 -->
      <g transform="translate(184.740436 258.675781) scale(0.1 -0.1)">
       <defs>
        <path id="DejaVuSans-16" d="M 2597 2516 
Q 3050 2419 3304 2112 
Q 3559 1806 3559 1356 
Q 3559 666 3084 287 
Q 2609 -91 1734 -91 
Q 1441 -91 1130 -33 
Q 819 25 488 141 
L 488 750 
Q 750 597 1062 519 
Q 1375 441 1716 441 
Q 2309 441 2620 675 
Q 2931 909 2931 1356 
Q 2931 1769 2642 2001 
Q 2353 2234 1838 2234 
L 1294 2234 
L 1294 2753 
L 1863 2753 
Q 2328 2753 2575 2939 
Q 2822 3125 2822 3475 
Q 2822 3834 2567 4026 
Q 2313 4219 1838 4219 
Q 1578 4219 1281 4162 
Q 984 4106 628 3988 
L 628 4550 
Q 988 4650 1302 4700 
Q 1616 4750 1894 4750 
Q 2613 4750 3031 4423 
Q 3450 4097 3450 3541 
Q 3450 3153 3228 2886 
Q 3006 2619 2597 2516 
z
" transform="scale(0.015625)"/>
       </defs>
       <use xlink:href="#DejaVuSans-16"/>
      </g>
     </g>
    </g>
    <g id="xtick_5">
     <g id="line2d_5">
      <g>
       <use xlink:href="#m5fb4c018b4" x="234.889521" y="244.078125" style="stroke: #000000; stroke-width: 0.8"/>
      </g>
     </g>
     <g id="text_5">
      <!-- 4 -->
      <g transform="translate(231.708271 258.675781) scale(0.1 -0.1)">
       <defs>
        <path id="DejaVuSans-17" d="M 2419 4116 
L 825 1625 
L 2419 1625 
L 2419 4116 
z
M 2253 4666 
L 3047 4666 
L 3047 1625 
L 3713 1625 
L 3713 1100 
L 3047 1100 
L 3047 0 
L 2419 0 
L 2419 1100 
L 313 1100 
L 313 1709 
L 2253 4666 
z
" transform="scale(0.015625)"/>
       </defs>
       <use xlink:href="#DejaVuSans-17"/>
      </g>
     </g>
    </g>
    <g id="xtick_6">
     <g id="line2d_6">
      <g>
       <use xlink:href="#m5fb4c018b4" x="281.857356" y="244.078125" style="stroke: #000000; stroke-width: 0.8"/>
      </g>
     </g>
     <g id="text_6">
      <!-- 5 -->
      <g transform="translate(278.676106 258.675781) scale(0.1 -0.1)">
       <defs>
        <path id="DejaVuSans-18" d="M 691 4666 
L 3169 4666 
L 3169 4134 
L 1269 4134 
L 1269 2991 
Q 1406 3038 1543 3061 
Q 1681 3084 1819 3084 
Q 2600 3084 3056 2656 
Q 3513 2228 3513 1497 
Q 3513 744 3044 326 
Q 2575 -91 1722 -91 
Q 1428 -91 1123 -41 
Q 819 9 494 109 
L 494 744 
Q 775 591 1075 516 
Q 1375 441 1709 441 
Q 2250 441 2565 725 
Q 2881 1009 2881 1497 
Q 2881 1984 2565 2268 
Q 2250 2553 1709 2553 
Q 1456 2553 1204 2497 
Q 953 2441 691 2322 
L 691 4666 
z
" transform="scale(0.015625)"/>
       </defs>
       <use xlink:href="#DejaVuSans-18"/>
      </g>
     </g>
    </g>
    <g id="xtick_7">
     <g id="line2d_7">
      <g>
       <use xlink:href="#m5fb4c018b4" x="328.825191" y="244.078125" style="stroke: #000000; stroke-width: 0.8"/>
      </g>
     </g>
     <g id="text_7">
      <!-- 6 -->
      <g transform="translate(325.643941 258.675781) scale(0.1 -0.1)">
       <defs>
        <path id="DejaVuSans-19" d="M 2113 2584 
Q 1688 2584 1439 2293 
Q 1191 2003 1191 1497 
Q 1191 994 1439 701 
Q 1688 409 2113 409 
Q 2538 409 2786 701 
Q 3034 994 3034 1497 
Q 3034 2003 2786 2293 
Q 2538 2584 2113 2584 
z
M 3366 4563 
L 3366 3988 
Q 3128 4100 2886 4159 
Q 2644 4219 2406 4219 
Q 1781 4219 1451 3797 
Q 1122 3375 1075 2522 
Q 1259 2794 1537 2939 
Q 1816 3084 2150 3084 
Q 2853 3084 3261 2657 
Q 3669 2231 3669 1497 
Q 3669 778 3244 343 
Q 2819 -91 2113 -91 
Q 1303 -91 875 529 
Q 447 1150 447 2328 
Q 447 3434 972 4092 
Q 1497 4750 2381 4750 
Q 2619 4750 2861 4703 
Q 3103 4656 3366 4563 
z
" transform="scale(0.015625)"/>
       </defs>
       <use xlink:href="#DejaVuSans-19"/>
      </g>
     </g>
    </g>
    <g id="text_8">
     <!-- medians_cluster_id -->
     <g transform="translate(151.285156 272.676563) scale(0.1 -0.1)">
      <defs>
       <path id="DejaVuSans-50" d="M 3328 2828 
Q 3544 3216 3844 3400 
Q 4144 3584 4550 3584 
Q 5097 3584 5394 3201 
Q 5691 2819 5691 2113 
L 5691 0 
L 5113 0 
L 5113 2094 
Q 5113 2597 4934 2840 
Q 4756 3084 4391 3084 
Q 3944 3084 3684 2787 
Q 3425 2491 3425 1978 
L 3425 0 
L 2847 0 
L 2847 2094 
Q 2847 2600 2669 2842 
Q 2491 3084 2119 3084 
Q 1678 3084 1418 2786 
Q 1159 2488 1159 1978 
L 1159 0 
L 581 0 
L 581 3500 
L 1159 3500 
L 1159 2956 
Q 1356 3278 1631 3431 
Q 1906 3584 2284 3584 
Q 2666 3584 2933 3390 
Q 3200 3197 3328 2828 
z
" transform="scale(0.015625)"/>
       <path id="DejaVuSans-48" d="M 3597 1894 
L 3597 1613 
L 953 1613 
Q 991 1019 1311 708 
Q 1631 397 2203 397 
Q 2534 397 2845 478 
Q 3156 559 3463 722 
L 3463 178 
Q 3153 47 2828 -22 
Q 2503 -91 2169 -91 
Q 1331 -91 842 396 
Q 353 884 353 1716 
Q 353 2575 817 3079 
Q 1281 3584 2069 3584 
Q 2775 3584 3186 3129 
Q 3597 2675 3597 1894 
z
M 3022 2063 
Q 3016 2534 2758 2815 
Q 2500 3097 2075 3097 
Q 1594 3097 1305 2825 
Q 1016 2553 972 2059 
L 3022 2063 
z
" transform="scale(0.015625)"/>
       <path id="DejaVuSans-47" d="M 2906 2969 
L 2906 4863 
L 3481 4863 
L 3481 0 
L 2906 0 
L 2906 525 
Q 2725 213 2448 61 
Q 2172 -91 1784 -91 
Q 1150 -91 751 415 
Q 353 922 353 1747 
Q 353 2572 751 3078 
Q 1150 3584 1784 3584 
Q 2172 3584 2448 3432 
Q 2725 3281 2906 2969 
z
M 947 1747 
Q 947 1113 1208 752 
Q 1469 391 1925 391 
Q 2381 391 2643 752 
Q 2906 1113 2906 1747 
Q 2906 2381 2643 2742 
Q 2381 3103 1925 3103 
Q 1469 3103 1208 2742 
Q 947 2381 947 1747 
z
" transform="scale(0.015625)"/>
       <path id="DejaVuSans-4c" d="M 603 3500 
L 1178 3500 
L 1178 0 
L 603 0 
L 603 3500 
z
M 603 4863 
L 1178 4863 
L 1178 4134 
L 603 4134 
L 603 4863 
z
" transform="scale(0.015625)"/>
       <path id="DejaVuSans-44" d="M 2194 1759 
Q 1497 1759 1228 1600 
Q 959 1441 959 1056 
Q 959 750 1161 570 
Q 1363 391 1709 391 
Q 2188 391 2477 730 
Q 2766 1069 2766 1631 
L 2766 1759 
L 2194 1759 
z
M 3341 1997 
L 3341 0 
L 2766 0 
L 2766 531 
Q 2569 213 2275 61 
Q 1981 -91 1556 -91 
Q 1019 -91 701 211 
Q 384 513 384 1019 
Q 384 1609 779 1909 
Q 1175 2209 1959 2209 
L 2766 2209 
L 2766 2266 
Q 2766 2663 2505 2880 
Q 2244 3097 1772 3097 
Q 1472 3097 1187 3025 
Q 903 2953 641 2809 
L 641 3341 
Q 956 3463 1253 3523 
Q 1550 3584 1831 3584 
Q 2591 3584 2966 3190 
Q 3341 2797 3341 1997 
z
" transform="scale(0.015625)"/>
       <path id="DejaVuSans-51" d="M 3513 2113 
L 3513 0 
L 2938 0 
L 2938 2094 
Q 2938 2591 2744 2837 
Q 2550 3084 2163 3084 
Q 1697 3084 1428 2787 
Q 1159 2491 1159 1978 
L 1159 0 
L 581 0 
L 581 3500 
L 1159 3500 
L 1159 2956 
Q 1366 3272 1645 3428 
Q 1925 3584 2291 3584 
Q 2894 3584 3203 3211 
Q 3513 2838 3513 2113 
z
" transform="scale(0.015625)"/>
       <path id="DejaVuSans-56" d="M 2834 3397 
L 2834 2853 
Q 2591 2978 2328 3040 
Q 2066 3103 1784 3103 
Q 1356 3103 1142 2972 
Q 928 2841 928 2578 
Q 928 2378 1081 2264 
Q 1234 2150 1697 2047 
L 1894 2003 
Q 2506 1872 2764 1633 
Q 3022 1394 3022 966 
Q 3022 478 2636 193 
Q 2250 -91 1575 -91 
Q 1294 -91 989 -36 
Q 684 19 347 128 
L 347 722 
Q 666 556 975 473 
Q 1284 391 1588 391 
Q 1994 391 2212 530 
Q 2431 669 2431 922 
Q 2431 1156 2273 1281 
Q 2116 1406 1581 1522 
L 1381 1569 
Q 847 1681 609 1914 
Q 372 2147 372 2553 
Q 372 3047 722 3315 
Q 1072 3584 1716 3584 
Q 2034 3584 2315 3537 
Q 2597 3491 2834 3397 
z
" transform="scale(0.015625)"/>
       <path id="DejaVuSans-42" d="M 3263 -1063 
L 3263 -1509 
L -63 -1509 
L -63 -1063 
L 3263 -1063 
z
" transform="scale(0.015625)"/>
       <path id="DejaVuSans-46" d="M 3122 3366 
L 3122 2828 
Q 2878 2963 2633 3030 
Q 2388 3097 2138 3097 
Q 1578 3097 1268 2742 
Q 959 2388 959 1747 
Q 959 1106 1268 751 
Q 1578 397 2138 397 
Q 2388 397 2633 464 
Q 2878 531 3122 666 
L 3122 134 
Q 2881 22 2623 -34 
Q 2366 -91 2075 -91 
Q 1284 -91 818 406 
Q 353 903 353 1747 
Q 353 2603 823 3093 
Q 1294 3584 2113 3584 
Q 2378 3584 2631 3529 
Q 2884 3475 3122 3366 
z
" transform="scale(0.015625)"/>
       <path id="DejaVuSans-4f" d="M 603 4863 
L 1178 4863 
L 1178 0 
L 603 0 
L 603 4863 
z
" transform="scale(0.015625)"/>
       <path id="DejaVuSans-58" d="M 544 1381 
L 544 3500 
L 1119 3500 
L 1119 1403 
Q 1119 906 1312 657 
Q 1506 409 1894 409 
Q 2359 409 2629 706 
Q 2900 1003 2900 1516 
L 2900 3500 
L 3475 3500 
L 3475 0 
L 2900 0 
L 2900 538 
Q 2691 219 2414 64 
Q 2138 -91 1772 -91 
Q 1169 -91 856 284 
Q 544 659 544 1381 
z
M 1991 3584 
L 1991 3584 
z
" transform="scale(0.015625)"/>
       <path id="DejaVuSans-57" d="M 1172 4494 
L 1172 3500 
L 2356 3500 
L 2356 3053 
L 1172 3053 
L 1172 1153 
Q 1172 725 1289 603 
Q 1406 481 1766 481 
L 2356 481 
L 2356 0 
L 1766 0 
Q 1100 0 847 248 
Q 594 497 594 1153 
L 594 3053 
L 172 3053 
L 172 3500 
L 594 3500 
L 594 4494 
L 1172 4494 
z
" transform="scale(0.015625)"/>
       <path id="DejaVuSans-55" d="M 2631 2963 
Q 2534 3019 2420 3045 
Q 2306 3072 2169 3072 
Q 1681 3072 1420 2755 
Q 1159 2438 1159 1844 
L 1159 0 
L 581 0 
L 581 3500 
L 1159 3500 
L 1159 2956 
Q 1341 3275 1631 3429 
Q 1922 3584 2338 3584 
Q 2397 3584 2469 3576 
Q 2541 3569 2628 3553 
L 2631 2963 
z
" transform="scale(0.015625)"/>
      </defs>
      <use xlink:href="#DejaVuSans-50"/>
      <use xlink:href="#DejaVuSans-48" transform="translate(97.40625 0)"/>
      <use xlink:href="#DejaVuSans-47" transform="translate(158.9375 0)"/>
      <use xlink:href="#DejaVuSans-4c" transform="translate(222.421875 0)"/>
      <use xlink:href="#DejaVuSans-44" transform="translate(250.203125 0)"/>
      <use xlink:href="#DejaVuSans-51" transform="translate(311.484375 0)"/>
      <use xlink:href="#DejaVuSans-56" transform="translate(374.859375 0)"/>
      <use xlink:href="#DejaVuSans-42" transform="translate(426.953125 0)"/>
      <use xlink:href="#DejaVuSans-46" transform="translate(476.953125 0)"/>
      <use xlink:href="#DejaVuSans-4f" transform="translate(531.9375 0)"/>
      <use xlink:href="#DejaVuSans-58" transform="translate(559.71875 0)"/>
      <use xlink:href="#DejaVuSans-56" transform="translate(623.09375 0)"/>
      <use xlink:href="#DejaVuSans-57" transform="translate(675.1875 0)"/>
      <use xlink:href="#DejaVuSans-48" transform="translate(714.390625 0)"/>
      <use xlink:href="#DejaVuSans-55" transform="translate(775.921875 0)"/>
      <use xlink:href="#DejaVuSans-42" transform="translate(817.03125 0)"/>
      <use xlink:href="#DejaVuSans-4c" transform="translate(867.03125 0)"/>
      <use xlink:href="#DejaVuSans-47" transform="translate(894.8125 0)"/>
     </g>
    </g>
   </g>
   <g id="matplotlib.axis_2">
    <g id="ytick_1">
     <g id="line2d_8">
      <defs>
       <path id="me15d4fd56c" d="M 0 0 
L -3.5 0 
" style="stroke: #000000; stroke-width: 0.8"/>
      </defs>
      <g>
       <use xlink:href="#me15d4fd56c" x="31.8" y="212.890439" style="stroke: #000000; stroke-width: 0.8"/>
      </g>
     </g>
     <g id="text_9">
      <!-- $\mathdefault{10^{1}}$ -->
      <g transform="translate(7.2 217.540439) scale(0.1 -0.1)">
       <use xlink:href="#DejaVuSans-14" transform="translate(0 0.665625)"/>
       <use xlink:href="#DejaVuSans-13" transform="translate(63.623047 0.665625)"/>
       <use xlink:href="#DejaVuSans-14" transform="translate(128.203125 41.965625) scale(0.7)"/>
      </g>
     </g>
    </g>
    <g id="ytick_2">
     <g id="line2d_9">
      <g>
       <use xlink:href="#me15d4fd56c" x="31.8" y="159.848056" style="stroke: #000000; stroke-width: 0.8"/>
      </g>
     </g>
     <g id="text_10">
      <!-- $\mathdefault{10^{2}}$ -->
      <g transform="translate(7.2 164.548056) scale(0.1 -0.1)">
       <use xlink:href="#DejaVuSans-14" transform="translate(0 0.746875)"/>
       <use xlink:href="#DejaVuSans-13" transform="translate(63.623047 0.746875)"/>
       <use xlink:href="#DejaVuSans-15" transform="translate(128.203125 42.046875) scale(0.7)"/>
      </g>
     </g>
    </g>
    <g id="ytick_3">
     <g id="line2d_10">
      <g>
       <use xlink:href="#me15d4fd56c" x="31.8" y="106.805674" style="stroke: #000000; stroke-width: 0.8"/>
      </g>
     </g>
     <g id="text_11">
      <!-- $\mathdefault{10^{3}}$ -->
      <g transform="translate(7.2 111.505674) scale(0.1 -0.1)">
       <use xlink:href="#DejaVuSans-14" transform="translate(0 0.746875)"/>
       <use xlink:href="#DejaVuSans-13" transform="translate(63.623047 0.746875)"/>
       <use xlink:href="#DejaVuSans-16" transform="translate(128.203125 42.046875) scale(0.7)"/>
      </g>
     </g>
    </g>
    <g id="ytick_4">
     <g id="line2d_11">
      <g>
       <use xlink:href="#me15d4fd56c" x="31.8" y="53.763292" style="stroke: #000000; stroke-width: 0.8"/>
      </g>
     </g>
     <g id="text_12">
      <!-- $\mathdefault{10^{4}}$ -->
      <g transform="translate(7.2 58.413292) scale(0.1 -0.1)">
       <use xlink:href="#DejaVuSans-14" transform="translate(0 0.665625)"/>
       <use xlink:href="#DejaVuSans-13" transform="translate(63.623047 0.665625)"/>
       <use xlink:href="#DejaVuSans-17" transform="translate(128.203125 41.965625) scale(0.7)"/>
      </g>
     </g>
    </g>
    <g id="ytick_5">
     <g id="line2d_12">
      <defs>
       <path id="m718515afb2" d="M 0 0 
L -2 0 
" style="stroke: #000000; stroke-width: 0.6"/>
      </defs>
      <g>
       <use xlink:href="#m718515afb2" x="31.8" y="240.625173" style="stroke: #000000; stroke-width: 0.6"/>
      </g>
     </g>
    </g>
    <g id="ytick_6">
     <g id="line2d_13">
      <g>
       <use xlink:href="#m718515afb2" x="31.8" y="233.998125" style="stroke: #000000; stroke-width: 0.6"/>
      </g>
     </g>
    </g>
    <g id="ytick_7">
     <g id="line2d_14">
      <g>
       <use xlink:href="#m718515afb2" x="31.8" y="228.857787" style="stroke: #000000; stroke-width: 0.6"/>
      </g>
     </g>
    </g>
    <g id="ytick_8">
     <g id="line2d_15">
      <g>
       <use xlink:href="#m718515afb2" x="31.8" y="224.657825" style="stroke: #000000; stroke-width: 0.6"/>
      </g>
     </g>
    </g>
    <g id="ytick_9">
     <g id="line2d_16">
      <g>
       <use xlink:href="#m718515afb2" x="31.8" y="221.106808" style="stroke: #000000; stroke-width: 0.6"/>
      </g>
     </g>
    </g>
    <g id="ytick_10">
     <g id="line2d_17">
      <g>
       <use xlink:href="#m718515afb2" x="31.8" y="218.030777" style="stroke: #000000; stroke-width: 0.6"/>
      </g>
     </g>
    </g>
    <g id="ytick_11">
     <g id="line2d_18">
      <g>
       <use xlink:href="#m718515afb2" x="31.8" y="215.317525" style="stroke: #000000; stroke-width: 0.6"/>
      </g>
     </g>
    </g>
    <g id="ytick_12">
     <g id="line2d_19">
      <g>
       <use xlink:href="#m718515afb2" x="31.8" y="196.923091" style="stroke: #000000; stroke-width: 0.6"/>
      </g>
     </g>
    </g>
    <g id="ytick_13">
     <g id="line2d_20">
      <g>
       <use xlink:href="#m718515afb2" x="31.8" y="187.582791" style="stroke: #000000; stroke-width: 0.6"/>
      </g>
     </g>
    </g>
    <g id="ytick_14">
     <g id="line2d_21">
      <g>
       <use xlink:href="#m718515afb2" x="31.8" y="180.955743" style="stroke: #000000; stroke-width: 0.6"/>
      </g>
     </g>
    </g>
    <g id="ytick_15">
     <g id="line2d_22">
      <g>
       <use xlink:href="#m718515afb2" x="31.8" y="175.815405" style="stroke: #000000; stroke-width: 0.6"/>
      </g>
     </g>
    </g>
    <g id="ytick_16">
     <g id="line2d_23">
      <g>
       <use xlink:href="#m718515afb2" x="31.8" y="171.615443" style="stroke: #000000; stroke-width: 0.6"/>
      </g>
     </g>
    </g>
    <g id="ytick_17">
     <g id="line2d_24">
      <g>
       <use xlink:href="#m718515afb2" x="31.8" y="168.064425" style="stroke: #000000; stroke-width: 0.6"/>
      </g>
     </g>
    </g>
    <g id="ytick_18">
     <g id="line2d_25">
      <g>
       <use xlink:href="#m718515afb2" x="31.8" y="164.988394" style="stroke: #000000; stroke-width: 0.6"/>
      </g>
     </g>
    </g>
    <g id="ytick_19">
     <g id="line2d_26">
      <g>
       <use xlink:href="#m718515afb2" x="31.8" y="162.275143" style="stroke: #000000; stroke-width: 0.6"/>
      </g>
     </g>
    </g>
    <g id="ytick_20">
     <g id="line2d_27">
      <g>
       <use xlink:href="#m718515afb2" x="31.8" y="143.880708" style="stroke: #000000; stroke-width: 0.6"/>
      </g>
     </g>
    </g>
    <g id="ytick_21">
     <g id="line2d_28">
      <g>
       <use xlink:href="#m718515afb2" x="31.8" y="134.540408" style="stroke: #000000; stroke-width: 0.6"/>
      </g>
     </g>
    </g>
    <g id="ytick_22">
     <g id="line2d_29">
      <g>
       <use xlink:href="#m718515afb2" x="31.8" y="127.91336" style="stroke: #000000; stroke-width: 0.6"/>
      </g>
     </g>
    </g>
    <g id="ytick_23">
     <g id="line2d_30">
      <g>
       <use xlink:href="#m718515afb2" x="31.8" y="122.773022" style="stroke: #000000; stroke-width: 0.6"/>
      </g>
     </g>
    </g>
    <g id="ytick_24">
     <g id="line2d_31">
      <g>
       <use xlink:href="#m718515afb2" x="31.8" y="118.57306" style="stroke: #000000; stroke-width: 0.6"/>
      </g>
     </g>
    </g>
    <g id="ytick_25">
     <g id="line2d_32">
      <g>
       <use xlink:href="#m718515afb2" x="31.8" y="115.022043" style="stroke: #000000; stroke-width: 0.6"/>
      </g>
     </g>
    </g>
    <g id="ytick_26">
     <g id="line2d_33">
      <g>
       <use xlink:href="#m718515afb2" x="31.8" y="111.946012" style="stroke: #000000; stroke-width: 0.6"/>
      </g>
     </g>
    </g>
    <g id="ytick_27">
     <g id="line2d_34">
      <g>
       <use xlink:href="#m718515afb2" x="31.8" y="109.23276" style="stroke: #000000; stroke-width: 0.6"/>
      </g>
     </g>
    </g>
    <g id="ytick_28">
     <g id="line2d_35">
      <g>
       <use xlink:href="#m718515afb2" x="31.8" y="90.838326" style="stroke: #000000; stroke-width: 0.6"/>
      </g>
     </g>
    </g>
    <g id="ytick_29">
     <g id="line2d_36">
      <g>
       <use xlink:href="#m718515afb2" x="31.8" y="81.498026" style="stroke: #000000; stroke-width: 0.6"/>
      </g>
     </g>
    </g>
    <g id="ytick_30">
     <g id="line2d_37">
      <g>
       <use xlink:href="#m718515afb2" x="31.8" y="74.870978" style="stroke: #000000; stroke-width: 0.6"/>
      </g>
     </g>
    </g>
    <g id="ytick_31">
     <g id="line2d_38">
      <g>
       <use xlink:href="#m718515afb2" x="31.8" y="69.73064" style="stroke: #000000; stroke-width: 0.6"/>
      </g>
     </g>
    </g>
    <g id="ytick_32">
     <g id="line2d_39">
      <g>
       <use xlink:href="#m718515afb2" x="31.8" y="65.530678" style="stroke: #000000; stroke-width: 0.6"/>
      </g>
     </g>
    </g>
    <g id="ytick_33">
     <g id="line2d_40">
      <g>
       <use xlink:href="#m718515afb2" x="31.8" y="61.979661" style="stroke: #000000; stroke-width: 0.6"/>
      </g>
     </g>
    </g>
    <g id="ytick_34">
     <g id="line2d_41">
      <g>
       <use xlink:href="#m718515afb2" x="31.8" y="58.90363" style="stroke: #000000; stroke-width: 0.6"/>
      </g>
     </g>
    </g>
    <g id="ytick_35">
     <g id="line2d_42">
      <g>
       <use xlink:href="#m718515afb2" x="31.8" y="56.190378" style="stroke: #000000; stroke-width: 0.6"/>
      </g>
     </g>
    </g>
    <g id="ytick_36">
     <g id="line2d_43">
      <g>
       <use xlink:href="#m718515afb2" x="31.8" y="37.795943" style="stroke: #000000; stroke-width: 0.6"/>
      </g>
     </g>
    </g>
    <g id="ytick_37">
     <g id="line2d_44">
      <g>
       <use xlink:href="#m718515afb2" x="31.8" y="28.455644" style="stroke: #000000; stroke-width: 0.6"/>
      </g>
     </g>
    </g>
   </g>
   <g id="patch_28">
    <path d="M 31.8 244.078125 
L 31.8 22.318125 
" style="fill: none; stroke: #000000; stroke-width: 0.8; stroke-linejoin: miter; stroke-linecap: square"/>
   </g>
   <g id="patch_29">
    <path d="M 366.6 244.078125 
L 366.6 22.318125 
" style="fill: none; stroke: #000000; stroke-width: 0.8; stroke-linejoin: miter; stroke-linecap: square"/>
   </g>
   <g id="patch_30">
    <path d="M 31.8 244.078125 
L 366.6 244.078125 
" style="fill: none; stroke: #000000; stroke-width: 0.8; stroke-linejoin: miter; stroke-linecap: square"/>
   </g>
   <g id="patch_31">
    <path d="M 31.8 22.318125 
L 366.6 22.318125 
" style="fill: none; stroke: #000000; stroke-width: 0.8; stroke-linejoin: miter; stroke-linecap: square"/>
   </g>
   <g id="text_13">
    <!-- Median expression -->
    <g transform="translate(143.10375 16.318125) scale(0.12 -0.12)">
     <defs>
      <path id="DejaVuSans-30" d="M 628 4666 
L 1569 4666 
L 2759 1491 
L 3956 4666 
L 4897 4666 
L 4897 0 
L 4281 0 
L 4281 4097 
L 3078 897 
L 2444 897 
L 1241 4097 
L 1241 0 
L 628 0 
L 628 4666 
z
" transform="scale(0.015625)"/>
      <path id="DejaVuSans-3" transform="scale(0.015625)"/>
      <path id="DejaVuSans-5b" d="M 3513 3500 
L 2247 1797 
L 3578 0 
L 2900 0 
L 1881 1375 
L 863 0 
L 184 0 
L 1544 1831 
L 300 3500 
L 978 3500 
L 1906 2253 
L 2834 3500 
L 3513 3500 
z
" transform="scale(0.015625)"/>
      <path id="DejaVuSans-53" d="M 1159 525 
L 1159 -1331 
L 581 -1331 
L 581 3500 
L 1159 3500 
L 1159 2969 
Q 1341 3281 1617 3432 
Q 1894 3584 2278 3584 
Q 2916 3584 3314 3078 
Q 3713 2572 3713 1747 
Q 3713 922 3314 415 
Q 2916 -91 2278 -91 
Q 1894 -91 1617 61 
Q 1341 213 1159 525 
z
M 3116 1747 
Q 3116 2381 2855 2742 
Q 2594 3103 2138 3103 
Q 1681 3103 1420 2742 
Q 1159 2381 1159 1747 
Q 1159 1113 1420 752 
Q 1681 391 2138 391 
Q 2594 391 2855 752 
Q 3116 1113 3116 1747 
z
" transform="scale(0.015625)"/>
      <path id="DejaVuSans-52" d="M 1959 3097 
Q 1497 3097 1228 2736 
Q 959 2375 959 1747 
Q 959 1119 1226 758 
Q 1494 397 1959 397 
Q 2419 397 2687 759 
Q 2956 1122 2956 1747 
Q 2956 2369 2687 2733 
Q 2419 3097 1959 3097 
z
M 1959 3584 
Q 2709 3584 3137 3096 
Q 3566 2609 3566 1747 
Q 3566 888 3137 398 
Q 2709 -91 1959 -91 
Q 1206 -91 779 398 
Q 353 888 353 1747 
Q 353 2609 779 3096 
Q 1206 3584 1959 3584 
z
" transform="scale(0.015625)"/>
     </defs>
     <use xlink:href="#DejaVuSans-30"/>
     <use xlink:href="#DejaVuSans-48" transform="translate(86.28125 0)"/>
     <use xlink:href="#DejaVuSans-47" transform="translate(147.8125 0)"/>
     <use xlink:href="#DejaVuSans-4c" transform="translate(211.296875 0)"/>
     <use xlink:href="#DejaVuSans-44" transform="translate(239.078125 0)"/>
     <use xlink:href="#DejaVuSans-51" transform="translate(300.359375 0)"/>
     <use xlink:href="#DejaVuSans-3" transform="translate(363.734375 0)"/>
     <use xlink:href="#DejaVuSans-48" transform="translate(395.515625 0)"/>
     <use xlink:href="#DejaVuSans-5b" transform="translate(455.296875 0)"/>
     <use xlink:href="#DejaVuSans-53" transform="translate(514.484375 0)"/>
     <use xlink:href="#DejaVuSans-55" transform="translate(577.96875 0)"/>
     <use xlink:href="#DejaVuSans-48" transform="translate(616.875 0)"/>
     <use xlink:href="#DejaVuSans-56" transform="translate(678.40625 0)"/>
     <use xlink:href="#DejaVuSans-56" transform="translate(730.5 0)"/>
     <use xlink:href="#DejaVuSans-4c" transform="translate(782.59375 0)"/>
     <use xlink:href="#DejaVuSans-52" transform="translate(810.375 0)"/>
     <use xlink:href="#DejaVuSans-51" transform="translate(871.5625 0)"/>
    </g>
   </g>
  </g>
 </g>
 <defs>
  <clipPath id="p8b20cf4033">
   <rect x="31.8" y="22.318125" width="334.8" height="221.76"/>
  </clipPath>
 </defs>
</svg>
