<?xml version="1.0" encoding="utf-8" standalone="no"?>
<!DOCTYPE svg PUBLIC "-//W3C//DTD SVG 1.1//EN"
  "http://www.w3.org/Graphics/SVG/1.1/DTD/svg11.dtd">
<svg xmlns:xlink="http://www.w3.org/1999/xlink" width="424.773125pt" height="279.674687pt" viewBox="0 0 424.773125 279.674687" xmlns="http://www.w3.org/2000/svg" version="1.1">
 <metadata>
  <rdf:RDF xmlns:dc="http://purl.org/dc/elements/1.1/" xmlns:cc="http://creativecommons.org/ns#" xmlns:rdf="http://www.w3.org/1999/02/22-rdf-syntax-ns#">
   <cc:Work>
    <dc:type rdf:resource="http://purl.org/dc/dcmitype/StillImage"/>
    <dc:date>2026-07-31T09:31:19.403085</dc:date>
    <dc:format>image/svg+xml</dc:format>
    <dc:creator>
     <cc:Agent>
      <dc:title>Matplotlib v3.10.9, https://matplotlib.org/</dc:title>
     </cc:Agent>
    </dc:creator>
   </cc:Work>
  </rdf:RDF>
 </metadata>
 <defs>
  <style type="text/css">*{stroke-linejoin: round; stroke-linecap: butt}</style>
 </defs>
 <g id="figure_1">
  <g id="patch_1">
   <path d="M 0 279.674687 
L 424.773125 279.674687 
L 424.773125 0 
L 0 0 
z
" style="fill: #ffffff"/>
  </g>
  <g id="axes_1">
   <g id="patch_2">
    <path d="M 30.103125 110.558437 
L 417.573125 110.558437 
L 417.573125 20.798437 
L 30.103125 20.798437 
z
" style="fill: #ffffff"/>
   </g>
   <g id="FillBetweenPolyCollection_1">
    <defs>
     <path id="mb39585f799" d="M 47.715398 -180.697398 
L 47.715398 -169.11625 
L 49.485475 -169.11625 
L 51.255553 -169.11625 
L 53.025631 -169.11625 
L 54.795708 -169.11625 
L 56.565786 -169.11625 
L 58.335864 -169.11625 
L 60.105941 -169.11625 
L 61.876019 -169.11625 
L 63.646097 -169.11625 
L 65.416174 -169.11625 
L 67.186252 -169.11625 
L 68.95633 -169.11625 
L 70.726407 -169.11625 
L 72.496485 -169.11625 
L 74.266563 -169.11625 
L 76.03664 -169.11625 
L 77.806718 -169.11625 
L 79.576796 -169.11625 
L 81.346873 -169.11625 
L 83.116951 -169.11625 
L 84.887029 -169.11625 
L 86.657106 -169.11625 
L 88.427184 -169.11625 
L 90.197262 -169.11625 
L 91.967339 -169.11625 
L 93.737417 -169.11625 
L 95.507495 -169.11625 
L 97.277572 -169.11625 
L 99.04765 -169.11625 
L 100.817728 -169.11625 
L 102.587805 -169.11625 
L 104.357883 -169.11625 
L 106.127961 -169.11625 
L 107.898038 -169.11625 
L 109.668116 -169.11625 
L 111.438194 -169.11625 
L 113.208271 -169.11625 
L 114.978349 -169.11625 
L 116.748427 -169.11625 
L 118.518504 -169.11625 
L 120.288582 -169.11625 
L 122.058659 -169.11625 
L 123.828737 -169.11625 
L 125.598815 -169.11625 
L 127.368892 -169.11625 
L 129.13897 -169.11625 
L 130.909048 -169.11625 
L 132.679125 -169.11625 
L 134.449203 -169.11625 
L 136.219281 -169.11625 
L 137.989358 -169.11625 
L 139.759436 -169.11625 
L 141.529514 -169.11625 
L 143.299591 -169.11625 
L 145.069669 -169.11625 
L 146.839747 -169.11625 
L 148.609824 -169.11625 
L 150.379902 -169.11625 
L 152.14998 -169.11625 
L 153.920057 -169.11625 
L 155.690135 -169.11625 
L 157.460213 -169.11625 
L 159.23029 -169.11625 
L 161.000368 -169.11625 
L 162.770446 -169.11625 
L 164.540523 -169.11625 
L 166.310601 -169.11625 
L 168.080679 -169.11625 
L 169.850756 -169.11625 
L 171.620834 -169.11625 
L 173.390912 -169.11625 
L 175.160989 -169.11625 
L 176.931067 -169.11625 
L 178.701145 -169.11625 
L 180.471222 -169.11625 
L 182.2413 -169.11625 
L 184.011378 -169.11625 
L 185.781455 -169.11625 
L 187.551533 -169.11625 
L 189.321611 -169.11625 
L 191.091688 -169.11625 
L 192.861766 -169.11625 
L 194.631844 -169.11625 
L 196.401921 -169.11625 
L 198.171999 -169.11625 
L 199.942077 -169.11625 
L 201.712154 -169.11625 
L 203.482232 -169.11625 
L 205.25231 -169.11625 
L 207.022387 -169.11625 
L 208.792465 -169.11625 
L 210.562543 -169.11625 
L 212.33262 -169.11625 
L 214.102698 -169.11625 
L 215.872776 -169.11625 
L 217.642853 -169.11625 
L 219.412931 -169.11625 
L 221.183009 -169.11625 
L 222.953086 -169.11625 
L 224.723164 -169.11625 
L 226.493241 -169.11625 
L 228.263319 -169.11625 
L 230.033397 -169.11625 
L 231.803474 -169.11625 
L 233.573552 -169.11625 
L 235.34363 -169.11625 
L 237.113707 -169.11625 
L 238.883785 -169.11625 
L 240.653863 -169.11625 
L 242.42394 -169.11625 
L 244.194018 -169.11625 
L 245.964096 -169.11625 
L 247.734173 -169.11625 
L 249.504251 -169.11625 
L 251.274329 -169.11625 
L 253.044406 -169.11625 
L 254.814484 -169.11625 
L 256.584562 -169.11625 
L 258.354639 -169.11625 
L 260.124717 -169.11625 
L 261.894795 -169.11625 
L 263.664872 -169.11625 
L 265.43495 -169.11625 
L 267.205028 -169.11625 
L 268.975105 -169.11625 
L 270.745183 -169.11625 
L 272.515261 -169.11625 
L 274.285338 -169.11625 
L 276.055416 -169.11625 
L 277.825494 -169.11625 
L 279.595571 -169.11625 
L 281.365649 -169.11625 
L 283.135727 -169.11625 
L 284.905804 -169.11625 
L 286.675882 -169.11625 
L 288.44596 -169.11625 
L 290.216037 -169.11625 
L 291.986115 -169.11625 
L 293.756193 -169.11625 
L 295.52627 -169.11625 
L 297.296348 -169.11625 
L 299.066426 -169.11625 
L 300.836503 -169.11625 
L 302.606581 -169.11625 
L 304.376659 -169.11625 
L 306.146736 -169.11625 
L 307.916814 -169.11625 
L 309.686892 -169.11625 
L 311.456969 -169.11625 
L 313.227047 -169.11625 
L 314.997125 -169.11625 
L 316.767202 -169.11625 
L 318.53728 -169.11625 
L 320.307358 -169.11625 
L 322.077435 -169.11625 
L 323.847513 -169.11625 
L 325.617591 -169.11625 
L 327.387668 -169.11625 
L 329.157746 -169.11625 
L 330.927823 -169.11625 
L 332.697901 -169.11625 
L 334.467979 -169.11625 
L 336.238056 -169.11625 
L 338.008134 -169.11625 
L 339.778212 -169.11625 
L 341.548289 -169.11625 
L 343.318367 -169.11625 
L 345.088445 -169.11625 
L 346.858522 -169.11625 
L 348.6286 -169.11625 
L 350.398678 -169.11625 
L 352.168755 -169.11625 
L 353.938833 -169.11625 
L 355.708911 -169.11625 
L 357.478988 -169.11625 
L 359.249066 -169.11625 
L 361.019144 -169.11625 
L 362.789221 -169.11625 
L 364.559299 -169.11625 
L 366.329377 -169.11625 
L 368.099454 -169.11625 
L 369.869532 -169.11625 
L 371.63961 -169.11625 
L 373.409687 -169.11625 
L 375.179765 -169.11625 
L 376.949843 -169.11625 
L 378.71992 -169.11625 
L 380.489998 -169.11625 
L 382.260076 -169.11625 
L 384.030153 -169.11625 
L 385.800231 -169.11625 
L 387.570309 -169.11625 
L 389.340386 -169.11625 
L 391.110464 -169.11625 
L 392.880542 -169.11625 
L 394.650619 -169.11625 
L 396.420697 -169.11625 
L 398.190775 -169.11625 
L 399.960852 -169.11625 
L 399.960852 -227.42559 
L 399.960852 -227.42559 
L 398.190775 -234.030342 
L 396.420697 -239.833114 
L 394.650619 -244.674857 
L 392.880542 -248.486091 
L 391.110464 -251.281442 
L 389.340386 -253.143428 
L 387.570309 -254.200174 
L 385.800231 -254.601964 
L 384.030153 -254.500574 
L 382.260076 -254.033869 
L 380.489998 -253.316617 
L 378.71992 -252.437189 
L 376.949843 -251.458952 
L 375.179765 -250.424678 
L 373.409687 -249.362239 
L 371.63961 -248.290096 
L 369.869532 -247.22162 
L 368.099454 -246.16785 
L 366.329377 -245.13883 
L 364.559299 -244.143978 
L 362.789221 -243.192002 
L 361.019144 -242.29074 
L 359.249066 -241.447094 
L 357.478988 -240.666989 
L 355.708911 -239.955203 
L 353.938833 -239.314937 
L 352.168755 -238.747051 
L 350.398678 -238.249099 
L 348.6286 -237.814378 
L 346.858522 -237.431321 
L 345.088445 -237.083558 
L 343.318367 -236.750842 
L 341.548289 -236.410816 
L 339.778212 -236.041402 
L 338.008134 -235.623327 
L 336.238056 -235.142303 
L 334.467979 -234.590416 
L 332.697901 -233.966541 
L 330.927823 -233.275855 
L 329.157746 -232.528715 
L 327.387668 -231.739283 
L 325.617591 -230.924148 
L 323.847513 -230.1011 
L 322.077435 -229.288003 
L 320.307358 -228.501674 
L 318.53728 -227.756693 
L 316.767202 -227.064153 
L 314.997125 -226.430518 
L 313.227047 -225.856794 
L 311.456969 -225.338252 
L 309.686892 -224.864855 
L 307.916814 -224.422417 
L 306.146736 -223.994381 
L 304.376659 -223.563981 
L 302.606581 -223.11643 
L 300.836503 -222.640776 
L 299.066426 -222.131096 
L 297.296348 -221.586828 
L 295.52627 -221.012246 
L 293.756193 -220.415248 
L 291.986115 -219.805798 
L 290.216037 -219.194407 
L 288.44596 -218.590948 
L 286.675882 -218.003982 
L 284.905804 -217.440567 
L 283.135727 -216.906398 
L 281.365649 -216.406055 
L 279.595571 -215.943167 
L 277.825494 -215.520386 
L 276.055416 -215.139172 
L 274.285338 -214.799477 
L 272.515261 -214.49944 
L 270.745183 -214.235208 
L 268.975105 -214.000948 
L 267.205028 -213.789056 
L 265.43495 -213.590529 
L 263.664872 -213.395448 
L 261.894795 -213.193523 
L 260.124717 -212.974656 
L 258.354639 -212.72952 
L 256.584562 -212.450146 
L 254.814484 -212.130491 
L 253.044406 -211.76696 
L 251.274329 -211.358778 
L 249.504251 -210.908138 
L 247.734173 -210.420034 
L 245.964096 -209.901755 
L 244.194018 -209.362116 
L 242.42394 -208.810562 
L 240.653863 -208.256324 
L 238.883785 -207.707813 
L 237.113707 -207.172314 
L 235.34363 -206.655951 
L 233.573552 -206.163786 
L 231.803474 -205.699876 
L 230.033397 -205.267129 
L 228.263319 -204.866948 
L 226.493241 -204.498747 
L 224.723164 -204.159559 
L 222.953086 -203.843956 
L 221.183009 -203.544468 
L 219.412931 -203.25253 
L 217.642853 -202.959801 
L 215.872776 -202.659609 
L 214.102698 -202.348148 
L 212.33262 -202.02513 
L 210.562543 -201.693715 
L 208.792465 -201.359715 
L 207.022387 -201.030279 
L 205.25231 -200.712393 
L 203.482232 -200.411565 
L 201.712154 -200.131002 
L 199.942077 -199.871434 
L 198.171999 -199.631535 
L 196.401921 -199.408754 
L 194.631844 -199.200257 
L 192.861766 -199.003704 
L 191.091688 -198.817645 
L 189.321611 -198.641472 
L 187.551533 -198.474978 
L 185.781455 -198.31769 
L 184.011378 -198.168174 
L 182.2413 -198.02351 
L 180.471222 -197.879088 
L 178.701145 -197.728751 
L 176.931067 -197.565278 
L 175.160989 -197.38108 
L 173.390912 -197.168998 
L 171.620834 -196.923064 
L 169.850756 -196.639149 
L 168.080679 -196.315468 
L 166.310601 -195.952919 
L 164.540523 -195.555263 
L 162.770446 -195.129144 
L 161.000368 -194.683905 
L 159.23029 -194.231177 
L 157.460213 -193.784224 
L 155.690135 -193.357067 
L 153.920057 -192.963454 
L 152.14998 -192.615798 
L 150.379902 -192.324196 
L 148.609824 -192.095667 
L 146.839747 -191.933708 
L 145.069669 -191.83822 
L 143.299591 -191.805823 
L 141.529514 -191.830515 
L 139.759436 -191.904598 
L 137.989358 -192.019739 
L 136.219281 -192.168026 
L 134.449203 -192.342864 
L 132.679125 -192.539597 
L 130.909048 -192.755773 
L 129.13897 -192.991046 
L 127.368892 -193.246762 
L 125.598815 -193.525322 
L 123.828737 -193.829458 
L 122.058659 -194.161552 
L 120.288582 -194.523085 
L 118.518504 -194.914294 
L 116.748427 -195.334006 
L 114.978349 -195.779624 
L 113.208271 -196.247175 
L 111.438194 -196.731349 
L 109.668116 -197.225472 
L 107.898038 -197.721427 
L 106.127961 -198.209558 
L 104.357883 -198.678639 
L 102.587805 -199.116031 
L 100.817728 -199.508097 
L 99.04765 -199.840947 
L 97.277572 -200.101501 
L 95.507495 -200.278777 
L 93.737417 -200.365244 
L 91.967339 -200.357996 
L 90.197262 -200.259508 
L 88.427184 -200.077735 
L 86.657106 -199.825458 
L 84.887029 -199.518887 
L 83.116951 -199.175725 
L 81.346873 -198.813002 
L 79.576796 -198.445029 
L 77.806718 -198.081774 
L 76.03664 -197.727817 
L 74.266563 -197.381875 
L 72.496485 -197.03672 
L 70.726407 -196.679291 
L 68.95633 -196.290826 
L 67.186252 -195.847056 
L 65.416174 -195.318693 
L 63.646097 -194.672625 
L 61.876019 -193.874233 
L 60.105941 -192.891065 
L 58.335864 -191.697698 
L 56.565786 -190.281142 
L 54.795708 -188.645717 
L 53.025631 -186.816147 
L 51.255553 -184.837796 
L 49.485475 -182.773528 
L 47.715398 -180.697398 
z
" style="stroke: #1f77b4"/>
    </defs>
    <g clip-path="url(#p7895e74334)">
     <use xlink:href="#mb39585f799" x="0" y="279.674687" style="fill: #1f77b4; fill-opacity: 0.4; stroke: #1f77b4"/>
    </g>
   </g>
   <g id="FillBetweenPolyCollection_2">
    <defs>
     <path id="m5de72ce7ca" d="M 47.753643 -197.72947 
L 47.753643 -169.11625 
L 49.523529 -169.11625 
L 51.293414 -169.11625 
L 53.0633 -169.11625 
L 54.833185 -169.11625 
L 56.603071 -169.11625 
L 58.372956 -169.11625 
L 60.142842 -169.11625 
L 61.912727 -169.11625 
L 63.682613 -169.11625 
L 65.452498 -169.11625 
L 67.222384 -169.11625 
L 68.992269 -169.11625 
L 70.762155 -169.11625 
L 72.53204 -169.11625 
L 74.301926 -169.11625 
L 76.071811 -169.11625 
L 77.841696 -169.11625 
L 79.611582 -169.11625 
L 81.381467 -169.11625 
L 83.151353 -169.11625 
L 84.921238 -169.11625 
L 86.691124 -169.11625 
L 88.461009 -169.11625 
L 90.230895 -169.11625 
L 92.00078 -169.11625 
L 93.770666 -169.11625 
L 95.540551 -169.11625 
L 97.310437 -169.11625 
L 99.080322 -169.11625 
L 100.850208 -169.11625 
L 102.620093 -169.11625 
L 104.389979 -169.11625 
L 106.159864 -169.11625 
L 107.92975 -169.11625 
L 109.699635 -169.11625 
L 111.46952 -169.11625 
L 113.239406 -169.11625 
L 115.009291 -169.11625 
L 116.779177 -169.11625 
L 118.549062 -169.11625 
L 120.318948 -169.11625 
L 122.088833 -169.11625 
L 123.858719 -169.11625 
L 125.628604 -169.11625 
L 127.39849 -169.11625 
L 129.168375 -169.11625 
L 130.938261 -169.11625 
L 132.708146 -169.11625 
L 134.478032 -169.11625 
L 136.247917 -169.11625 
L 138.017803 -169.11625 
L 139.787688 -169.11625 
L 141.557573 -169.11625 
L 143.327459 -169.11625 
L 145.097344 -169.11625 
L 146.86723 -169.11625 
L 148.637115 -169.11625 
L 150.407001 -169.11625 
L 152.176886 -169.11625 
L 153.946772 -169.11625 
L 155.716657 -169.11625 
L 157.486543 -169.11625 
L 159.256428 -169.11625 
L 161.026314 -169.11625 
L 162.796199 -169.11625 
L 164.566085 -169.11625 
L 166.33597 -169.11625 
L 168.105856 -169.11625 
L 169.875741 -169.11625 
L 171.645626 -169.11625 
L 173.415512 -169.11625 
L 175.185397 -169.11625 
L 176.955283 -169.11625 
L 178.725168 -169.11625 
L 180.495054 -169.11625 
L 182.264939 -169.11625 
L 184.034825 -169.11625 
L 185.80471 -169.11625 
L 187.574596 -169.11625 
L 189.344481 -169.11625 
L 191.114367 -169.11625 
L 192.884252 -169.11625 
L 194.654138 -169.11625 
L 196.424023 -169.11625 
L 198.193909 -169.11625 
L 199.963794 -169.11625 
L 201.733679 -169.11625 
L 203.503565 -169.11625 
L 205.27345 -169.11625 
L 207.043336 -169.11625 
L 208.813221 -169.11625 
L 210.583107 -169.11625 
L 212.352992 -169.11625 
L 214.122878 -169.11625 
L 215.892763 -169.11625 
L 217.662649 -169.11625 
L 219.432534 -169.11625 
L 221.20242 -169.11625 
L 222.972305 -169.11625 
L 224.742191 -169.11625 
L 226.512076 -169.11625 
L 228.281962 -169.11625 
L 230.051847 -169.11625 
L 231.821732 -169.11625 
L 233.591618 -169.11625 
L 235.361503 -169.11625 
L 237.131389 -169.11625 
L 238.901274 -169.11625 
L 240.67116 -169.11625 
L 242.441045 -169.11625 
L 244.210931 -169.11625 
L 245.980816 -169.11625 
L 247.750702 -169.11625 
L 249.520587 -169.11625 
L 251.290473 -169.11625 
L 253.060358 -169.11625 
L 254.830244 -169.11625 
L 256.600129 -169.11625 
L 258.370015 -169.11625 
L 260.1399 -169.11625 
L 261.909786 -169.11625 
L 263.679671 -169.11625 
L 265.449556 -169.11625 
L 267.219442 -169.11625 
L 268.989327 -169.11625 
L 270.759213 -169.11625 
L 272.529098 -169.11625 
L 274.298984 -169.11625 
L 276.068869 -169.11625 
L 277.838755 -169.11625 
L 279.60864 -169.11625 
L 281.378526 -169.11625 
L 283.148411 -169.11625 
L 284.918297 -169.11625 
L 286.688182 -169.11625 
L 288.458068 -169.11625 
L 290.227953 -169.11625 
L 291.997839 -169.11625 
L 293.767724 -169.11625 
L 295.537609 -169.11625 
L 297.307495 -169.11625 
L 299.07738 -169.11625 
L 300.847266 -169.11625 
L 302.617151 -169.11625 
L 304.387037 -169.11625 
L 306.156922 -169.11625 
L 307.926808 -169.11625 
L 309.696693 -169.11625 
L 311.466579 -169.11625 
L 313.236464 -169.11625 
L 315.00635 -169.11625 
L 316.776235 -169.11625 
L 318.546121 -169.11625 
L 320.316006 -169.11625 
L 322.085892 -169.11625 
L 323.855777 -169.11625 
L 325.625662 -169.11625 
L 327.395548 -169.11625 
L 329.165433 -169.11625 
L 330.935319 -169.11625 
L 332.705204 -169.11625 
L 334.47509 -169.11625 
L 336.244975 -169.11625 
L 338.014861 -169.11625 
L 339.784746 -169.11625 
L 341.554632 -169.11625 
L 343.324517 -169.11625 
L 345.094403 -169.11625 
L 346.864288 -169.11625 
L 348.634174 -169.11625 
L 350.404059 -169.11625 
L 352.173945 -169.11625 
L 353.94383 -169.11625 
L 355.713715 -169.11625 
L 357.483601 -169.11625 
L 359.253486 -169.11625 
L 361.023372 -169.11625 
L 362.793257 -169.11625 
L 364.563143 -169.11625 
L 366.333028 -169.11625 
L 368.102914 -169.11625 
L 369.872799 -169.11625 
L 371.642685 -169.11625 
L 373.41257 -169.11625 
L 375.182456 -169.11625 
L 376.952341 -169.11625 
L 378.722227 -169.11625 
L 380.492112 -169.11625 
L 382.261998 -169.11625 
L 384.031883 -169.11625 
L 385.801769 -169.11625 
L 387.571654 -169.11625 
L 389.341539 -169.11625 
L 391.111425 -169.11625 
L 392.88131 -169.11625 
L 394.651196 -169.11625 
L 396.421081 -169.11625 
L 398.190967 -169.11625 
L 399.960852 -169.11625 
L 399.960852 -227.141146 
L 399.960852 -227.141146 
L 398.190967 -229.230796 
L 396.421081 -231.161638 
L 394.651196 -232.920715 
L 392.88131 -234.497633 
L 391.111425 -235.884735 
L 389.341539 -237.077191 
L 387.571654 -238.073027 
L 385.801769 -238.87308 
L 384.031883 -239.480882 
L 382.261998 -239.902487 
L 380.492112 -240.146236 
L 378.722227 -240.222478 
L 376.952341 -240.143252 
L 375.182456 -239.921945 
L 373.41257 -239.572927 
L 371.642685 -239.111194 
L 369.872799 -238.552 
L 368.102914 -237.910525 
L 366.333028 -237.201552 
L 364.563143 -236.439185 
L 362.793257 -235.636606 
L 361.023372 -234.80587 
L 359.253486 -233.957754 
L 357.483601 -233.101648 
L 355.713715 -232.245496 
L 353.94383 -231.395779 
L 352.173945 -230.557547 
L 350.404059 -229.734483 
L 348.634174 -228.929001 
L 346.864288 -228.142374 
L 345.094403 -227.37488 
L 343.324517 -226.625965 
L 341.554632 -225.894415 
L 339.784746 -225.178524 
L 338.014861 -224.476271 
L 336.244975 -223.785473 
L 334.47509 -223.10394 
L 332.705204 -222.429604 
L 330.935319 -221.76063 
L 329.165433 -221.095512 
L 327.395548 -220.433134 
L 325.625662 -219.772823 
L 323.855777 -219.114368 
L 322.085892 -218.458022 
L 320.316006 -217.804488 
L 318.546121 -217.154879 
L 316.776235 -216.510672 
L 315.00635 -215.873642 
L 313.236464 -215.245796 
L 311.466579 -214.629294 
L 309.696693 -214.026366 
L 307.926808 -213.43924 
L 306.156922 -212.870058 
L 304.387037 -212.320805 
L 302.617151 -211.79325 
L 300.847266 -211.288882 
L 299.07738 -210.80887 
L 297.307495 -210.354024 
L 295.537609 -209.924775 
L 293.767724 -209.521161 
L 291.997839 -209.142827 
L 290.227953 -208.789038 
L 288.458068 -208.458694 
L 286.688182 -208.150366 
L 284.918297 -207.86233 
L 283.148411 -207.592611 
L 281.378526 -207.339031 
L 279.60864 -207.099264 
L 277.838755 -206.870884 
L 276.068869 -206.651421 
L 274.298984 -206.438414 
L 272.529098 -206.22946 
L 270.759213 -206.022256 
L 268.989327 -205.814642 
L 267.219442 -205.604638 
L 265.449556 -205.390464 
L 263.679671 -205.170571 
L 261.909786 -204.943647 
L 260.1399 -204.708627 
L 258.370015 -204.464696 
L 256.600129 -204.211276 
L 254.830244 -203.94802 
L 253.060358 -203.674791 
L 251.290473 -203.391641 
L 249.520587 -203.098787 
L 247.750702 -202.796582 
L 245.980816 -202.485489 
L 244.210931 -202.166045 
L 242.441045 -201.838841 
L 240.67116 -201.504489 
L 238.901274 -201.163599 
L 237.131389 -200.816759 
L 235.361503 -200.464516 
L 233.591618 -200.107362 
L 231.821732 -199.745724 
L 230.051847 -199.379966 
L 228.281962 -199.010381 
L 226.512076 -198.637203 
L 224.742191 -198.26061 
L 222.972305 -197.880742 
L 221.20242 -197.497718 
L 219.432534 -197.111647 
L 217.662649 -196.722656 
L 215.892763 -196.330908 
L 214.122878 -195.936624 
L 212.352992 -195.540103 
L 210.583107 -195.14174 
L 208.813221 -194.742045 
L 207.043336 -194.341656 
L 205.27345 -193.941349 
L 203.503565 -193.542043 
L 201.733679 -193.144806 
L 199.963794 -192.750853 
L 198.193909 -192.361538 
L 196.424023 -191.978344 
L 194.654138 -191.602874 
L 192.884252 -191.236832 
L 191.114367 -190.882003 
L 189.344481 -190.540232 
L 187.574596 -190.213405 
L 185.80471 -189.903419 
L 184.034825 -189.612165 
L 182.264939 -189.341499 
L 180.495054 -189.093223 
L 178.725168 -188.869063 
L 176.955283 -188.670649 
L 175.185397 -188.4995 
L 173.415512 -188.357006 
L 171.645626 -188.24442 
L 169.875741 -188.162846 
L 168.105856 -188.113235 
L 166.33597 -188.096376 
L 164.566085 -188.112902 
L 162.796199 -188.163283 
L 161.026314 -188.247837 
L 159.256428 -188.366729 
L 157.486543 -188.519983 
L 155.716657 -188.707489 
L 153.946772 -188.929013 
L 152.176886 -189.184211 
L 150.407001 -189.472641 
L 148.637115 -189.793775 
L 146.86723 -190.147013 
L 145.097344 -190.531701 
L 143.327459 -190.947137 
L 141.557573 -191.39259 
L 139.787688 -191.867309 
L 138.017803 -192.370527 
L 136.247917 -192.901475 
L 134.478032 -193.459382 
L 132.708146 -194.043471 
L 130.938261 -194.652961 
L 129.168375 -195.287057 
L 127.39849 -195.944931 
L 125.628604 -196.625712 
L 123.858719 -197.328456 
L 122.088833 -198.052124 
L 120.318948 -198.795546 
L 118.549062 -199.557385 
L 116.779177 -200.336101 
L 115.009291 -201.129908 
L 113.239406 -201.936729 
L 111.46952 -202.754157 
L 109.699635 -203.579416 
L 107.92975 -204.409315 
L 106.159864 -205.240224 
L 104.389979 -206.068042 
L 102.620093 -206.888181 
L 100.850208 -207.695554 
L 99.080322 -208.484582 
L 97.310437 -209.249207 
L 95.540551 -209.98292 
L 93.770666 -210.678808 
L 92.00078 -211.329614 
L 90.230895 -211.927811 
L 88.461009 -212.465694 
L 86.691124 -212.935486 
L 84.921238 -213.329456 
L 83.151353 -213.640052 
L 81.381467 -213.860039 
L 79.611582 -213.982643 
L 77.841696 -214.001704 
L 76.071811 -213.911817 
L 74.301926 -213.708479 
L 72.53204 -213.388218 
L 70.762155 -212.948713 
L 68.992269 -212.388893 
L 67.222384 -211.709019 
L 65.452498 -210.910736 
L 63.682613 -209.997097 
L 61.912727 -208.972566 
L 60.142842 -207.842976 
L 58.372956 -206.615469 
L 56.603071 -205.298402 
L 54.833185 -203.901218 
L 53.0633 -202.434305 
L 51.293414 -200.908818 
L 49.523529 -199.336499 
L 47.753643 -197.72947 
z
" style="stroke: #ff7f0e"/>
    </defs>
    <g clip-path="url(#p7895e74334)">
     <use xlink:href="#m5de72ce7ca" x="0" y="279.674687" style="fill: #ff7f0e; fill-opacity: 0.4; stroke: #ff7f0e"/>
    </g>
   </g>
   <g id="matplotlib.axis_1">
    <g id="xtick_1">
     <g id="line2d_1">
      <defs>
       <path id="ma9f2da1feb" d="M 0 0 
L 0 3.5 
" style="stroke: #000000; stroke-width: 0.8"/>
      </defs>
      <g>
       <use xlink:href="#ma9f2da1feb" x="47.701992" y="110.558437" style="stroke: #000000; stroke-width: 0.8"/>
      </g>
     </g>
     <g id="text_1">
      <!-- 0.0 -->
      <g transform="translate(39.75043 125.156875) scale(0.1 -0.1)">
       <defs>
        <path id="DejaVuSans-30" d="M 2034 4250 
Q 1547 4250 1301 3770 
Q 1056 3291 1056 2328 
Q 1056 1369 1301 889 
Q 1547 409 2034 409 
Q 2525 409 2770 889 
Q 3016 1369 3016 2328 
Q 3016 3291 2770 3770 
Q 2525 4250 2034 4250 
z
M 2034 4750 
Q 2819 4750 3233 4129 
Q 3647 3509 3647 2328 
Q 3647 1150 3233 529 
Q 2819 -91 2034 -91 
Q 1250 -91 836 529 
Q 422 1150 422 2328 
Q 422 3509 836 4129 
Q 1250 4750 2034 4750 
z
" transform="scale(0.015625)"/>
        <path id="DejaVuSans-2e" d="M 684 794 
L 1344 794 
L 1344 0 
L 684 0 
L 684 794 
z
" transform="scale(0.015625)"/>
       </defs>
       <use xlink:href="#DejaVuSans-30"/>
       <use xlink:href="#DejaVuSans-2e" transform="translate(63.623047 0)"/>
       <use xlink:href="#DejaVuSans-30" transform="translate(95.410156 0)"/>
      </g>
     </g>
    </g>
    <g id="xtick_2">
     <g id="line2d_2">
      <g>
       <use xlink:href="#ma9f2da1feb" x="118.153764" y="110.558437" style="stroke: #000000; stroke-width: 0.8"/>
      </g>
     </g>
     <g id="text_2">
      <!-- 0.2 -->
      <g transform="translate(110.202202 125.156875) scale(0.1 -0.1)">
       <defs>
        <path id="DejaVuSans-32" d="M 1228 531 
L 3431 531 
L 3431 0 
L 469 0 
L 469 531 
Q 828 903 1448 1529 
Q 2069 2156 2228 2338 
Q 2531 2678 2651 2914 
Q 2772 3150 2772 3378 
Q 2772 3750 2511 3984 
Q 2250 4219 1831 4219 
Q 1534 4219 1204 4116 
Q 875 4013 500 3803 
L 500 4441 
Q 881 4594 1212 4672 
Q 1544 4750 1819 4750 
Q 2544 4750 2975 4387 
Q 3406 4025 3406 3419 
Q 3406 3131 3298 2873 
Q 3191 2616 2906 2266 
Q 2828 2175 2409 1742 
Q 1991 1309 1228 531 
z
" transform="scale(0.015625)"/>
       </defs>
       <use xlink:href="#DejaVuSans-30"/>
       <use xlink:href="#DejaVuSans-2e" transform="translate(63.623047 0)"/>
       <use xlink:href="#DejaVuSans-32" transform="translate(95.410156 0)"/>
      </g>
     </g>
    </g>
    <g id="xtick_3">
     <g id="line2d_3">
      <g>
       <use xlink:href="#ma9f2da1feb" x="188.605536" y="110.558437" style="stroke: #000000; stroke-width: 0.8"/>
      </g>
     </g>
     <g id="text_3">
      <!-- 0.4 -->
      <g transform="translate(180.653974 125.156875) scale(0.1 -0.1)">
       <defs>
        <path id="DejaVuSans-34" d="M 2419 4116 
L 825 1625 
L 2419 1625 
L 2419 4116 
z
M 2253 4666 
L 3047 4666 
L 3047 1625 
L 3713 1625 
L 3713 1100 
L 3047 1100 
L 3047 0 
L 2419 0 
L 2419 1100 
L 313 1100 
L 313 1709 
L 2253 4666 
z
" transform="scale(0.015625)"/>
       </defs>
       <use xlink:href="#DejaVuSans-30"/>
       <use xlink:href="#DejaVuSans-2e" transform="translate(63.623047 0)"/>
       <use xlink:href="#DejaVuSans-34" transform="translate(95.410156 0)"/>
      </g>
     </g>
    </g>
    <g id="xtick_4">
     <g id="line2d_4">
      <g>
       <use xlink:href="#ma9f2da1feb" x="259.057308" y="110.558437" style="stroke: #000000; stroke-width: 0.8"/>
      </g>
     </g>
     <g id="text_4">
      <!-- 0.6 -->
      <g transform="translate(251.105746 125.156875) scale(0.1 -0.1)">
       <defs>
        <path id="DejaVuSans-36" d="M 2113 2584 
Q 1688 2584 1439 2293 
Q 1191 2003 1191 1497 
Q 1191 994 1439 701 
Q 1688 409 2113 409 
Q 2538 409 2786 701 
Q 3034 994 3034 1497 
Q 3034 2003 2786 2293 
Q 2538 2584 2113 2584 
z
M 3366 4563 
L 3366 3988 
Q 3128 4100 2886 4159 
Q 2644 4219 2406 4219 
Q 1781 4219 1451 3797 
Q 1122 3375 1075 2522 
Q 1259 2794 1537 2939 
Q 1816 3084 2150 3084 
Q 2853 3084 3261 2657 
Q 3669 2231 3669 1497 
Q 3669 778 3244 343 
Q 2819 -91 2113 -91 
Q 1303 -91 875 529 
Q 447 1150 447 2328 
Q 447 3434 972 4092 
Q 1497 4750 2381 4750 
Q 2619 4750 2861 4703 
Q 3103 4656 3366 4563 
z
" transform="scale(0.015625)"/>
       </defs>
       <use xlink:href="#DejaVuSans-30"/>
       <use xlink:href="#DejaVuSans-2e" transform="translate(63.623047 0)"/>
       <use xlink:href="#DejaVuSans-36" transform="translate(95.410156 0)"/>
      </g>
     </g>
    </g>
    <g id="xtick_5">
     <g id="line2d_5">
      <g>
       <use xlink:href="#ma9f2da1feb" x="329.50908" y="110.558437" style="stroke: #000000; stroke-width: 0.8"/>
      </g>
     </g>
     <g id="text_5">
      <!-- 0.8 -->
      <g transform="translate(321.557518 125.156875) scale(0.1 -0.1)">
       <defs>
        <path id="DejaVuSans-38" d="M 2034 2216 
Q 1584 2216 1326 1975 
Q 1069 1734 1069 1313 
Q 1069 891 1326 650 
Q 1584 409 2034 409 
Q 2484 409 2743 651 
Q 3003 894 3003 1313 
Q 3003 1734 2745 1975 
Q 2488 2216 2034 2216 
z
M 1403 2484 
Q 997 2584 770 2862 
Q 544 3141 544 3541 
Q 544 4100 942 4425 
Q 1341 4750 2034 4750 
Q 2731 4750 3128 4425 
Q 3525 4100 3525 3541 
Q 3525 3141 3298 2862 
Q 3072 2584 2669 2484 
Q 3125 2378 3379 2068 
Q 3634 1759 3634 1313 
Q 3634 634 3220 271 
Q 2806 -91 2034 -91 
Q 1263 -91 848 271 
Q 434 634 434 1313 
Q 434 1759 690 2068 
Q 947 2378 1403 2484 
z
M 1172 3481 
Q 1172 3119 1398 2916 
Q 1625 2713 2034 2713 
Q 2441 2713 2670 2916 
Q 2900 3119 2900 3481 
Q 2900 3844 2670 4047 
Q 2441 4250 2034 4250 
Q 1625 4250 1398 4047 
Q 1172 3844 1172 3481 
z
" transform="scale(0.015625)"/>
       </defs>
       <use xlink:href="#DejaVuSans-30"/>
       <use xlink:href="#DejaVuSans-2e" transform="translate(63.623047 0)"/>
       <use xlink:href="#DejaVuSans-38" transform="translate(95.410156 0)"/>
      </g>
     </g>
    </g>
    <g id="xtick_6">
     <g id="line2d_6">
      <g>
       <use xlink:href="#ma9f2da1feb" x="399.960852" y="110.558437" style="stroke: #000000; stroke-width: 0.8"/>
      </g>
     </g>
     <g id="text_6">
      <!-- 1.0 -->
      <g transform="translate(392.00929 125.156875) scale(0.1 -0.1)">
       <defs>
        <path id="DejaVuSans-31" d="M 794 531 
L 1825 531 
L 1825 4091 
L 703 3866 
L 703 4441 
L 1819 4666 
L 2450 4666 
L 2450 531 
L 3481 531 
L 3481 0 
L 794 0 
L 794 531 
z
" transform="scale(0.015625)"/>
       </defs>
       <use xlink:href="#DejaVuSans-31"/>
       <use xlink:href="#DejaVuSans-2e" transform="translate(63.623047 0)"/>
       <use xlink:href="#DejaVuSans-30" transform="translate(95.410156 0)"/>
      </g>
     </g>
    </g>
   </g>
   <g id="matplotlib.axis_2">
    <g id="ytick_1">
     <g id="line2d_7">
      <defs>
       <path id="mfae4f141fa" d="M 0 0 
L -3.5 0 
" style="stroke: #000000; stroke-width: 0.8"/>
      </defs>
      <g>
       <use xlink:href="#mfae4f141fa" x="30.103125" y="110.558437" style="stroke: #000000; stroke-width: 0.8"/>
      </g>
     </g>
     <g id="text_7">
      <!-- 0 -->
      <g transform="translate(16.740625 114.357656) scale(0.1 -0.1)">
       <use xlink:href="#DejaVuSans-30"/>
      </g>
     </g>
    </g>
    <g id="ytick_2">
     <g id="line2d_8">
      <g>
       <use xlink:href="#mfae4f141fa" x="30.103125" y="66.225076" style="stroke: #000000; stroke-width: 0.8"/>
      </g>
     </g>
     <g id="text_8">
      <!-- 1 -->
      <g transform="translate(16.740625 70.024295) scale(0.1 -0.1)">
       <use xlink:href="#DejaVuSans-31"/>
      </g>
     </g>
    </g>
    <g id="ytick_3">
     <g id="line2d_9">
      <g>
       <use xlink:href="#mfae4f141fa" x="30.103125" y="21.891714" style="stroke: #000000; stroke-width: 0.8"/>
      </g>
     </g>
     <g id="text_9">
      <!-- 2 -->
      <g transform="translate(16.740625 25.690933) scale(0.1 -0.1)">
       <use xlink:href="#DejaVuSans-32"/>
      </g>
     </g>
    </g>
   </g>
   <g id="patch_3">
    <path d="M 30.103125 110.558437 
L 30.103125 20.798437 
" style="fill: none; stroke: #000000; stroke-width: 0.8; stroke-linejoin: miter; stroke-linecap: square"/>
   </g>
   <g id="patch_4">
    <path d="M 30.103125 110.558437 
L 417.573125 110.558437 
" style="fill: none; stroke: #000000; stroke-width: 0.8; stroke-linejoin: miter; stroke-linecap: square"/>
   </g>
   <g id="text_10">
    <!-- Non-Neural -->
    <g transform="translate(195.570937 14.798437) scale(0.1 -0.1)">
     <defs>
      <path id="DejaVuSans-4e" d="M 628 4666 
L 1478 4666 
L 3547 763 
L 3547 4666 
L 4159 4666 
L 4159 0 
L 3309 0 
L 1241 3903 
L 1241 0 
L 628 0 
L 628 4666 
z
" transform="scale(0.015625)"/>
      <path id="DejaVuSans-6f" d="M 1959 3097 
Q 1497 3097 1228 2736 
Q 959 2375 959 1747 
Q 959 1119 1226 758 
Q 1494 397 1959 397 
Q 2419 397 2687 759 
Q 2956 1122 2956 1747 
Q 2956 2369 2687 2733 
Q 2419 3097 1959 3097 
z
M 1959 3584 
Q 2709 3584 3137 3096 
Q 3566 2609 3566 1747 
Q 3566 888 3137 398 
Q 2709 -91 1959 -91 
Q 1206 -91 779 398 
Q 353 888 353 1747 
Q 353 2609 779 3096 
Q 1206 3584 1959 3584 
z
" transform="scale(0.015625)"/>
      <path id="DejaVuSans-6e" d="M 3513 2113 
L 3513 0 
L 2938 0 
L 2938 2094 
Q 2938 2591 2744 2837 
Q 2550 3084 2163 3084 
Q 1697 3084 1428 2787 
Q 1159 2491 1159 1978 
L 1159 0 
L 581 0 
L 581 3500 
L 1159 3500 
L 1159 2956 
Q 1366 3272 1645 3428 
Q 1925 3584 2291 3584 
Q 2894 3584 3203 3211 
Q 3513 2838 3513 2113 
z
" transform="scale(0.015625)"/>
      <path id="DejaVuSans-2d" d="M 313 2009 
L 1997 2009 
L 1997 1497 
L 313 1497 
L 313 2009 
z
" transform="scale(0.015625)"/>
      <path id="DejaVuSans-65" d="M 3597 1894 
L 3597 1613 
L 953 1613 
Q 991 1019 1311 708 
Q 1631 397 2203 397 
Q 2534 397 2845 478 
Q 3156 559 3463 722 
L 3463 178 
Q 3153 47 2828 -22 
Q 2503 -91 2169 -91 
Q 1331 -91 842 396 
Q 353 884 353 1716 
Q 353 2575 817 3079 
Q 1281 3584 2069 3584 
Q 2775 3584 3186 3129 
Q 3597 2675 3597 1894 
z
M 3022 2063 
Q 3016 2534 2758 2815 
Q 2500 3097 2075 3097 
Q 1594 3097 1305 2825 
Q 1016 2553 972 2059 
L 3022 2063 
z
" transform="scale(0.015625)"/>
      <path id="DejaVuSans-75" d="M 544 1381 
L 544 3500 
L 1119 3500 
L 1119 1403 
Q 1119 906 1312 657 
Q 1506 409 1894 409 
Q 2359 409 2629 706 
Q 2900 1003 2900 1516 
L 2900 3500 
L 3475 3500 
L 3475 0 
L 2900 0 
L 2900 538 
Q 2691 219 2414 64 
Q 2138 -91 1772 -91 
Q 1169 -91 856 284 
Q 544 659 544 1381 
z
M 1991 3584 
L 1991 3584 
z
" transform="scale(0.015625)"/>
      <path id="DejaVuSans-72" d="M 2631 2963 
Q 2534 3019 2420 3045 
Q 2306 3072 2169 3072 
Q 1681 3072 1420 2755 
Q 1159 2438 1159 1844 
L 1159 0 
L 581 0 
L 581 3500 
L 1159 3500 
L 1159 2956 
Q 1341 3275 1631 3429 
Q 1922 3584 2338 3584 
Q 2397 3584 2469 3576 
Q 2541 3569 2628 3553 
L 2631 2963 
z
" transform="scale(0.015625)"/>
      <path id="DejaVuSans-61" d="M 2194 1759 
Q 1497 1759 1228 1600 
Q 959 1441 959 1056 
Q 959 750 1161 570 
Q 1363 391 1709 391 
Q 2188 391 2477 730 
Q 2766 1069 2766 1631 
L 2766 1759 
L 2194 1759 
z
M 3341 1997 
L 3341 0 
L 2766 0 
L 2766 531 
Q 2569 213 2275 61 
Q 1981 -91 1556 -91 
Q 1019 -91 701 211 
Q 384 513 384 1019 
Q 384 1609 779 1909 
Q 1175 2209 1959 2209 
L 2766 2209 
L 2766 2266 
Q 2766 2663 2505 2880 
Q 2244 3097 1772 3097 
Q 1472 3097 1187 3025 
Q 903 2953 641 2809 
L 641 3341 
Q 956 3463 1253 3523 
Q 1550 3584 1831 3584 
Q 2591 3584 2966 3190 
Q 3341 2797 3341 1997 
z
" transform="scale(0.015625)"/>
      <path id="DejaVuSans-6c" d="M 603 4863 
L 1178 4863 
L 1178 0 
L 603 0 
L 603 4863 
z
" transform="scale(0.015625)"/>
     </defs>
     <use xlink:href="#DejaVuSans-4e"/>
     <use xlink:href="#DejaVuSans-6f" transform="translate(74.804688 0)"/>
     <use xlink:href="#DejaVuSans-6e" transform="translate(135.986328 0)"/>
     <use xlink:href="#DejaVuSans-2d" transform="translate(199.365234 0)"/>
     <use xlink:href="#DejaVuSans-4e" transform="translate(235.449219 0)"/>
     <use xlink:href="#DejaVuSans-65" transform="translate(310.253906 0)"/>
     <use xlink:href="#DejaVuSans-75" transform="translate(371.777344 0)"/>
     <use xlink:href="#DejaVuSans-72" transform="translate(435.15625 0)"/>
     <use xlink:href="#DejaVuSans-61" transform="translate(476.269531 0)"/>
     <use xlink:href="#DejaVuSans-6c" transform="translate(537.548828 0)"/>
    </g>
   </g>
  </g>
  <g id="axes_2">
   <g id="patch_5">
    <path d="M 30.103125 242.118437 
L 417.573125 242.118437 
L 417.573125 152.358437 
L 30.103125 152.358437 
z
" style="fill: #ffffff"/>
   </g>
   <g id="FillBetweenPolyCollection_3">
    <defs>
     <path id="m6fa396e4c6" d="M 47.715398 -51.158452 
L 47.715398 -37.55625 
L 49.485475 -37.55625 
L 51.255553 -37.55625 
L 53.025631 -37.55625 
L 54.795708 -37.55625 
L 56.565786 -37.55625 
L 58.335864 -37.55625 
L 60.105941 -37.55625 
L 61.876019 -37.55625 
L 63.646097 -37.55625 
L 65.416174 -37.55625 
L 67.186252 -37.55625 
L 68.95633 -37.55625 
L 70.726407 -37.55625 
L 72.496485 -37.55625 
L 74.266563 -37.55625 
L 76.03664 -37.55625 
L 77.806718 -37.55625 
L 79.576796 -37.55625 
L 81.346873 -37.55625 
L 83.116951 -37.55625 
L 84.887029 -37.55625 
L 86.657106 -37.55625 
L 88.427184 -37.55625 
L 90.197262 -37.55625 
L 91.967339 -37.55625 
L 93.737417 -37.55625 
L 95.507495 -37.55625 
L 97.277572 -37.55625 
L 99.04765 -37.55625 
L 100.817728 -37.55625 
L 102.587805 -37.55625 
L 104.357883 -37.55625 
L 106.127961 -37.55625 
L 107.898038 -37.55625 
L 109.668116 -37.55625 
L 111.438194 -37.55625 
L 113.208271 -37.55625 
L 114.978349 -37.55625 
L 116.748427 -37.55625 
L 118.518504 -37.55625 
L 120.288582 -37.55625 
L 122.058659 -37.55625 
L 123.828737 -37.55625 
L 125.598815 -37.55625 
L 127.368892 -37.55625 
L 129.13897 -37.55625 
L 130.909048 -37.55625 
L 132.679125 -37.55625 
L 134.449203 -37.55625 
L 136.219281 -37.55625 
L 137.989358 -37.55625 
L 139.759436 -37.55625 
L 141.529514 -37.55625 
L 143.299591 -37.55625 
L 145.069669 -37.55625 
L 146.839747 -37.55625 
L 148.609824 -37.55625 
L 150.379902 -37.55625 
L 152.14998 -37.55625 
L 153.920057 -37.55625 
L 155.690135 -37.55625 
L 157.460213 -37.55625 
L 159.23029 -37.55625 
L 161.000368 -37.55625 
L 162.770446 -37.55625 
L 164.540523 -37.55625 
L 166.310601 -37.55625 
L 168.080679 -37.55625 
L 169.850756 -37.55625 
L 171.620834 -37.55625 
L 173.390912 -37.55625 
L 175.160989 -37.55625 
L 176.931067 -37.55625 
L 178.701145 -37.55625 
L 180.471222 -37.55625 
L 182.2413 -37.55625 
L 184.011378 -37.55625 
L 185.781455 -37.55625 
L 187.551533 -37.55625 
L 189.321611 -37.55625 
L 191.091688 -37.55625 
L 192.861766 -37.55625 
L 194.631844 -37.55625 
L 196.401921 -37.55625 
L 198.171999 -37.55625 
L 199.942077 -37.55625 
L 201.712154 -37.55625 
L 203.482232 -37.55625 
L 205.25231 -37.55625 
L 207.022387 -37.55625 
L 208.792465 -37.55625 
L 210.562543 -37.55625 
L 212.33262 -37.55625 
L 214.102698 -37.55625 
L 215.872776 -37.55625 
L 217.642853 -37.55625 
L 219.412931 -37.55625 
L 221.183009 -37.55625 
L 222.953086 -37.55625 
L 224.723164 -37.55625 
L 226.493241 -37.55625 
L 228.263319 -37.55625 
L 230.033397 -37.55625 
L 231.803474 -37.55625 
L 233.573552 -37.55625 
L 235.34363 -37.55625 
L 237.113707 -37.55625 
L 238.883785 -37.55625 
L 240.653863 -37.55625 
L 242.42394 -37.55625 
L 244.194018 -37.55625 
L 245.964096 -37.55625 
L 247.734173 -37.55625 
L 249.504251 -37.55625 
L 251.274329 -37.55625 
L 253.044406 -37.55625 
L 254.814484 -37.55625 
L 256.584562 -37.55625 
L 258.354639 -37.55625 
L 260.124717 -37.55625 
L 261.894795 -37.55625 
L 263.664872 -37.55625 
L 265.43495 -37.55625 
L 267.205028 -37.55625 
L 268.975105 -37.55625 
L 270.745183 -37.55625 
L 272.515261 -37.55625 
L 274.285338 -37.55625 
L 276.055416 -37.55625 
L 277.825494 -37.55625 
L 279.595571 -37.55625 
L 281.365649 -37.55625 
L 283.135727 -37.55625 
L 284.905804 -37.55625 
L 286.675882 -37.55625 
L 288.44596 -37.55625 
L 290.216037 -37.55625 
L 291.986115 -37.55625 
L 293.756193 -37.55625 
L 295.52627 -37.55625 
L 297.296348 -37.55625 
L 299.066426 -37.55625 
L 300.836503 -37.55625 
L 302.606581 -37.55625 
L 304.376659 -37.55625 
L 306.146736 -37.55625 
L 307.916814 -37.55625 
L 309.686892 -37.55625 
L 311.456969 -37.55625 
L 313.227047 -37.55625 
L 314.997125 -37.55625 
L 316.767202 -37.55625 
L 318.53728 -37.55625 
L 320.307358 -37.55625 
L 322.077435 -37.55625 
L 323.847513 -37.55625 
L 325.617591 -37.55625 
L 327.387668 -37.55625 
L 329.157746 -37.55625 
L 330.927823 -37.55625 
L 332.697901 -37.55625 
L 334.467979 -37.55625 
L 336.238056 -37.55625 
L 338.008134 -37.55625 
L 339.778212 -37.55625 
L 341.548289 -37.55625 
L 343.318367 -37.55625 
L 345.088445 -37.55625 
L 346.858522 -37.55625 
L 348.6286 -37.55625 
L 350.398678 -37.55625 
L 352.168755 -37.55625 
L 353.938833 -37.55625 
L 355.708911 -37.55625 
L 357.478988 -37.55625 
L 359.249066 -37.55625 
L 361.019144 -37.55625 
L 362.789221 -37.55625 
L 364.559299 -37.55625 
L 366.329377 -37.55625 
L 368.099454 -37.55625 
L 369.869532 -37.55625 
L 371.63961 -37.55625 
L 373.409687 -37.55625 
L 375.179765 -37.55625 
L 376.949843 -37.55625 
L 378.71992 -37.55625 
L 380.489998 -37.55625 
L 382.260076 -37.55625 
L 384.030153 -37.55625 
L 385.800231 -37.55625 
L 387.570309 -37.55625 
L 389.340386 -37.55625 
L 391.110464 -37.55625 
L 392.880542 -37.55625 
L 394.650619 -37.55625 
L 396.420697 -37.55625 
L 398.190775 -37.55625 
L 399.960852 -37.55625 
L 399.960852 -49.701474 
L 399.960852 -49.701474 
L 398.190775 -52.110874 
L 396.420697 -54.201148 
L 394.650619 -55.880591 
L 392.880542 -57.144613 
L 391.110464 -58.05207 
L 389.340386 -58.690672 
L 387.570309 -59.146892 
L 385.800231 -59.48857 
L 384.030153 -59.760802 
L 382.260076 -59.990742 
L 380.489998 -60.195313 
L 378.71992 -60.38729 
L 376.949843 -60.578231 
L 375.179765 -60.779266 
L 373.409687 -61.001145 
L 371.63961 -61.253884 
L 369.869532 -61.545536 
L 368.099454 -61.879853 
L 366.329377 -62.2536 
L 364.559299 -62.654985 
L 362.789221 -63.064709 
L 361.019144 -63.460247 
L 359.249066 -63.822238 
L 357.478988 -64.140213 
L 355.708911 -64.414883 
L 353.938833 -64.656225 
L 352.168755 -64.879199 
L 350.398678 -65.099728 
L 348.6286 -65.332102 
L 346.858522 -65.587016 
L 345.088445 -65.869369 
L 343.318367 -66.176415 
L 341.548289 -66.497941 
L 339.778212 -66.819391 
L 338.008134 -67.126933 
L 336.238056 -67.412168 
L 334.467979 -67.674422 
L 332.697901 -67.919876 
L 330.927823 -68.158193 
L 329.157746 -68.398408 
L 327.387668 -68.646122 
L 325.617591 -68.903283 
L 323.847513 -69.170245 
L 322.077435 -69.448386 
L 320.307358 -69.741454 
L 318.53728 -70.054916 
L 316.767202 -70.393973 
L 314.997125 -70.761556 
L 313.227047 -71.157325 
L 311.456969 -71.577993 
L 309.686892 -72.018469 
L 307.916814 -72.472836 
L 306.146736 -72.934281 
L 304.376659 -73.394096 
L 302.606581 -73.840926 
L 300.836503 -74.261744 
L 299.066426 -74.645029 
L 297.296348 -74.985071 
L 295.52627 -75.285349 
L 293.756193 -75.559113 
L 291.986115 -75.826445 
L 290.216037 -76.10846 
L 288.44596 -76.420583 
L 286.675882 -76.767537 
L 284.905804 -77.142273 
L 283.135727 -77.529632 
L 281.365649 -77.913366 
L 279.595571 -78.283536 
L 277.825494 -78.641004 
L 276.055416 -78.997013 
L 274.285338 -79.368103 
L 272.515261 -79.768827 
L 270.745183 -80.205768 
L 268.975105 -80.67563 
L 267.205028 -81.167873 
L 265.43495 -81.669895 
L 263.664872 -82.171638 
L 261.894795 -82.667502 
L 260.124717 -83.155456 
L 258.354639 -83.634884 
L 256.584562 -84.104752 
L 254.814484 -84.56281 
L 253.044406 -85.005494 
L 251.274329 -85.427845 
L 249.504251 -85.822943 
L 247.734173 -86.180901 
L 245.964096 -86.488083 
L 244.194018 -86.727608 
L 242.42394 -86.88183 
L 240.653863 -86.936404 
L 238.883785 -86.884664 
L 237.113707 -86.731042 
L 235.34363 -86.493015 
L 233.573552 -86.20122 
L 231.803474 -85.896848 
L 230.033397 -85.625342 
L 228.263319 -85.426936 
L 226.493241 -85.327046 
L 224.723164 -85.330697 
L 222.953086 -85.423706 
L 221.183009 -85.58012 
L 219.412931 -85.772536 
L 217.642853 -85.980702 
L 215.872776 -86.194834 
L 214.102698 -86.412764 
L 212.33262 -86.633453 
L 210.562543 -86.851551 
L 208.792465 -87.056761 
L 207.022387 -87.238179 
L 205.25231 -87.390047 
L 203.482232 -87.514651 
L 201.712154 -87.620627 
L 199.942077 -87.718374 
L 198.171999 -87.815701 
L 196.401921 -87.915776 
L 194.631844 -88.017516 
L 192.861766 -88.117572 
L 191.091688 -88.213144 
L 189.321611 -88.305103 
L 187.551533 -88.400571 
L 185.781455 -88.513594 
L 184.011378 -88.662691 
L 182.2413 -88.86535 
L 180.471222 -89.131427 
L 178.701145 -89.458664 
L 176.931067 -89.833077 
L 175.160989 -90.234621 
L 173.390912 -90.645489 
L 171.620834 -91.056774 
L 169.850756 -91.470128 
L 168.080679 -91.894075 
L 166.310601 -92.337642 
L 164.540523 -92.804939 
L 162.770446 -93.292988 
L 161.000368 -93.792852 
L 159.23029 -94.29272 
L 157.460213 -94.781542 
L 155.690135 -95.252403 
L 153.920057 -95.705153 
L 152.14998 -96.147665 
L 150.379902 -96.594952 
L 148.609824 -97.065648 
L 146.839747 -97.576281 
L 145.069669 -98.135095 
L 143.299591 -98.738156 
L 141.529514 -99.370044 
L 139.759436 -100.009252 
L 137.989358 -100.635714 
L 136.219281 -101.236615 
L 134.449203 -101.807889 
L 132.679125 -102.351755 
L 130.909048 -102.87313 
L 129.13897 -103.377938 
L 127.368892 -103.874198 
L 125.598815 -104.373955 
L 123.828737 -104.892785 
L 122.058659 -105.445161 
L 120.288582 -106.037398 
L 118.518504 -106.662745 
L 116.748427 -107.302808 
L 114.978349 -107.93584 
L 113.208271 -108.547965 
L 111.438194 -109.141618 
L 109.668116 -109.737224 
L 107.898038 -110.367906 
L 106.127961 -111.069912 
L 104.357883 -111.872391 
L 102.587805 -112.789569 
L 100.817728 -113.817356 
L 99.04765 -114.934979 
L 97.277572 -116.110608 
L 95.507495 -117.308348 
L 93.737417 -118.49356 
L 91.967339 -119.634334 
L 90.197262 -120.698332 
L 88.427184 -121.645249 
L 86.657106 -122.416096 
L 84.887029 -122.922477 
L 83.116951 -123.041964 
L 81.346873 -122.627094 
L 79.576796 -121.531972 
L 77.806718 -119.651567 
L 76.03664 -116.95912 
L 74.266563 -113.524101 
L 72.496485 -109.500822 
L 70.726407 -105.092203 
L 68.95633 -100.504941 
L 67.186252 -95.913585 
L 65.416174 -91.442151 
L 63.646097 -87.16044 
L 61.876019 -83.086605 
L 60.105941 -79.190335 
L 58.335864 -75.398323 
L 56.565786 -71.608702 
L 54.795708 -67.719499 
L 53.025631 -63.668256 
L 51.255553 -59.470095 
L 49.485475 -55.236137 
L 47.715398 -51.158452 
z
" style="stroke: #1f77b4"/>
    </defs>
    <g clip-path="url(#p7e8b768b23)">
     <use xlink:href="#m6fa396e4c6" x="0" y="279.674687" style="fill: #1f77b4; fill-opacity: 0.4; stroke: #1f77b4"/>
    </g>
   </g>
   <g id="FillBetweenPolyCollection_4">
    <defs>
     <path id="m192c44382c" d="M 47.716202 -55.42124 
L 47.716202 -37.55625 
L 49.486276 -37.55625 
L 51.25635 -37.55625 
L 53.026423 -37.55625 
L 54.796497 -37.55625 
L 56.56657 -37.55625 
L 58.336644 -37.55625 
L 60.106718 -37.55625 
L 61.876791 -37.55625 
L 63.646865 -37.55625 
L 65.416938 -37.55625 
L 67.187012 -37.55625 
L 68.957086 -37.55625 
L 70.727159 -37.55625 
L 72.497233 -37.55625 
L 74.267307 -37.55625 
L 76.03738 -37.55625 
L 77.807454 -37.55625 
L 79.577527 -37.55625 
L 81.347601 -37.55625 
L 83.117675 -37.55625 
L 84.887748 -37.55625 
L 86.657822 -37.55625 
L 88.427896 -37.55625 
L 90.197969 -37.55625 
L 91.968043 -37.55625 
L 93.738116 -37.55625 
L 95.50819 -37.55625 
L 97.278264 -37.55625 
L 99.048337 -37.55625 
L 100.818411 -37.55625 
L 102.588484 -37.55625 
L 104.358558 -37.55625 
L 106.128632 -37.55625 
L 107.898705 -37.55625 
L 109.668779 -37.55625 
L 111.438853 -37.55625 
L 113.208926 -37.55625 
L 114.979 -37.55625 
L 116.749073 -37.55625 
L 118.519147 -37.55625 
L 120.289221 -37.55625 
L 122.059294 -37.55625 
L 123.829368 -37.55625 
L 125.599441 -37.55625 
L 127.369515 -37.55625 
L 129.139589 -37.55625 
L 130.909662 -37.55625 
L 132.679736 -37.55625 
L 134.44981 -37.55625 
L 136.219883 -37.55625 
L 137.989957 -37.55625 
L 139.76003 -37.55625 
L 141.530104 -37.55625 
L 143.300178 -37.55625 
L 145.070251 -37.55625 
L 146.840325 -37.55625 
L 148.610399 -37.55625 
L 150.380472 -37.55625 
L 152.150546 -37.55625 
L 153.920619 -37.55625 
L 155.690693 -37.55625 
L 157.460767 -37.55625 
L 159.23084 -37.55625 
L 161.000914 -37.55625 
L 162.770987 -37.55625 
L 164.541061 -37.55625 
L 166.311135 -37.55625 
L 168.081208 -37.55625 
L 169.851282 -37.55625 
L 171.621356 -37.55625 
L 173.391429 -37.55625 
L 175.161503 -37.55625 
L 176.931576 -37.55625 
L 178.70165 -37.55625 
L 180.471724 -37.55625 
L 182.241797 -37.55625 
L 184.011871 -37.55625 
L 185.781945 -37.55625 
L 187.552018 -37.55625 
L 189.322092 -37.55625 
L 191.092165 -37.55625 
L 192.862239 -37.55625 
L 194.632313 -37.55625 
L 196.402386 -37.55625 
L 198.17246 -37.55625 
L 199.942533 -37.55625 
L 201.712607 -37.55625 
L 203.482681 -37.55625 
L 205.252754 -37.55625 
L 207.022828 -37.55625 
L 208.792902 -37.55625 
L 210.562975 -37.55625 
L 212.333049 -37.55625 
L 214.103122 -37.55625 
L 215.873196 -37.55625 
L 217.64327 -37.55625 
L 219.413343 -37.55625 
L 221.183417 -37.55625 
L 222.95349 -37.55625 
L 224.723564 -37.55625 
L 226.493638 -37.55625 
L 228.263711 -37.55625 
L 230.033785 -37.55625 
L 231.803859 -37.55625 
L 233.573932 -37.55625 
L 235.344006 -37.55625 
L 237.114079 -37.55625 
L 238.884153 -37.55625 
L 240.654227 -37.55625 
L 242.4243 -37.55625 
L 244.194374 -37.55625 
L 245.964448 -37.55625 
L 247.734521 -37.55625 
L 249.504595 -37.55625 
L 251.274668 -37.55625 
L 253.044742 -37.55625 
L 254.814816 -37.55625 
L 256.584889 -37.55625 
L 258.354963 -37.55625 
L 260.125036 -37.55625 
L 261.89511 -37.55625 
L 263.665184 -37.55625 
L 265.435257 -37.55625 
L 267.205331 -37.55625 
L 268.975405 -37.55625 
L 270.745478 -37.55625 
L 272.515552 -37.55625 
L 274.285625 -37.55625 
L 276.055699 -37.55625 
L 277.825773 -37.55625 
L 279.595846 -37.55625 
L 281.36592 -37.55625 
L 283.135993 -37.55625 
L 284.906067 -37.55625 
L 286.676141 -37.55625 
L 288.446214 -37.55625 
L 290.216288 -37.55625 
L 291.986362 -37.55625 
L 293.756435 -37.55625 
L 295.526509 -37.55625 
L 297.296582 -37.55625 
L 299.066656 -37.55625 
L 300.83673 -37.55625 
L 302.606803 -37.55625 
L 304.376877 -37.55625 
L 306.146951 -37.55625 
L 307.917024 -37.55625 
L 309.687098 -37.55625 
L 311.457171 -37.55625 
L 313.227245 -37.55625 
L 314.997319 -37.55625 
L 316.767392 -37.55625 
L 318.537466 -37.55625 
L 320.307539 -37.55625 
L 322.077613 -37.55625 
L 323.847687 -37.55625 
L 325.61776 -37.55625 
L 327.387834 -37.55625 
L 329.157908 -37.55625 
L 330.927981 -37.55625 
L 332.698055 -37.55625 
L 334.468128 -37.55625 
L 336.238202 -37.55625 
L 338.008276 -37.55625 
L 339.778349 -37.55625 
L 341.548423 -37.55625 
L 343.318496 -37.55625 
L 345.08857 -37.55625 
L 346.858644 -37.55625 
L 348.628717 -37.55625 
L 350.398791 -37.55625 
L 352.168865 -37.55625 
L 353.938938 -37.55625 
L 355.709012 -37.55625 
L 357.479085 -37.55625 
L 359.249159 -37.55625 
L 361.019233 -37.55625 
L 362.789306 -37.55625 
L 364.55938 -37.55625 
L 366.329454 -37.55625 
L 368.099527 -37.55625 
L 369.869601 -37.55625 
L 371.639674 -37.55625 
L 373.409748 -37.55625 
L 375.179822 -37.55625 
L 376.949895 -37.55625 
L 378.719969 -37.55625 
L 380.490042 -37.55625 
L 382.260116 -37.55625 
L 384.03019 -37.55625 
L 385.800263 -37.55625 
L 387.570337 -37.55625 
L 389.340411 -37.55625 
L 391.110484 -37.55625 
L 392.880558 -37.55625 
L 394.650631 -37.55625 
L 396.420705 -37.55625 
L 398.190779 -37.55625 
L 399.960852 -37.55625 
L 399.960852 -70.09666 
L 399.960852 -70.09666 
L 398.190779 -73.166079 
L 396.420705 -76.079287 
L 394.650631 -78.784741 
L 392.880558 -81.242135 
L 391.110484 -83.423925 
L 389.340411 -85.315702 
L 387.570337 -86.915472 
L 385.800263 -88.232018 
L 384.03019 -89.282623 
L 382.260116 -90.090475 
L 380.490042 -90.682061 
L 378.719969 -91.08486 
L 376.949895 -91.32551 
L 375.179822 -91.428591 
L 373.409748 -91.41602 
L 371.639674 -91.307021 
L 369.869601 -91.118513 
L 368.099527 -90.865762 
L 366.329454 -90.563117 
L 364.55938 -90.224651 
L 362.789306 -89.864585 
L 361.019233 -89.497412 
L 359.249159 -89.137677 
L 357.479085 -88.799466 
L 355.709012 -88.495659 
L 353.938938 -88.23708 
L 352.168865 -88.031657 
L 350.398791 -87.883748 
L 348.628717 -87.793731 
L 346.858644 -87.757951 
L 345.08857 -87.769057 
L 343.318496 -87.816707 
L 341.548423 -87.888578 
L 339.778349 -87.971565 
L 338.008276 -88.053027 
L 336.238202 -88.121941 
L 334.468128 -88.169818 
L 332.698055 -88.191286 
L 330.927981 -88.184286 
L 329.157908 -88.149873 
L 327.387834 -88.091683 
L 325.61776 -88.015151 
L 323.847687 -87.926614 
L 322.077613 -87.832415 
L 320.307539 -87.738126 
L 318.537466 -87.647993 
L 316.767392 -87.564636 
L 314.997319 -87.48902 
L 313.227245 -87.420672 
L 311.457171 -87.358081 
L 309.687098 -87.299199 
L 307.917024 -87.241985 
L 306.146951 -87.184889 
L 304.376877 -87.127245 
L 302.606803 -87.06953 
L 300.83673 -87.013463 
L 299.066656 -86.961978 
L 297.296582 -86.919069 
L 295.526509 -86.889549 
L 293.756435 -86.878759 
L 291.986362 -86.892261 
L 290.216288 -86.935531 
L 288.446214 -87.013689 
L 286.676141 -87.131259 
L 284.906067 -87.291963 
L 283.135993 -87.498559 
L 281.36592 -87.75269 
L 279.595846 -88.054761 
L 277.825773 -88.403817 
L 276.055699 -88.797424 
L 274.285625 -89.231567 
L 272.515552 -89.700548 
L 270.745478 -90.196916 
L 268.975405 -90.711442 
L 267.205331 -91.233156 
L 265.435257 -91.74947 
L 263.665184 -92.246409 
L 261.89511 -92.708968 
L 260.125036 -93.121575 
L 258.354963 -93.468686 
L 256.584889 -93.735444 
L 254.814816 -93.908388 
L 253.044742 -93.976148 
L 251.274668 -93.930057 
L 249.504595 -93.764636 
L 247.734521 -93.477899 
L 245.964448 -93.071443 
L 244.194374 -92.550326 
L 242.4243 -91.922744 
L 240.654227 -91.19955 
L 238.884153 -90.393672 
L 237.114079 -89.519486 
L 235.344006 -88.592206 
L 233.573932 -87.627341 
L 231.803859 -86.640245 
L 230.033785 -85.645778 
L 228.263711 -84.65806 
L 226.493638 -83.690306 
L 224.723564 -82.754707 
L 222.95349 -81.862327 
L 221.183417 -81.022993 
L 219.413343 -80.245164 
L 217.64327 -79.53577 
L 215.873196 -78.900049 
L 214.103122 -78.341382 
L 212.333049 -77.861167 
L 210.562975 -77.458755 
L 208.792902 -77.131473 
L 207.022828 -76.874741 
L 205.252754 -76.682301 
L 203.482681 -76.546537 
L 201.712607 -76.458873 
L 199.942533 -76.410224 
L 198.17246 -76.391455 
L 196.402386 -76.393829 
L 194.632313 -76.40939 
L 192.862239 -76.431276 
L 191.092165 -76.453931 
L 189.322092 -76.473214 
L 187.552018 -76.486414 
L 185.781945 -76.49218 
L 184.011871 -76.490392 
L 182.241797 -76.481995 
L 180.471724 -76.46881 
L 178.70165 -76.453361 
L 176.931576 -76.438684 
L 175.161503 -76.42817 
L 173.391429 -76.425383 
L 171.621356 -76.433889 
L 169.851282 -76.457051 
L 168.081208 -76.497818 
L 166.311135 -76.558486 
L 164.541061 -76.64047 
L 162.770987 -76.744103 
L 161.000914 -76.868492 
L 159.23084 -77.011465 
L 157.460767 -77.169632 
L 155.690693 -77.338574 
L 153.920619 -77.513162 
L 152.150546 -77.687973 
L 150.380472 -77.857782 
L 148.610399 -78.01806 
L 146.840325 -78.165442 
L 145.070251 -78.298088 
L 143.300178 -78.415911 
L 141.530104 -78.520628 
L 139.76003 -78.615626 
L 137.989957 -78.705665 
L 136.219883 -78.796454 
L 134.44981 -78.894137 
L 132.679736 -79.004778 
L 130.909662 -79.133882 
L 129.139589 -79.286022 
L 127.369515 -79.464616 
L 125.599441 -79.671858 
L 123.829368 -79.908812 
L 122.059294 -80.17564 
L 120.289221 -80.471912 
L 118.519147 -80.796947 
L 116.749073 -81.150116 
L 114.979 -81.531058 
L 113.208926 -81.93974 
L 111.438853 -82.376362 
L 109.668779 -82.841071 
L 107.898705 -83.333521 
L 106.128632 -83.85231 
L 104.358558 -84.394363 
L 102.588484 -84.954327 
L 100.818411 -85.524063 
L 99.048337 -86.092314 
L 97.278264 -86.644613 
L 95.50819 -87.163472 
L 93.738116 -87.628888 
L 91.968043 -88.019134 
L 90.197969 -88.31181 
L 88.427896 -88.485057 
L 86.657822 -88.518852 
L 84.887748 -88.396242 
L 83.117675 -88.104397 
L 81.347601 -87.635367 
L 79.577527 -86.986439 
L 77.807454 -86.160044 
L 76.03738 -85.163214 
L 74.267307 -84.006646 
L 72.497233 -82.703478 
L 70.727159 -81.26794 
L 68.957086 -79.714069 
L 67.187012 -78.054651 
L 65.416938 -76.300565 
L 63.646865 -74.460619 
L 61.876791 -72.541891 
L 60.106718 -70.550546 
L 58.336644 -68.492969 
L 56.56657 -66.377032 
L 54.796497 -64.213289 
L 53.026423 -62.015861 
L 51.25635 -59.802871 
L 49.486276 -57.596292 
L 47.716202 -55.42124 
z
" style="stroke: #ff7f0e"/>
    </defs>
    <g clip-path="url(#p7e8b768b23)">
     <use xlink:href="#m192c44382c" x="0" y="279.674687" style="fill: #ff7f0e; fill-opacity: 0.4; stroke: #ff7f0e"/>
    </g>
   </g>
   <g id="matplotlib.axis_3">
    <g id="xtick_7">
     <g id="line2d_10">
      <g>
       <use xlink:href="#ma9f2da1feb" x="47.715391" y="242.118437" style="stroke: #000000; stroke-width: 0.8"/>
      </g>
     </g>
     <g id="text_11">
      <!-- 0.0 -->
      <g transform="translate(39.763828 256.716875) scale(0.1 -0.1)">
       <use xlink:href="#DejaVuSans-30"/>
       <use xlink:href="#DejaVuSans-2e" transform="translate(63.623047 0)"/>
       <use xlink:href="#DejaVuSans-30" transform="translate(95.410156 0)"/>
      </g>
     </g>
    </g>
    <g id="xtick_8">
     <g id="line2d_11">
      <g>
       <use xlink:href="#ma9f2da1feb" x="118.164483" y="242.118437" style="stroke: #000000; stroke-width: 0.8"/>
      </g>
     </g>
     <g id="text_12">
      <!-- 0.2 -->
      <g transform="translate(110.212921 256.716875) scale(0.1 -0.1)">
       <use xlink:href="#DejaVuSans-30"/>
       <use xlink:href="#DejaVuSans-2e" transform="translate(63.623047 0)"/>
       <use xlink:href="#DejaVuSans-32" transform="translate(95.410156 0)"/>
      </g>
     </g>
    </g>
    <g id="xtick_9">
     <g id="line2d_12">
      <g>
       <use xlink:href="#ma9f2da1feb" x="188.613575" y="242.118437" style="stroke: #000000; stroke-width: 0.8"/>
      </g>
     </g>
     <g id="text_13">
      <!-- 0.4 -->
      <g transform="translate(180.662013 256.716875) scale(0.1 -0.1)">
       <use xlink:href="#DejaVuSans-30"/>
       <use xlink:href="#DejaVuSans-2e" transform="translate(63.623047 0)"/>
       <use xlink:href="#DejaVuSans-34" transform="translate(95.410156 0)"/>
      </g>
     </g>
    </g>
    <g id="xtick_10">
     <g id="line2d_13">
      <g>
       <use xlink:href="#ma9f2da1feb" x="259.062668" y="242.118437" style="stroke: #000000; stroke-width: 0.8"/>
      </g>
     </g>
     <g id="text_14">
      <!-- 0.6 -->
      <g transform="translate(251.111105 256.716875) scale(0.1 -0.1)">
       <use xlink:href="#DejaVuSans-30"/>
       <use xlink:href="#DejaVuSans-2e" transform="translate(63.623047 0)"/>
       <use xlink:href="#DejaVuSans-36" transform="translate(95.410156 0)"/>
      </g>
     </g>
    </g>
    <g id="xtick_11">
     <g id="line2d_14">
      <g>
       <use xlink:href="#ma9f2da1feb" x="329.51176" y="242.118437" style="stroke: #000000; stroke-width: 0.8"/>
      </g>
     </g>
     <g id="text_15">
      <!-- 0.8 -->
      <g transform="translate(321.560198 256.716875) scale(0.1 -0.1)">
       <use xlink:href="#DejaVuSans-30"/>
       <use xlink:href="#DejaVuSans-2e" transform="translate(63.623047 0)"/>
       <use xlink:href="#DejaVuSans-38" transform="translate(95.410156 0)"/>
      </g>
     </g>
    </g>
    <g id="xtick_12">
     <g id="line2d_15">
      <g>
       <use xlink:href="#ma9f2da1feb" x="399.960852" y="242.118437" style="stroke: #000000; stroke-width: 0.8"/>
      </g>
     </g>
     <g id="text_16">
      <!-- 1.0 -->
      <g transform="translate(392.00929 256.716875) scale(0.1 -0.1)">
       <use xlink:href="#DejaVuSans-31"/>
       <use xlink:href="#DejaVuSans-2e" transform="translate(63.623047 0)"/>
       <use xlink:href="#DejaVuSans-30" transform="translate(95.410156 0)"/>
      </g>
     </g>
    </g>
    <g id="text_17">
     <!-- Binary Score -->
     <g transform="translate(192.179531 270.395) scale(0.1 -0.1)">
      <defs>
       <path id="DejaVuSans-42" d="M 1259 2228 
L 1259 519 
L 2272 519 
Q 2781 519 3026 730 
Q 3272 941 3272 1375 
Q 3272 1813 3026 2020 
Q 2781 2228 2272 2228 
L 1259 2228 
z
M 1259 4147 
L 1259 2741 
L 2194 2741 
Q 2656 2741 2882 2914 
Q 3109 3088 3109 3444 
Q 3109 3797 2882 3972 
Q 2656 4147 2194 4147 
L 1259 4147 
z
M 628 4666 
L 2241 4666 
Q 2963 4666 3353 4366 
Q 3744 4066 3744 3513 
Q 3744 3084 3544 2831 
Q 3344 2578 2956 2516 
Q 3422 2416 3680 2098 
Q 3938 1781 3938 1306 
Q 3938 681 3513 340 
Q 3088 0 2303 0 
L 628 0 
L 628 4666 
z
" transform="scale(0.015625)"/>
       <path id="DejaVuSans-69" d="M 603 3500 
L 1178 3500 
L 1178 0 
L 603 0 
L 603 3500 
z
M 603 4863 
L 1178 4863 
L 1178 4134 
L 603 4134 
L 603 4863 
z
" transform="scale(0.015625)"/>
       <path id="DejaVuSans-79" d="M 2059 -325 
Q 1816 -950 1584 -1140 
Q 1353 -1331 966 -1331 
L 506 -1331 
L 506 -850 
L 844 -850 
Q 1081 -850 1212 -737 
Q 1344 -625 1503 -206 
L 1606 56 
L 191 3500 
L 800 3500 
L 1894 763 
L 2988 3500 
L 3597 3500 
L 2059 -325 
z
" transform="scale(0.015625)"/>
       <path id="DejaVuSans-20" transform="scale(0.015625)"/>
       <path id="DejaVuSans-53" d="M 3425 4513 
L 3425 3897 
Q 3066 4069 2747 4153 
Q 2428 4238 2131 4238 
Q 1616 4238 1336 4038 
Q 1056 3838 1056 3469 
Q 1056 3159 1242 3001 
Q 1428 2844 1947 2747 
L 2328 2669 
Q 3034 2534 3370 2195 
Q 3706 1856 3706 1288 
Q 3706 609 3251 259 
Q 2797 -91 1919 -91 
Q 1588 -91 1214 -16 
Q 841 59 441 206 
L 441 856 
Q 825 641 1194 531 
Q 1563 422 1919 422 
Q 2459 422 2753 634 
Q 3047 847 3047 1241 
Q 3047 1584 2836 1778 
Q 2625 1972 2144 2069 
L 1759 2144 
Q 1053 2284 737 2584 
Q 422 2884 422 3419 
Q 422 4038 858 4394 
Q 1294 4750 2059 4750 
Q 2388 4750 2728 4690 
Q 3069 4631 3425 4513 
z
" transform="scale(0.015625)"/>
       <path id="DejaVuSans-63" d="M 3122 3366 
L 3122 2828 
Q 2878 2963 2633 3030 
Q 2388 3097 2138 3097 
Q 1578 3097 1268 2742 
Q 959 2388 959 1747 
Q 959 1106 1268 751 
Q 1578 397 2138 397 
Q 2388 397 2633 464 
Q 2878 531 3122 666 
L 3122 134 
Q 2881 22 2623 -34 
Q 2366 -91 2075 -91 
Q 1284 -91 818 406 
Q 353 903 353 1747 
Q 353 2603 823 3093 
Q 1294 3584 2113 3584 
Q 2378 3584 2631 3529 
Q 2884 3475 3122 3366 
z
" transform="scale(0.015625)"/>
      </defs>
      <use xlink:href="#DejaVuSans-42"/>
      <use xlink:href="#DejaVuSans-69" transform="translate(68.603516 0)"/>
      <use xlink:href="#DejaVuSans-6e" transform="translate(96.386719 0)"/>
      <use xlink:href="#DejaVuSans-61" transform="translate(159.765625 0)"/>
      <use xlink:href="#DejaVuSans-72" transform="translate(221.044922 0)"/>
      <use xlink:href="#DejaVuSans-79" transform="translate(262.158203 0)"/>
      <use xlink:href="#DejaVuSans-20" transform="translate(321.337891 0)"/>
      <use xlink:href="#DejaVuSans-53" transform="translate(353.125 0)"/>
      <use xlink:href="#DejaVuSans-63" transform="translate(416.601562 0)"/>
      <use xlink:href="#DejaVuSans-6f" transform="translate(471.582031 0)"/>
      <use xlink:href="#DejaVuSans-72" transform="translate(532.763672 0)"/>
      <use xlink:href="#DejaVuSans-65" transform="translate(571.626953 0)"/>
     </g>
    </g>
   </g>
   <g id="matplotlib.axis_4">
    <g id="ytick_4">
     <g id="line2d_16">
      <g>
       <use xlink:href="#mfae4f141fa" x="30.103125" y="242.118437" style="stroke: #000000; stroke-width: 0.8"/>
      </g>
     </g>
     <g id="text_18">
      <!-- 0.0 -->
      <g transform="translate(7.2 245.917656) scale(0.1 -0.1)">
       <use xlink:href="#DejaVuSans-30"/>
       <use xlink:href="#DejaVuSans-2e" transform="translate(63.623047 0)"/>
       <use xlink:href="#DejaVuSans-30" transform="translate(95.410156 0)"/>
      </g>
     </g>
    </g>
    <g id="ytick_5">
     <g id="line2d_17">
      <g>
       <use xlink:href="#mfae4f141fa" x="30.103125" y="218.384765" style="stroke: #000000; stroke-width: 0.8"/>
      </g>
     </g>
     <g id="text_19">
      <!-- 0.5 -->
      <g transform="translate(7.2 222.183983) scale(0.1 -0.1)">
       <defs>
        <path id="DejaVuSans-35" d="M 691 4666 
L 3169 4666 
L 3169 4134 
L 1269 4134 
L 1269 2991 
Q 1406 3038 1543 3061 
Q 1681 3084 1819 3084 
Q 2600 3084 3056 2656 
Q 3513 2228 3513 1497 
Q 3513 744 3044 326 
Q 2575 -91 1722 -91 
Q 1428 -91 1123 -41 
Q 819 9 494 109 
L 494 744 
Q 775 591 1075 516 
Q 1375 441 1709 441 
Q 2250 441 2565 725 
Q 2881 1009 2881 1497 
Q 2881 1984 2565 2268 
Q 2250 2553 1709 2553 
Q 1456 2553 1204 2497 
Q 953 2441 691 2322 
L 691 4666 
z
" transform="scale(0.015625)"/>
       </defs>
       <use xlink:href="#DejaVuSans-30"/>
       <use xlink:href="#DejaVuSans-2e" transform="translate(63.623047 0)"/>
       <use xlink:href="#DejaVuSans-35" transform="translate(95.410156 0)"/>
      </g>
     </g>
    </g>
    <g id="ytick_6">
     <g id="line2d_18">
      <g>
       <use xlink:href="#mfae4f141fa" x="30.103125" y="194.651092" style="stroke: #000000; stroke-width: 0.8"/>
      </g>
     </g>
     <g id="text_20">
      <!-- 1.0 -->
      <g transform="translate(7.2 198.450311) scale(0.1 -0.1)">
       <use xlink:href="#DejaVuSans-31"/>
       <use xlink:href="#DejaVuSans-2e" transform="translate(63.623047 0)"/>
       <use xlink:href="#DejaVuSans-30" transform="translate(95.410156 0)"/>
      </g>
     </g>
    </g>
    <g id="ytick_7">
     <g id="line2d_19">
      <g>
       <use xlink:href="#mfae4f141fa" x="30.103125" y="170.917419" style="stroke: #000000; stroke-width: 0.8"/>
      </g>
     </g>
     <g id="text_21">
      <!-- 1.5 -->
      <g transform="translate(7.2 174.716638) scale(0.1 -0.1)">
       <use xlink:href="#DejaVuSans-31"/>
       <use xlink:href="#DejaVuSans-2e" transform="translate(63.623047 0)"/>
       <use xlink:href="#DejaVuSans-35" transform="translate(95.410156 0)"/>
      </g>
     </g>
    </g>
   </g>
   <g id="patch_6">
    <path d="M 30.103125 242.118437 
L 30.103125 152.358437 
" style="fill: none; stroke: #000000; stroke-width: 0.8; stroke-linejoin: miter; stroke-linecap: square"/>
   </g>
   <g id="patch_7">
    <path d="M 30.103125 242.118437 
L 417.573125 242.118437 
" style="fill: none; stroke: #000000; stroke-width: 0.8; stroke-linejoin: miter; stroke-linecap: square"/>
   </g>
   <g id="text_22">
    <!-- Neural -->
    <g transform="translate(207.343594 146.358437) scale(0.1 -0.1)">
     <use xlink:href="#DejaVuSans-4e"/>
     <use xlink:href="#DejaVuSans-65" transform="translate(74.804688 0)"/>
     <use xlink:href="#DejaVuSans-75" transform="translate(136.328125 0)"/>
     <use xlink:href="#DejaVuSans-72" transform="translate(199.707031 0)"/>
     <use xlink:href="#DejaVuSans-61" transform="translate(240.820312 0)"/>
     <use xlink:href="#DejaVuSans-6c" transform="translate(302.099609 0)"/>
    </g>
   </g>
  </g>
 </g>
 <defs>
  <clipPath id="p7895e74334">
   <rect x="30.103125" y="20.798437" width="387.47" height="89.76"/>
  </clipPath>
  <clipPath id="p7e8b768b23">
   <rect x="30.103125" y="152.358437" width="387.47" height="89.76"/>
  </clipPath>
 </defs>
</svg>
