<?xml version="1.0" encoding="utf-8" standalone="no"?>
<!DOCTYPE svg PUBLIC "-//W3C//DTD SVG 1.1//EN"
  "http://www.w3.org/Graphics/SVG/1.1/DTD/svg11.dtd">
<svg xmlns:xlink="http://www.w3.org/1999/xlink" width="460.8pt" height="213.6pt" viewBox="0 0 460.8 213.6" xmlns="http://www.w3.org/2000/svg" version="1.1">
 <metadata>
  <rdf:RDF xmlns:dc="http://purl.org/dc/elements/1.1/" xmlns:cc="http://creativecommons.org/ns#" xmlns:rdf="http://www.w3.org/1999/02/22-rdf-syntax-ns#">
   <cc:Work>
    <dc:type rdf:resource="http://purl.org/dc/dcmitype/StillImage"/>
    <dc:date>2026-07-06T14:59:57.632101</dc:date>
    <dc:format>image/svg+xml</dc:format>
    <dc:creator>
     <cc:Agent>
      <dc:title>Matplotlib v3.10.9, https://matplotlib.org/</dc:title>
     </cc:Agent>
    </dc:creator>
   </cc:Work>
  </rdf:RDF>
 </metadata>
 <defs>
  <style type="text/css">*{stroke-linejoin: round; stroke-linecap: butt}</style>
 </defs>
 <g id="figure_1">
  <g id="patch_1">
   <path d="M 0 213.6 
L 460.8 213.6 
L 460.8 0 
L 0 0 
z
" style="fill: #ffffff"/>
  </g>
  <g id="axes_1">
   <g id="patch_2">
    <path d="M 57.6 190.104 
L 414.72 190.104 
L 414.72 25.632 
L 57.6 25.632 
z
" style="fill: #ffffff"/>
   </g>
   <g id="matplotlib.axis_1">
    <g id="xtick_1">
     <g id="text_1">
      <!-- cerebellar inhibitory GABAergic interneuron -->
      <g transform="translate(76.131287 378.759173) rotate(-90) scale(0.0833 -0.0833)">
       <defs>
        <path id="DejaVuSans-63" d="M 3122 3366 
L 3122 2828 
Q 2878 2963 2633 3030 
Q 2388 3097 2138 3097 
Q 1578 3097 1268 2742 
Q 959 2388 959 1747 
Q 959 1106 1268 751 
Q 1578 397 2138 397 
Q 2388 397 2633 464 
Q 2878 531 3122 666 
L 3122 134 
Q 2881 22 2623 -34 
Q 2366 -91 2075 -91 
Q 1284 -91 818 406 
Q 353 903 353 1747 
Q 353 2603 823 3093 
Q 1294 3584 2113 3584 
Q 2378 3584 2631 3529 
Q 2884 3475 3122 3366 
z
" transform="scale(0.015625)"/>
        <path id="DejaVuSans-65" d="M 3597 1894 
L 3597 1613 
L 953 1613 
Q 991 1019 1311 708 
Q 1631 397 2203 397 
Q 2534 397 2845 478 
Q 3156 559 3463 722 
L 3463 178 
Q 3153 47 2828 -22 
Q 2503 -91 2169 -91 
Q 1331 -91 842 396 
Q 353 884 353 1716 
Q 353 2575 817 3079 
Q 1281 3584 2069 3584 
Q 2775 3584 3186 3129 
Q 3597 2675 3597 1894 
z
M 3022 2063 
Q 3016 2534 2758 2815 
Q 2500 3097 2075 3097 
Q 1594 3097 1305 2825 
Q 1016 2553 972 2059 
L 3022 2063 
z
" transform="scale(0.015625)"/>
        <path id="DejaVuSans-72" d="M 2631 2963 
Q 2534 3019 2420 3045 
Q 2306 3072 2169 3072 
Q 1681 3072 1420 2755 
Q 1159 2438 1159 1844 
L 1159 0 
L 581 0 
L 581 3500 
L 1159 3500 
L 1159 2956 
Q 1341 3275 1631 3429 
Q 1922 3584 2338 3584 
Q 2397 3584 2469 3576 
Q 2541 3569 2628 3553 
L 2631 2963 
z
" transform="scale(0.015625)"/>
        <path id="DejaVuSans-62" d="M 3116 1747 
Q 3116 2381 2855 2742 
Q 2594 3103 2138 3103 
Q 1681 3103 1420 2742 
Q 1159 2381 1159 1747 
Q 1159 1113 1420 752 
Q 1681 391 2138 391 
Q 2594 391 2855 752 
Q 3116 1113 3116 1747 
z
M 1159 2969 
Q 1341 3281 1617 3432 
Q 1894 3584 2278 3584 
Q 2916 3584 3314 3078 
Q 3713 2572 3713 1747 
Q 3713 922 3314 415 
Q 2916 -91 2278 -91 
Q 1894 -91 1617 61 
Q 1341 213 1159 525 
L 1159 0 
L 581 0 
L 581 4863 
L 1159 4863 
L 1159 2969 
z
" transform="scale(0.015625)"/>
        <path id="DejaVuSans-6c" d="M 603 4863 
L 1178 4863 
L 1178 0 
L 603 0 
L 603 4863 
z
" transform="scale(0.015625)"/>
        <path id="DejaVuSans-61" d="M 2194 1759 
Q 1497 1759 1228 1600 
Q 959 1441 959 1056 
Q 959 750 1161 570 
Q 1363 391 1709 391 
Q 2188 391 2477 730 
Q 2766 1069 2766 1631 
L 2766 1759 
L 2194 1759 
z
M 3341 1997 
L 3341 0 
L 2766 0 
L 2766 531 
Q 2569 213 2275 61 
Q 1981 -91 1556 -91 
Q 1019 -91 701 211 
Q 384 513 384 1019 
Q 384 1609 779 1909 
Q 1175 2209 1959 2209 
L 2766 2209 
L 2766 2266 
Q 2766 2663 2505 2880 
Q 2244 3097 1772 3097 
Q 1472 3097 1187 3025 
Q 903 2953 641 2809 
L 641 3341 
Q 956 3463 1253 3523 
Q 1550 3584 1831 3584 
Q 2591 3584 2966 3190 
Q 3341 2797 3341 1997 
z
" transform="scale(0.015625)"/>
        <path id="DejaVuSans-20" transform="scale(0.015625)"/>
        <path id="DejaVuSans-69" d="M 603 3500 
L 1178 3500 
L 1178 0 
L 603 0 
L 603 3500 
z
M 603 4863 
L 1178 4863 
L 1178 4134 
L 603 4134 
L 603 4863 
z
" transform="scale(0.015625)"/>
        <path id="DejaVuSans-6e" d="M 3513 2113 
L 3513 0 
L 2938 0 
L 2938 2094 
Q 2938 2591 2744 2837 
Q 2550 3084 2163 3084 
Q 1697 3084 1428 2787 
Q 1159 2491 1159 1978 
L 1159 0 
L 581 0 
L 581 3500 
L 1159 3500 
L 1159 2956 
Q 1366 3272 1645 3428 
Q 1925 3584 2291 3584 
Q 2894 3584 3203 3211 
Q 3513 2838 3513 2113 
z
" transform="scale(0.015625)"/>
        <path id="DejaVuSans-68" d="M 3513 2113 
L 3513 0 
L 2938 0 
L 2938 2094 
Q 2938 2591 2744 2837 
Q 2550 3084 2163 3084 
Q 1697 3084 1428 2787 
Q 1159 2491 1159 1978 
L 1159 0 
L 581 0 
L 581 4863 
L 1159 4863 
L 1159 2956 
Q 1366 3272 1645 3428 
Q 1925 3584 2291 3584 
Q 2894 3584 3203 3211 
Q 3513 2838 3513 2113 
z
" transform="scale(0.015625)"/>
        <path id="DejaVuSans-74" d="M 1172 4494 
L 1172 3500 
L 2356 3500 
L 2356 3053 
L 1172 3053 
L 1172 1153 
Q 1172 725 1289 603 
Q 1406 481 1766 481 
L 2356 481 
L 2356 0 
L 1766 0 
Q 1100 0 847 248 
Q 594 497 594 1153 
L 594 3053 
L 172 3053 
L 172 3500 
L 594 3500 
L 594 4494 
L 1172 4494 
z
" transform="scale(0.015625)"/>
        <path id="DejaVuSans-6f" d="M 1959 3097 
Q 1497 3097 1228 2736 
Q 959 2375 959 1747 
Q 959 1119 1226 758 
Q 1494 397 1959 397 
Q 2419 397 2687 759 
Q 2956 1122 2956 1747 
Q 2956 2369 2687 2733 
Q 2419 3097 1959 3097 
z
M 1959 3584 
Q 2709 3584 3137 3096 
Q 3566 2609 3566 1747 
Q 3566 888 3137 398 
Q 2709 -91 1959 -91 
Q 1206 -91 779 398 
Q 353 888 353 1747 
Q 353 2609 779 3096 
Q 1206 3584 1959 3584 
z
" transform="scale(0.015625)"/>
        <path id="DejaVuSans-79" d="M 2059 -325 
Q 1816 -950 1584 -1140 
Q 1353 -1331 966 -1331 
L 506 -1331 
L 506 -850 
L 844 -850 
Q 1081 -850 1212 -737 
Q 1344 -625 1503 -206 
L 1606 56 
L 191 3500 
L 800 3500 
L 1894 763 
L 2988 3500 
L 3597 3500 
L 2059 -325 
z
" transform="scale(0.015625)"/>
        <path id="DejaVuSans-47" d="M 3809 666 
L 3809 1919 
L 2778 1919 
L 2778 2438 
L 4434 2438 
L 4434 434 
Q 4069 175 3628 42 
Q 3188 -91 2688 -91 
Q 1594 -91 976 548 
Q 359 1188 359 2328 
Q 359 3472 976 4111 
Q 1594 4750 2688 4750 
Q 3144 4750 3555 4637 
Q 3966 4525 4313 4306 
L 4313 3634 
Q 3963 3931 3569 4081 
Q 3175 4231 2741 4231 
Q 1884 4231 1454 3753 
Q 1025 3275 1025 2328 
Q 1025 1384 1454 906 
Q 1884 428 2741 428 
Q 3075 428 3337 486 
Q 3600 544 3809 666 
z
" transform="scale(0.015625)"/>
        <path id="DejaVuSans-41" d="M 2188 4044 
L 1331 1722 
L 3047 1722 
L 2188 4044 
z
M 1831 4666 
L 2547 4666 
L 4325 0 
L 3669 0 
L 3244 1197 
L 1141 1197 
L 716 0 
L 50 0 
L 1831 4666 
z
" transform="scale(0.015625)"/>
        <path id="DejaVuSans-42" d="M 1259 2228 
L 1259 519 
L 2272 519 
Q 2781 519 3026 730 
Q 3272 941 3272 1375 
Q 3272 1813 3026 2020 
Q 2781 2228 2272 2228 
L 1259 2228 
z
M 1259 4147 
L 1259 2741 
L 2194 2741 
Q 2656 2741 2882 2914 
Q 3109 3088 3109 3444 
Q 3109 3797 2882 3972 
Q 2656 4147 2194 4147 
L 1259 4147 
z
M 628 4666 
L 2241 4666 
Q 2963 4666 3353 4366 
Q 3744 4066 3744 3513 
Q 3744 3084 3544 2831 
Q 3344 2578 2956 2516 
Q 3422 2416 3680 2098 
Q 3938 1781 3938 1306 
Q 3938 681 3513 340 
Q 3088 0 2303 0 
L 628 0 
L 628 4666 
z
" transform="scale(0.015625)"/>
        <path id="DejaVuSans-67" d="M 2906 1791 
Q 2906 2416 2648 2759 
Q 2391 3103 1925 3103 
Q 1463 3103 1205 2759 
Q 947 2416 947 1791 
Q 947 1169 1205 825 
Q 1463 481 1925 481 
Q 2391 481 2648 825 
Q 2906 1169 2906 1791 
z
M 3481 434 
Q 3481 -459 3084 -895 
Q 2688 -1331 1869 -1331 
Q 1566 -1331 1297 -1286 
Q 1028 -1241 775 -1147 
L 775 -588 
Q 1028 -725 1275 -790 
Q 1522 -856 1778 -856 
Q 2344 -856 2625 -561 
Q 2906 -266 2906 331 
L 2906 616 
Q 2728 306 2450 153 
Q 2172 0 1784 0 
Q 1141 0 747 490 
Q 353 981 353 1791 
Q 353 2603 747 3093 
Q 1141 3584 1784 3584 
Q 2172 3584 2450 3431 
Q 2728 3278 2906 2969 
L 2906 3500 
L 3481 3500 
L 3481 434 
z
" transform="scale(0.015625)"/>
        <path id="DejaVuSans-75" d="M 544 1381 
L 544 3500 
L 1119 3500 
L 1119 1403 
Q 1119 906 1312 657 
Q 1506 409 1894 409 
Q 2359 409 2629 706 
Q 2900 1003 2900 1516 
L 2900 3500 
L 3475 3500 
L 3475 0 
L 2900 0 
L 2900 538 
Q 2691 219 2414 64 
Q 2138 -91 1772 -91 
Q 1169 -91 856 284 
Q 544 659 544 1381 
z
M 1991 3584 
L 1991 3584 
z
" transform="scale(0.015625)"/>
       </defs>
       <use xlink:href="#DejaVuSans-63"/>
       <use xlink:href="#DejaVuSans-65" transform="translate(54.980469 0)"/>
       <use xlink:href="#DejaVuSans-72" transform="translate(116.503906 0)"/>
       <use xlink:href="#DejaVuSans-65" transform="translate(155.367188 0)"/>
       <use xlink:href="#DejaVuSans-62" transform="translate(216.890625 0)"/>
       <use xlink:href="#DejaVuSans-65" transform="translate(280.367188 0)"/>
       <use xlink:href="#DejaVuSans-6c" transform="translate(341.890625 0)"/>
       <use xlink:href="#DejaVuSans-6c" transform="translate(369.673828 0)"/>
       <use xlink:href="#DejaVuSans-61" transform="translate(397.457031 0)"/>
       <use xlink:href="#DejaVuSans-72" transform="translate(458.736328 0)"/>
       <use xlink:href="#DejaVuSans-20" transform="translate(499.849609 0)"/>
       <use xlink:href="#DejaVuSans-69" transform="translate(531.636719 0)"/>
       <use xlink:href="#DejaVuSans-6e" transform="translate(559.419922 0)"/>
       <use xlink:href="#DejaVuSans-68" transform="translate(622.798828 0)"/>
       <use xlink:href="#DejaVuSans-69" transform="translate(686.177734 0)"/>
       <use xlink:href="#DejaVuSans-62" transform="translate(713.960938 0)"/>
       <use xlink:href="#DejaVuSans-69" transform="translate(777.4375 0)"/>
       <use xlink:href="#DejaVuSans-74" transform="translate(805.220703 0)"/>
       <use xlink:href="#DejaVuSans-6f" transform="translate(844.429688 0)"/>
       <use xlink:href="#DejaVuSans-72" transform="translate(905.611328 0)"/>
       <use xlink:href="#DejaVuSans-79" transform="translate(946.724609 0)"/>
       <use xlink:href="#DejaVuSans-20" transform="translate(1005.904297 0)"/>
       <use xlink:href="#DejaVuSans-47" transform="translate(1037.691406 0)"/>
       <use xlink:href="#DejaVuSans-41" transform="translate(1115.181641 0)"/>
       <use xlink:href="#DejaVuSans-42" transform="translate(1183.589844 0)"/>
       <use xlink:href="#DejaVuSans-41" transform="translate(1252.193359 0)"/>
       <use xlink:href="#DejaVuSans-65" transform="translate(1318.851562 0)"/>
       <use xlink:href="#DejaVuSans-72" transform="translate(1380.375 0)"/>
       <use xlink:href="#DejaVuSans-67" transform="translate(1419.738281 0)"/>
       <use xlink:href="#DejaVuSans-69" transform="translate(1483.214844 0)"/>
       <use xlink:href="#DejaVuSans-63" transform="translate(1510.998047 0)"/>
       <use xlink:href="#DejaVuSans-20" transform="translate(1565.978516 0)"/>
       <use xlink:href="#DejaVuSans-69" transform="translate(1597.765625 0)"/>
       <use xlink:href="#DejaVuSans-6e" transform="translate(1625.548828 0)"/>
       <use xlink:href="#DejaVuSans-74" transform="translate(1688.927734 0)"/>
       <use xlink:href="#DejaVuSans-65" transform="translate(1728.136719 0)"/>
       <use xlink:href="#DejaVuSans-72" transform="translate(1789.660156 0)"/>
       <use xlink:href="#DejaVuSans-6e" transform="translate(1829.023438 0)"/>
       <use xlink:href="#DejaVuSans-65" transform="translate(1892.402344 0)"/>
       <use xlink:href="#DejaVuSans-75" transform="translate(1953.925781 0)"/>
       <use xlink:href="#DejaVuSans-72" transform="translate(2017.304688 0)"/>
       <use xlink:href="#DejaVuSans-6f" transform="translate(2056.167969 0)"/>
       <use xlink:href="#DejaVuSans-6e" transform="translate(2117.349609 0)"/>
      </g>
     </g>
    </g>
    <g id="xtick_2">
     <g id="text_2">
      <!-- intratelencephalic-projecting glutamatergic cortical neuron -->
      <g transform="translate(91.591027 443.225564) rotate(-90) scale(0.0833 -0.0833)">
       <defs>
        <path id="DejaVuSans-70" d="M 1159 525 
L 1159 -1331 
L 581 -1331 
L 581 3500 
L 1159 3500 
L 1159 2969 
Q 1341 3281 1617 3432 
Q 1894 3584 2278 3584 
Q 2916 3584 3314 3078 
Q 3713 2572 3713 1747 
Q 3713 922 3314 415 
Q 2916 -91 2278 -91 
Q 1894 -91 1617 61 
Q 1341 213 1159 525 
z
M 3116 1747 
Q 3116 2381 2855 2742 
Q 2594 3103 2138 3103 
Q 1681 3103 1420 2742 
Q 1159 2381 1159 1747 
Q 1159 1113 1420 752 
Q 1681 391 2138 391 
Q 2594 391 2855 752 
Q 3116 1113 3116 1747 
z
" transform="scale(0.015625)"/>
        <path id="DejaVuSans-2d" d="M 313 2009 
L 1997 2009 
L 1997 1497 
L 313 1497 
L 313 2009 
z
" transform="scale(0.015625)"/>
        <path id="DejaVuSans-6a" d="M 603 3500 
L 1178 3500 
L 1178 -63 
Q 1178 -731 923 -1031 
Q 669 -1331 103 -1331 
L -116 -1331 
L -116 -844 
L 38 -844 
Q 366 -844 484 -692 
Q 603 -541 603 -63 
L 603 3500 
z
M 603 4863 
L 1178 4863 
L 1178 4134 
L 603 4134 
L 603 4863 
z
" transform="scale(0.015625)"/>
        <path id="DejaVuSans-6d" d="M 3328 2828 
Q 3544 3216 3844 3400 
Q 4144 3584 4550 3584 
Q 5097 3584 5394 3201 
Q 5691 2819 5691 2113 
L 5691 0 
L 5113 0 
L 5113 2094 
Q 5113 2597 4934 2840 
Q 4756 3084 4391 3084 
Q 3944 3084 3684 2787 
Q 3425 2491 3425 1978 
L 3425 0 
L 2847 0 
L 2847 2094 
Q 2847 2600 2669 2842 
Q 2491 3084 2119 3084 
Q 1678 3084 1418 2786 
Q 1159 2488 1159 1978 
L 1159 0 
L 581 0 
L 581 3500 
L 1159 3500 
L 1159 2956 
Q 1356 3278 1631 3431 
Q 1906 3584 2284 3584 
Q 2666 3584 2933 3390 
Q 3200 3197 3328 2828 
z
" transform="scale(0.015625)"/>
       </defs>
       <use xlink:href="#DejaVuSans-69"/>
       <use xlink:href="#DejaVuSans-6e" transform="translate(27.783203 0)"/>
       <use xlink:href="#DejaVuSans-74" transform="translate(91.162109 0)"/>
       <use xlink:href="#DejaVuSans-72" transform="translate(130.371094 0)"/>
       <use xlink:href="#DejaVuSans-61" transform="translate(171.484375 0)"/>
       <use xlink:href="#DejaVuSans-74" transform="translate(232.763672 0)"/>
       <use xlink:href="#DejaVuSans-65" transform="translate(271.972656 0)"/>
       <use xlink:href="#DejaVuSans-6c" transform="translate(333.496094 0)"/>
       <use xlink:href="#DejaVuSans-65" transform="translate(361.279297 0)"/>
       <use xlink:href="#DejaVuSans-6e" transform="translate(422.802734 0)"/>
       <use xlink:href="#DejaVuSans-63" transform="translate(486.181641 0)"/>
       <use xlink:href="#DejaVuSans-65" transform="translate(541.162109 0)"/>
       <use xlink:href="#DejaVuSans-70" transform="translate(602.685547 0)"/>
       <use xlink:href="#DejaVuSans-68" transform="translate(666.162109 0)"/>
       <use xlink:href="#DejaVuSans-61" transform="translate(729.541016 0)"/>
       <use xlink:href="#DejaVuSans-6c" transform="translate(790.820312 0)"/>
       <use xlink:href="#DejaVuSans-69" transform="translate(818.603516 0)"/>
       <use xlink:href="#DejaVuSans-63" transform="translate(846.386719 0)"/>
       <use xlink:href="#DejaVuSans-2d" transform="translate(901.367188 0)"/>
       <use xlink:href="#DejaVuSans-70" transform="translate(937.451172 0)"/>
       <use xlink:href="#DejaVuSans-72" transform="translate(1000.927734 0)"/>
       <use xlink:href="#DejaVuSans-6f" transform="translate(1039.791016 0)"/>
       <use xlink:href="#DejaVuSans-6a" transform="translate(1100.972656 0)"/>
       <use xlink:href="#DejaVuSans-65" transform="translate(1128.755859 0)"/>
       <use xlink:href="#DejaVuSans-63" transform="translate(1190.279297 0)"/>
       <use xlink:href="#DejaVuSans-74" transform="translate(1245.259766 0)"/>
       <use xlink:href="#DejaVuSans-69" transform="translate(1284.46875 0)"/>
       <use xlink:href="#DejaVuSans-6e" transform="translate(1312.251953 0)"/>
       <use xlink:href="#DejaVuSans-67" transform="translate(1375.630859 0)"/>
       <use xlink:href="#DejaVuSans-20" transform="translate(1439.107422 0)"/>
       <use xlink:href="#DejaVuSans-67" transform="translate(1470.894531 0)"/>
       <use xlink:href="#DejaVuSans-6c" transform="translate(1534.371094 0)"/>
       <use xlink:href="#DejaVuSans-75" transform="translate(1562.154297 0)"/>
       <use xlink:href="#DejaVuSans-74" transform="translate(1625.533203 0)"/>
       <use xlink:href="#DejaVuSans-61" transform="translate(1664.742188 0)"/>
       <use xlink:href="#DejaVuSans-6d" transform="translate(1726.021484 0)"/>
       <use xlink:href="#DejaVuSans-61" transform="translate(1823.433594 0)"/>
       <use xlink:href="#DejaVuSans-74" transform="translate(1884.712891 0)"/>
       <use xlink:href="#DejaVuSans-65" transform="translate(1923.921875 0)"/>
       <use xlink:href="#DejaVuSans-72" transform="translate(1985.445312 0)"/>
       <use xlink:href="#DejaVuSans-67" transform="translate(2024.808594 0)"/>
       <use xlink:href="#DejaVuSans-69" transform="translate(2088.285156 0)"/>
       <use xlink:href="#DejaVuSans-63" transform="translate(2116.068359 0)"/>
       <use xlink:href="#DejaVuSans-20" transform="translate(2171.048828 0)"/>
       <use xlink:href="#DejaVuSans-63" transform="translate(2202.835938 0)"/>
       <use xlink:href="#DejaVuSans-6f" transform="translate(2257.816406 0)"/>
       <use xlink:href="#DejaVuSans-72" transform="translate(2318.998047 0)"/>
       <use xlink:href="#DejaVuSans-74" transform="translate(2360.111328 0)"/>
       <use xlink:href="#DejaVuSans-69" transform="translate(2399.320312 0)"/>
       <use xlink:href="#DejaVuSans-63" transform="translate(2427.103516 0)"/>
       <use xlink:href="#DejaVuSans-61" transform="translate(2482.083984 0)"/>
       <use xlink:href="#DejaVuSans-6c" transform="translate(2543.363281 0)"/>
       <use xlink:href="#DejaVuSans-20" transform="translate(2571.146484 0)"/>
       <use xlink:href="#DejaVuSans-6e" transform="translate(2602.933594 0)"/>
       <use xlink:href="#DejaVuSans-65" transform="translate(2666.3125 0)"/>
       <use xlink:href="#DejaVuSans-75" transform="translate(2727.835938 0)"/>
       <use xlink:href="#DejaVuSans-72" transform="translate(2791.214844 0)"/>
       <use xlink:href="#DejaVuSans-6f" transform="translate(2830.078125 0)"/>
       <use xlink:href="#DejaVuSans-6e" transform="translate(2891.259766 0)"/>
      </g>
     </g>
    </g>
    <g id="xtick_3">
     <g id="text_3">
      <!-- neuron -->
      <g transform="translate(107.050767 226.40087) rotate(-90) scale(0.0833 -0.0833)">
       <use xlink:href="#DejaVuSans-6e"/>
       <use xlink:href="#DejaVuSans-65" transform="translate(63.378906 0)"/>
       <use xlink:href="#DejaVuSans-75" transform="translate(124.902344 0)"/>
       <use xlink:href="#DejaVuSans-72" transform="translate(188.28125 0)"/>
       <use xlink:href="#DejaVuSans-6f" transform="translate(227.144531 0)"/>
       <use xlink:href="#DejaVuSans-6e" transform="translate(288.326172 0)"/>
      </g>
     </g>
    </g>
    <g id="xtick_4">
     <g id="text_4">
      <!-- midbrain-derived inhibitory neuron -->
      <g transform="translate(122.510507 342.830842) rotate(-90) scale(0.0833 -0.0833)">
       <defs>
        <path id="DejaVuSans-64" d="M 2906 2969 
L 2906 4863 
L 3481 4863 
L 3481 0 
L 2906 0 
L 2906 525 
Q 2725 213 2448 61 
Q 2172 -91 1784 -91 
Q 1150 -91 751 415 
Q 353 922 353 1747 
Q 353 2572 751 3078 
Q 1150 3584 1784 3584 
Q 2172 3584 2448 3432 
Q 2725 3281 2906 2969 
z
M 947 1747 
Q 947 1113 1208 752 
Q 1469 391 1925 391 
Q 2381 391 2643 752 
Q 2906 1113 2906 1747 
Q 2906 2381 2643 2742 
Q 2381 3103 1925 3103 
Q 1469 3103 1208 2742 
Q 947 2381 947 1747 
z
" transform="scale(0.015625)"/>
        <path id="DejaVuSans-76" d="M 191 3500 
L 800 3500 
L 1894 563 
L 2988 3500 
L 3597 3500 
L 2284 0 
L 1503 0 
L 191 3500 
z
" transform="scale(0.015625)"/>
       </defs>
       <use xlink:href="#DejaVuSans-6d"/>
       <use xlink:href="#DejaVuSans-69" transform="translate(97.412109 0)"/>
       <use xlink:href="#DejaVuSans-64" transform="translate(125.195312 0)"/>
       <use xlink:href="#DejaVuSans-62" transform="translate(188.671875 0)"/>
       <use xlink:href="#DejaVuSans-72" transform="translate(252.148438 0)"/>
       <use xlink:href="#DejaVuSans-61" transform="translate(293.261719 0)"/>
       <use xlink:href="#DejaVuSans-69" transform="translate(354.541016 0)"/>
       <use xlink:href="#DejaVuSans-6e" transform="translate(382.324219 0)"/>
       <use xlink:href="#DejaVuSans-2d" transform="translate(445.703125 0)"/>
       <use xlink:href="#DejaVuSans-64" transform="translate(481.787109 0)"/>
       <use xlink:href="#DejaVuSans-65" transform="translate(545.263672 0)"/>
       <use xlink:href="#DejaVuSans-72" transform="translate(606.787109 0)"/>
       <use xlink:href="#DejaVuSans-69" transform="translate(647.900391 0)"/>
       <use xlink:href="#DejaVuSans-76" transform="translate(675.683594 0)"/>
       <use xlink:href="#DejaVuSans-65" transform="translate(734.863281 0)"/>
       <use xlink:href="#DejaVuSans-64" transform="translate(796.386719 0)"/>
       <use xlink:href="#DejaVuSans-20" transform="translate(859.863281 0)"/>
       <use xlink:href="#DejaVuSans-69" transform="translate(891.650391 0)"/>
       <use xlink:href="#DejaVuSans-6e" transform="translate(919.433594 0)"/>
       <use xlink:href="#DejaVuSans-68" transform="translate(982.8125 0)"/>
       <use xlink:href="#DejaVuSans-69" transform="translate(1046.191406 0)"/>
       <use xlink:href="#DejaVuSans-62" transform="translate(1073.974609 0)"/>
       <use xlink:href="#DejaVuSans-69" transform="translate(1137.451172 0)"/>
       <use xlink:href="#DejaVuSans-74" transform="translate(1165.234375 0)"/>
       <use xlink:href="#DejaVuSans-6f" transform="translate(1204.443359 0)"/>
       <use xlink:href="#DejaVuSans-72" transform="translate(1265.625 0)"/>
       <use xlink:href="#DejaVuSans-79" transform="translate(1306.738281 0)"/>
       <use xlink:href="#DejaVuSans-20" transform="translate(1365.917969 0)"/>
       <use xlink:href="#DejaVuSans-6e" transform="translate(1397.705078 0)"/>
       <use xlink:href="#DejaVuSans-65" transform="translate(1461.083984 0)"/>
       <use xlink:href="#DejaVuSans-75" transform="translate(1522.607422 0)"/>
       <use xlink:href="#DejaVuSans-72" transform="translate(1585.986328 0)"/>
       <use xlink:href="#DejaVuSans-6f" transform="translate(1624.849609 0)"/>
       <use xlink:href="#DejaVuSans-6e" transform="translate(1686.03125 0)"/>
      </g>
     </g>
    </g>
    <g id="xtick_5">
     <g id="text_5">
      <!-- oligodendrocyte -->
      <g transform="translate(137.970248 264.431225) rotate(-90) scale(0.0833 -0.0833)">
       <use xlink:href="#DejaVuSans-6f"/>
       <use xlink:href="#DejaVuSans-6c" transform="translate(61.181641 0)"/>
       <use xlink:href="#DejaVuSans-69" transform="translate(88.964844 0)"/>
       <use xlink:href="#DejaVuSans-67" transform="translate(116.748047 0)"/>
       <use xlink:href="#DejaVuSans-6f" transform="translate(180.224609 0)"/>
       <use xlink:href="#DejaVuSans-64" transform="translate(241.40625 0)"/>
       <use xlink:href="#DejaVuSans-65" transform="translate(304.882812 0)"/>
       <use xlink:href="#DejaVuSans-6e" transform="translate(366.40625 0)"/>
       <use xlink:href="#DejaVuSans-64" transform="translate(429.785156 0)"/>
       <use xlink:href="#DejaVuSans-72" transform="translate(493.261719 0)"/>
       <use xlink:href="#DejaVuSans-6f" transform="translate(532.125 0)"/>
       <use xlink:href="#DejaVuSans-63" transform="translate(593.306641 0)"/>
       <use xlink:href="#DejaVuSans-79" transform="translate(648.287109 0)"/>
       <use xlink:href="#DejaVuSans-74" transform="translate(707.466797 0)"/>
       <use xlink:href="#DejaVuSans-65" transform="translate(746.675781 0)"/>
      </g>
     </g>
    </g>
    <g id="xtick_6">
     <g id="text_6">
      <!-- choroid plexus epithelial cell -->
      <g transform="translate(153.429988 315.849452) rotate(-90) scale(0.0833 -0.0833)">
       <defs>
        <path id="DejaVuSans-78" d="M 3513 3500 
L 2247 1797 
L 3578 0 
L 2900 0 
L 1881 1375 
L 863 0 
L 184 0 
L 1544 1831 
L 300 3500 
L 978 3500 
L 1906 2253 
L 2834 3500 
L 3513 3500 
z
" transform="scale(0.015625)"/>
        <path id="DejaVuSans-73" d="M 2834 3397 
L 2834 2853 
Q 2591 2978 2328 3040 
Q 2066 3103 1784 3103 
Q 1356 3103 1142 2972 
Q 928 2841 928 2578 
Q 928 2378 1081 2264 
Q 1234 2150 1697 2047 
L 1894 2003 
Q 2506 1872 2764 1633 
Q 3022 1394 3022 966 
Q 3022 478 2636 193 
Q 2250 -91 1575 -91 
Q 1294 -91 989 -36 
Q 684 19 347 128 
L 347 722 
Q 666 556 975 473 
Q 1284 391 1588 391 
Q 1994 391 2212 530 
Q 2431 669 2431 922 
Q 2431 1156 2273 1281 
Q 2116 1406 1581 1522 
L 1381 1569 
Q 847 1681 609 1914 
Q 372 2147 372 2553 
Q 372 3047 722 3315 
Q 1072 3584 1716 3584 
Q 2034 3584 2315 3537 
Q 2597 3491 2834 3397 
z
" transform="scale(0.015625)"/>
       </defs>
       <use xlink:href="#DejaVuSans-63"/>
       <use xlink:href="#DejaVuSans-68" transform="translate(54.980469 0)"/>
       <use xlink:href="#DejaVuSans-6f" transform="translate(118.359375 0)"/>
       <use xlink:href="#DejaVuSans-72" transform="translate(179.541016 0)"/>
       <use xlink:href="#DejaVuSans-6f" transform="translate(218.404297 0)"/>
       <use xlink:href="#DejaVuSans-69" transform="translate(279.585938 0)"/>
       <use xlink:href="#DejaVuSans-64" transform="translate(307.369141 0)"/>
       <use xlink:href="#DejaVuSans-20" transform="translate(370.845703 0)"/>
       <use xlink:href="#DejaVuSans-70" transform="translate(402.632812 0)"/>
       <use xlink:href="#DejaVuSans-6c" transform="translate(466.109375 0)"/>
       <use xlink:href="#DejaVuSans-65" transform="translate(493.892578 0)"/>
       <use xlink:href="#DejaVuSans-78" transform="translate(553.666016 0)"/>
       <use xlink:href="#DejaVuSans-75" transform="translate(612.845703 0)"/>
       <use xlink:href="#DejaVuSans-73" transform="translate(676.224609 0)"/>
       <use xlink:href="#DejaVuSans-20" transform="translate(728.324219 0)"/>
       <use xlink:href="#DejaVuSans-65" transform="translate(760.111328 0)"/>
       <use xlink:href="#DejaVuSans-70" transform="translate(821.634766 0)"/>
       <use xlink:href="#DejaVuSans-69" transform="translate(885.111328 0)"/>
       <use xlink:href="#DejaVuSans-74" transform="translate(912.894531 0)"/>
       <use xlink:href="#DejaVuSans-68" transform="translate(952.103516 0)"/>
       <use xlink:href="#DejaVuSans-65" transform="translate(1015.482422 0)"/>
       <use xlink:href="#DejaVuSans-6c" transform="translate(1077.005859 0)"/>
       <use xlink:href="#DejaVuSans-69" transform="translate(1104.789062 0)"/>
       <use xlink:href="#DejaVuSans-61" transform="translate(1132.572266 0)"/>
       <use xlink:href="#DejaVuSans-6c" transform="translate(1193.851562 0)"/>
       <use xlink:href="#DejaVuSans-20" transform="translate(1221.634766 0)"/>
       <use xlink:href="#DejaVuSans-63" transform="translate(1253.421875 0)"/>
       <use xlink:href="#DejaVuSans-65" transform="translate(1308.402344 0)"/>
       <use xlink:href="#DejaVuSans-6c" transform="translate(1369.925781 0)"/>
       <use xlink:href="#DejaVuSans-6c" transform="translate(1397.708984 0)"/>
      </g>
     </g>
    </g>
    <g id="xtick_7">
     <g id="text_7">
      <!-- Bergmann glial cell -->
      <g transform="translate(168.889728 277.252917) rotate(-90) scale(0.0833 -0.0833)">
       <use xlink:href="#DejaVuSans-42"/>
       <use xlink:href="#DejaVuSans-65" transform="translate(68.603516 0)"/>
       <use xlink:href="#DejaVuSans-72" transform="translate(130.126953 0)"/>
       <use xlink:href="#DejaVuSans-67" transform="translate(169.490234 0)"/>
       <use xlink:href="#DejaVuSans-6d" transform="translate(232.966797 0)"/>
       <use xlink:href="#DejaVuSans-61" transform="translate(330.378906 0)"/>
       <use xlink:href="#DejaVuSans-6e" transform="translate(391.658203 0)"/>
       <use xlink:href="#DejaVuSans-6e" transform="translate(455.037109 0)"/>
       <use xlink:href="#DejaVuSans-20" transform="translate(518.416016 0)"/>
       <use xlink:href="#DejaVuSans-67" transform="translate(550.203125 0)"/>
       <use xlink:href="#DejaVuSans-6c" transform="translate(613.679688 0)"/>
       <use xlink:href="#DejaVuSans-69" transform="translate(641.462891 0)"/>
       <use xlink:href="#DejaVuSans-61" transform="translate(669.246094 0)"/>
       <use xlink:href="#DejaVuSans-6c" transform="translate(730.525391 0)"/>
       <use xlink:href="#DejaVuSans-20" transform="translate(758.308594 0)"/>
       <use xlink:href="#DejaVuSans-63" transform="translate(790.095703 0)"/>
       <use xlink:href="#DejaVuSans-65" transform="translate(845.076172 0)"/>
       <use xlink:href="#DejaVuSans-6c" transform="translate(906.599609 0)"/>
       <use xlink:href="#DejaVuSans-6c" transform="translate(934.382812 0)"/>
      </g>
     </g>
    </g>
    <g id="xtick_8">
     <g id="text_8">
      <!-- oligodendrocyte precursor cell -->
      <g transform="translate(184.349468 323.855363) rotate(-90) scale(0.0833 -0.0833)">
       <use xlink:href="#DejaVuSans-6f"/>
       <use xlink:href="#DejaVuSans-6c" transform="translate(61.181641 0)"/>
       <use xlink:href="#DejaVuSans-69" transform="translate(88.964844 0)"/>
       <use xlink:href="#DejaVuSans-67" transform="translate(116.748047 0)"/>
       <use xlink:href="#DejaVuSans-6f" transform="translate(180.224609 0)"/>
       <use xlink:href="#DejaVuSans-64" transform="translate(241.40625 0)"/>
       <use xlink:href="#DejaVuSans-65" transform="translate(304.882812 0)"/>
       <use xlink:href="#DejaVuSans-6e" transform="translate(366.40625 0)"/>
       <use xlink:href="#DejaVuSans-64" transform="translate(429.785156 0)"/>
       <use xlink:href="#DejaVuSans-72" transform="translate(493.261719 0)"/>
       <use xlink:href="#DejaVuSans-6f" transform="translate(532.125 0)"/>
       <use xlink:href="#DejaVuSans-63" transform="translate(593.306641 0)"/>
       <use xlink:href="#DejaVuSans-79" transform="translate(648.287109 0)"/>
       <use xlink:href="#DejaVuSans-74" transform="translate(707.466797 0)"/>
       <use xlink:href="#DejaVuSans-65" transform="translate(746.675781 0)"/>
       <use xlink:href="#DejaVuSans-20" transform="translate(808.199219 0)"/>
       <use xlink:href="#DejaVuSans-70" transform="translate(839.986328 0)"/>
       <use xlink:href="#DejaVuSans-72" transform="translate(903.462891 0)"/>
       <use xlink:href="#DejaVuSans-65" transform="translate(942.326172 0)"/>
       <use xlink:href="#DejaVuSans-63" transform="translate(1003.849609 0)"/>
       <use xlink:href="#DejaVuSans-75" transform="translate(1058.830078 0)"/>
       <use xlink:href="#DejaVuSans-72" transform="translate(1122.208984 0)"/>
       <use xlink:href="#DejaVuSans-73" transform="translate(1163.322266 0)"/>
       <use xlink:href="#DejaVuSans-6f" transform="translate(1215.421875 0)"/>
       <use xlink:href="#DejaVuSans-72" transform="translate(1276.603516 0)"/>
       <use xlink:href="#DejaVuSans-20" transform="translate(1317.716797 0)"/>
       <use xlink:href="#DejaVuSans-63" transform="translate(1349.503906 0)"/>
       <use xlink:href="#DejaVuSans-65" transform="translate(1404.484375 0)"/>
       <use xlink:href="#DejaVuSans-6c" transform="translate(1466.007812 0)"/>
       <use xlink:href="#DejaVuSans-6c" transform="translate(1493.791016 0)"/>
      </g>
     </g>
    </g>
    <g id="xtick_9">
     <g id="text_9">
      <!-- cerebellar granule cell -->
      <g transform="translate(199.809209 290.187845) rotate(-90) scale(0.0833 -0.0833)">
       <use xlink:href="#DejaVuSans-63"/>
       <use xlink:href="#DejaVuSans-65" transform="translate(54.980469 0)"/>
       <use xlink:href="#DejaVuSans-72" transform="translate(116.503906 0)"/>
       <use xlink:href="#DejaVuSans-65" transform="translate(155.367188 0)"/>
       <use xlink:href="#DejaVuSans-62" transform="translate(216.890625 0)"/>
       <use xlink:href="#DejaVuSans-65" transform="translate(280.367188 0)"/>
       <use xlink:href="#DejaVuSans-6c" transform="translate(341.890625 0)"/>
       <use xlink:href="#DejaVuSans-6c" transform="translate(369.673828 0)"/>
       <use xlink:href="#DejaVuSans-61" transform="translate(397.457031 0)"/>
       <use xlink:href="#DejaVuSans-72" transform="translate(458.736328 0)"/>
       <use xlink:href="#DejaVuSans-20" transform="translate(499.849609 0)"/>
       <use xlink:href="#DejaVuSans-67" transform="translate(531.636719 0)"/>
       <use xlink:href="#DejaVuSans-72" transform="translate(595.113281 0)"/>
       <use xlink:href="#DejaVuSans-61" transform="translate(636.226562 0)"/>
       <use xlink:href="#DejaVuSans-6e" transform="translate(697.505859 0)"/>
       <use xlink:href="#DejaVuSans-75" transform="translate(760.884766 0)"/>
       <use xlink:href="#DejaVuSans-6c" transform="translate(824.263672 0)"/>
       <use xlink:href="#DejaVuSans-65" transform="translate(852.046875 0)"/>
       <use xlink:href="#DejaVuSans-20" transform="translate(913.570312 0)"/>
       <use xlink:href="#DejaVuSans-63" transform="translate(945.357422 0)"/>
       <use xlink:href="#DejaVuSans-65" transform="translate(1000.337891 0)"/>
       <use xlink:href="#DejaVuSans-6c" transform="translate(1061.861328 0)"/>
       <use xlink:href="#DejaVuSans-6c" transform="translate(1089.644531 0)"/>
      </g>
     </g>
    </g>
    <g id="xtick_10">
     <g id="text_10">
      <!-- ependymal cell -->
      <g transform="translate(215.268949 260.655392) rotate(-90) scale(0.0833 -0.0833)">
       <use xlink:href="#DejaVuSans-65"/>
       <use xlink:href="#DejaVuSans-70" transform="translate(61.523438 0)"/>
       <use xlink:href="#DejaVuSans-65" transform="translate(125 0)"/>
       <use xlink:href="#DejaVuSans-6e" transform="translate(186.523438 0)"/>
       <use xlink:href="#DejaVuSans-64" transform="translate(249.902344 0)"/>
       <use xlink:href="#DejaVuSans-79" transform="translate(313.378906 0)"/>
       <use xlink:href="#DejaVuSans-6d" transform="translate(372.558594 0)"/>
       <use xlink:href="#DejaVuSans-61" transform="translate(469.970703 0)"/>
       <use xlink:href="#DejaVuSans-6c" transform="translate(531.25 0)"/>
       <use xlink:href="#DejaVuSans-20" transform="translate(559.033203 0)"/>
       <use xlink:href="#DejaVuSans-63" transform="translate(590.820312 0)"/>
       <use xlink:href="#DejaVuSans-65" transform="translate(645.800781 0)"/>
       <use xlink:href="#DejaVuSans-6c" transform="translate(707.324219 0)"/>
       <use xlink:href="#DejaVuSans-6c" transform="translate(735.107422 0)"/>
      </g>
     </g>
    </g>
    <g id="xtick_11">
     <g id="text_11">
      <!-- microglial cell -->
      <g transform="translate(230.728689 254.763219) rotate(-90) scale(0.0833 -0.0833)">
       <use xlink:href="#DejaVuSans-6d"/>
       <use xlink:href="#DejaVuSans-69" transform="translate(97.412109 0)"/>
       <use xlink:href="#DejaVuSans-63" transform="translate(125.195312 0)"/>
       <use xlink:href="#DejaVuSans-72" transform="translate(180.175781 0)"/>
       <use xlink:href="#DejaVuSans-6f" transform="translate(219.039062 0)"/>
       <use xlink:href="#DejaVuSans-67" transform="translate(280.220703 0)"/>
       <use xlink:href="#DejaVuSans-6c" transform="translate(343.697266 0)"/>
       <use xlink:href="#DejaVuSans-69" transform="translate(371.480469 0)"/>
       <use xlink:href="#DejaVuSans-61" transform="translate(399.263672 0)"/>
       <use xlink:href="#DejaVuSans-6c" transform="translate(460.542969 0)"/>
       <use xlink:href="#DejaVuSans-20" transform="translate(488.326172 0)"/>
       <use xlink:href="#DejaVuSans-63" transform="translate(520.113281 0)"/>
       <use xlink:href="#DejaVuSans-65" transform="translate(575.09375 0)"/>
       <use xlink:href="#DejaVuSans-6c" transform="translate(636.617188 0)"/>
       <use xlink:href="#DejaVuSans-6c" transform="translate(664.400391 0)"/>
      </g>
     </g>
    </g>
    <g id="xtick_12">
     <g id="text_12">
      <!-- endothelial cell -->
      <g transform="translate(246.18843 260.592917) rotate(-90) scale(0.0833 -0.0833)">
       <use xlink:href="#DejaVuSans-65"/>
       <use xlink:href="#DejaVuSans-6e" transform="translate(61.523438 0)"/>
       <use xlink:href="#DejaVuSans-64" transform="translate(124.902344 0)"/>
       <use xlink:href="#DejaVuSans-6f" transform="translate(188.378906 0)"/>
       <use xlink:href="#DejaVuSans-74" transform="translate(249.560547 0)"/>
       <use xlink:href="#DejaVuSans-68" transform="translate(288.769531 0)"/>
       <use xlink:href="#DejaVuSans-65" transform="translate(352.148438 0)"/>
       <use xlink:href="#DejaVuSans-6c" transform="translate(413.671875 0)"/>
       <use xlink:href="#DejaVuSans-69" transform="translate(441.455078 0)"/>
       <use xlink:href="#DejaVuSans-61" transform="translate(469.238281 0)"/>
       <use xlink:href="#DejaVuSans-6c" transform="translate(530.517578 0)"/>
       <use xlink:href="#DejaVuSans-20" transform="translate(558.300781 0)"/>
       <use xlink:href="#DejaVuSans-63" transform="translate(590.087891 0)"/>
       <use xlink:href="#DejaVuSans-65" transform="translate(645.068359 0)"/>
       <use xlink:href="#DejaVuSans-6c" transform="translate(706.591797 0)"/>
       <use xlink:href="#DejaVuSans-6c" transform="translate(734.375 0)"/>
      </g>
     </g>
    </g>
    <g id="xtick_13">
     <g id="text_13">
      <!-- monocyte -->
      <g transform="translate(261.64817 238.592606) rotate(-90) scale(0.0833 -0.0833)">
       <use xlink:href="#DejaVuSans-6d"/>
       <use xlink:href="#DejaVuSans-6f" transform="translate(97.412109 0)"/>
       <use xlink:href="#DejaVuSans-6e" transform="translate(158.59375 0)"/>
       <use xlink:href="#DejaVuSans-6f" transform="translate(221.972656 0)"/>
       <use xlink:href="#DejaVuSans-63" transform="translate(283.154297 0)"/>
       <use xlink:href="#DejaVuSans-79" transform="translate(338.134766 0)"/>
       <use xlink:href="#DejaVuSans-74" transform="translate(397.314453 0)"/>
       <use xlink:href="#DejaVuSans-65" transform="translate(436.523438 0)"/>
      </g>
     </g>
    </g>
    <g id="xtick_14">
     <g id="text_14">
      <!-- central nervous system macrophage -->
      <g transform="translate(277.10791 349.947786) rotate(-90) scale(0.0833 -0.0833)">
       <use xlink:href="#DejaVuSans-63"/>
       <use xlink:href="#DejaVuSans-65" transform="translate(54.980469 0)"/>
       <use xlink:href="#DejaVuSans-6e" transform="translate(116.503906 0)"/>
       <use xlink:href="#DejaVuSans-74" transform="translate(179.882812 0)"/>
       <use xlink:href="#DejaVuSans-72" transform="translate(219.091797 0)"/>
       <use xlink:href="#DejaVuSans-61" transform="translate(260.205078 0)"/>
       <use xlink:href="#DejaVuSans-6c" transform="translate(321.484375 0)"/>
       <use xlink:href="#DejaVuSans-20" transform="translate(349.267578 0)"/>
       <use xlink:href="#DejaVuSans-6e" transform="translate(381.054688 0)"/>
       <use xlink:href="#DejaVuSans-65" transform="translate(444.433594 0)"/>
       <use xlink:href="#DejaVuSans-72" transform="translate(505.957031 0)"/>
       <use xlink:href="#DejaVuSans-76" transform="translate(547.070312 0)"/>
       <use xlink:href="#DejaVuSans-6f" transform="translate(606.25 0)"/>
       <use xlink:href="#DejaVuSans-75" transform="translate(667.431641 0)"/>
       <use xlink:href="#DejaVuSans-73" transform="translate(730.810547 0)"/>
       <use xlink:href="#DejaVuSans-20" transform="translate(782.910156 0)"/>
       <use xlink:href="#DejaVuSans-73" transform="translate(814.697266 0)"/>
       <use xlink:href="#DejaVuSans-79" transform="translate(866.796875 0)"/>
       <use xlink:href="#DejaVuSans-73" transform="translate(925.976562 0)"/>
       <use xlink:href="#DejaVuSans-74" transform="translate(978.076172 0)"/>
       <use xlink:href="#DejaVuSans-65" transform="translate(1017.285156 0)"/>
       <use xlink:href="#DejaVuSans-6d" transform="translate(1078.808594 0)"/>
       <use xlink:href="#DejaVuSans-20" transform="translate(1176.220703 0)"/>
       <use xlink:href="#DejaVuSans-6d" transform="translate(1208.007812 0)"/>
       <use xlink:href="#DejaVuSans-61" transform="translate(1305.419922 0)"/>
       <use xlink:href="#DejaVuSans-63" transform="translate(1366.699219 0)"/>
       <use xlink:href="#DejaVuSans-72" transform="translate(1421.679688 0)"/>
       <use xlink:href="#DejaVuSans-6f" transform="translate(1460.542969 0)"/>
       <use xlink:href="#DejaVuSans-70" transform="translate(1521.724609 0)"/>
       <use xlink:href="#DejaVuSans-68" transform="translate(1585.201172 0)"/>
       <use xlink:href="#DejaVuSans-61" transform="translate(1648.580078 0)"/>
       <use xlink:href="#DejaVuSans-67" transform="translate(1709.859375 0)"/>
       <use xlink:href="#DejaVuSans-65" transform="translate(1773.335938 0)"/>
      </g>
     </g>
    </g>
    <g id="xtick_15">
     <g id="text_15">
      <!-- astrocyte -->
      <g transform="translate(292.56765 236.049353) rotate(-90) scale(0.0833 -0.0833)">
       <use xlink:href="#DejaVuSans-61"/>
       <use xlink:href="#DejaVuSans-73" transform="translate(61.279297 0)"/>
       <use xlink:href="#DejaVuSans-74" transform="translate(113.378906 0)"/>
       <use xlink:href="#DejaVuSans-72" transform="translate(152.587891 0)"/>
       <use xlink:href="#DejaVuSans-6f" transform="translate(191.451172 0)"/>
       <use xlink:href="#DejaVuSans-63" transform="translate(252.632812 0)"/>
       <use xlink:href="#DejaVuSans-79" transform="translate(307.613281 0)"/>
       <use xlink:href="#DejaVuSans-74" transform="translate(366.792969 0)"/>
       <use xlink:href="#DejaVuSans-65" transform="translate(406.001953 0)"/>
      </g>
     </g>
    </g>
    <g id="xtick_16">
     <g id="text_16">
      <!-- pericyte -->
      <g transform="translate(308.027391 231.158081) rotate(-90) scale(0.0833 -0.0833)">
       <use xlink:href="#DejaVuSans-70"/>
       <use xlink:href="#DejaVuSans-65" transform="translate(63.476562 0)"/>
       <use xlink:href="#DejaVuSans-72" transform="translate(125 0)"/>
       <use xlink:href="#DejaVuSans-69" transform="translate(166.113281 0)"/>
       <use xlink:href="#DejaVuSans-63" transform="translate(193.896484 0)"/>
       <use xlink:href="#DejaVuSans-79" transform="translate(248.876953 0)"/>
       <use xlink:href="#DejaVuSans-74" transform="translate(308.056641 0)"/>
       <use xlink:href="#DejaVuSans-65" transform="translate(347.265625 0)"/>
      </g>
     </g>
    </g>
    <g id="xtick_17">
     <g id="text_17">
      <!-- fibroblast -->
      <g transform="translate(323.487131 236.284936) rotate(-90) scale(0.0833 -0.0833)">
       <defs>
        <path id="DejaVuSans-66" d="M 2375 4863 
L 2375 4384 
L 1825 4384 
Q 1516 4384 1395 4259 
Q 1275 4134 1275 3809 
L 1275 3500 
L 2222 3500 
L 2222 3053 
L 1275 3053 
L 1275 0 
L 697 0 
L 697 3053 
L 147 3053 
L 147 3500 
L 697 3500 
L 697 3744 
Q 697 4328 969 4595 
Q 1241 4863 1831 4863 
L 2375 4863 
z
" transform="scale(0.015625)"/>
       </defs>
       <use xlink:href="#DejaVuSans-66"/>
       <use xlink:href="#DejaVuSans-69" transform="translate(35.205078 0)"/>
       <use xlink:href="#DejaVuSans-62" transform="translate(62.988281 0)"/>
       <use xlink:href="#DejaVuSans-72" transform="translate(126.464844 0)"/>
       <use xlink:href="#DejaVuSans-6f" transform="translate(165.328125 0)"/>
       <use xlink:href="#DejaVuSans-62" transform="translate(226.509766 0)"/>
       <use xlink:href="#DejaVuSans-6c" transform="translate(289.986328 0)"/>
       <use xlink:href="#DejaVuSans-61" transform="translate(317.769531 0)"/>
       <use xlink:href="#DejaVuSans-73" transform="translate(379.048828 0)"/>
       <use xlink:href="#DejaVuSans-74" transform="translate(431.148438 0)"/>
      </g>
     </g>
    </g>
    <g id="xtick_18">
     <g id="text_18">
      <!-- vascular associated smooth muscle cell -->
      <g transform="translate(338.946871 362.608084) rotate(-90) scale(0.0833 -0.0833)">
       <use xlink:href="#DejaVuSans-76"/>
       <use xlink:href="#DejaVuSans-61" transform="translate(59.179688 0)"/>
       <use xlink:href="#DejaVuSans-73" transform="translate(120.458984 0)"/>
       <use xlink:href="#DejaVuSans-63" transform="translate(172.558594 0)"/>
       <use xlink:href="#DejaVuSans-75" transform="translate(227.539062 0)"/>
       <use xlink:href="#DejaVuSans-6c" transform="translate(290.917969 0)"/>
       <use xlink:href="#DejaVuSans-61" transform="translate(318.701172 0)"/>
       <use xlink:href="#DejaVuSans-72" transform="translate(379.980469 0)"/>
       <use xlink:href="#DejaVuSans-20" transform="translate(421.09375 0)"/>
       <use xlink:href="#DejaVuSans-61" transform="translate(452.880859 0)"/>
       <use xlink:href="#DejaVuSans-73" transform="translate(514.160156 0)"/>
       <use xlink:href="#DejaVuSans-73" transform="translate(566.259766 0)"/>
       <use xlink:href="#DejaVuSans-6f" transform="translate(618.359375 0)"/>
       <use xlink:href="#DejaVuSans-63" transform="translate(679.541016 0)"/>
       <use xlink:href="#DejaVuSans-69" transform="translate(734.521484 0)"/>
       <use xlink:href="#DejaVuSans-61" transform="translate(762.304688 0)"/>
       <use xlink:href="#DejaVuSans-74" transform="translate(823.583984 0)"/>
       <use xlink:href="#DejaVuSans-65" transform="translate(862.792969 0)"/>
       <use xlink:href="#DejaVuSans-64" transform="translate(924.316406 0)"/>
       <use xlink:href="#DejaVuSans-20" transform="translate(987.792969 0)"/>
       <use xlink:href="#DejaVuSans-73" transform="translate(1019.580078 0)"/>
       <use xlink:href="#DejaVuSans-6d" transform="translate(1071.679688 0)"/>
       <use xlink:href="#DejaVuSans-6f" transform="translate(1169.091797 0)"/>
       <use xlink:href="#DejaVuSans-6f" transform="translate(1230.273438 0)"/>
       <use xlink:href="#DejaVuSans-74" transform="translate(1291.455078 0)"/>
       <use xlink:href="#DejaVuSans-68" transform="translate(1330.664062 0)"/>
       <use xlink:href="#DejaVuSans-20" transform="translate(1394.042969 0)"/>
       <use xlink:href="#DejaVuSans-6d" transform="translate(1425.830078 0)"/>
       <use xlink:href="#DejaVuSans-75" transform="translate(1523.242188 0)"/>
       <use xlink:href="#DejaVuSans-73" transform="translate(1586.621094 0)"/>
       <use xlink:href="#DejaVuSans-63" transform="translate(1638.720703 0)"/>
       <use xlink:href="#DejaVuSans-6c" transform="translate(1693.701172 0)"/>
       <use xlink:href="#DejaVuSans-65" transform="translate(1721.484375 0)"/>
       <use xlink:href="#DejaVuSans-20" transform="translate(1783.007812 0)"/>
       <use xlink:href="#DejaVuSans-63" transform="translate(1814.794922 0)"/>
       <use xlink:href="#DejaVuSans-65" transform="translate(1869.775391 0)"/>
       <use xlink:href="#DejaVuSans-6c" transform="translate(1931.298828 0)"/>
       <use xlink:href="#DejaVuSans-6c" transform="translate(1959.082031 0)"/>
      </g>
     </g>
    </g>
    <g id="xtick_19">
     <g id="text_19">
      <!-- T cell -->
      <g transform="translate(354.406611 219.173294) rotate(-90) scale(0.0833 -0.0833)">
       <defs>
        <path id="DejaVuSans-54" d="M -19 4666 
L 3928 4666 
L 3928 4134 
L 2272 4134 
L 2272 0 
L 1638 0 
L 1638 4134 
L -19 4134 
L -19 4666 
z
" transform="scale(0.015625)"/>
       </defs>
       <use xlink:href="#DejaVuSans-54"/>
       <use xlink:href="#DejaVuSans-20" transform="translate(61.083984 0)"/>
       <use xlink:href="#DejaVuSans-63" transform="translate(92.871094 0)"/>
       <use xlink:href="#DejaVuSans-65" transform="translate(147.851562 0)"/>
       <use xlink:href="#DejaVuSans-6c" transform="translate(209.375 0)"/>
       <use xlink:href="#DejaVuSans-6c" transform="translate(237.158203 0)"/>
      </g>
     </g>
    </g>
    <g id="xtick_20">
     <g id="text_20">
      <!-- natural killer cell -->
      <g transform="translate(369.866352 266.820894) rotate(-90) scale(0.0833 -0.0833)">
       <defs>
        <path id="DejaVuSans-6b" d="M 581 4863 
L 1159 4863 
L 1159 1991 
L 2875 3500 
L 3609 3500 
L 1753 1863 
L 3688 0 
L 2938 0 
L 1159 1709 
L 1159 0 
L 581 0 
L 581 4863 
z
" transform="scale(0.015625)"/>
       </defs>
       <use xlink:href="#DejaVuSans-6e"/>
       <use xlink:href="#DejaVuSans-61" transform="translate(63.378906 0)"/>
       <use xlink:href="#DejaVuSans-74" transform="translate(124.658203 0)"/>
       <use xlink:href="#DejaVuSans-75" transform="translate(163.867188 0)"/>
       <use xlink:href="#DejaVuSans-72" transform="translate(227.246094 0)"/>
       <use xlink:href="#DejaVuSans-61" transform="translate(268.359375 0)"/>
       <use xlink:href="#DejaVuSans-6c" transform="translate(329.638672 0)"/>
       <use xlink:href="#DejaVuSans-20" transform="translate(357.421875 0)"/>
       <use xlink:href="#DejaVuSans-6b" transform="translate(389.208984 0)"/>
       <use xlink:href="#DejaVuSans-69" transform="translate(447.119141 0)"/>
       <use xlink:href="#DejaVuSans-6c" transform="translate(474.902344 0)"/>
       <use xlink:href="#DejaVuSans-6c" transform="translate(502.685547 0)"/>
       <use xlink:href="#DejaVuSans-65" transform="translate(530.46875 0)"/>
       <use xlink:href="#DejaVuSans-72" transform="translate(591.992188 0)"/>
       <use xlink:href="#DejaVuSans-20" transform="translate(633.105469 0)"/>
       <use xlink:href="#DejaVuSans-63" transform="translate(664.892578 0)"/>
       <use xlink:href="#DejaVuSans-65" transform="translate(719.873047 0)"/>
       <use xlink:href="#DejaVuSans-6c" transform="translate(781.396484 0)"/>
       <use xlink:href="#DejaVuSans-6c" transform="translate(809.179688 0)"/>
      </g>
     </g>
    </g>
    <g id="xtick_21">
     <g id="text_21">
      <!-- committed oligodendrocyte precursor -->
      <g transform="translate(385.326092 354.685473) rotate(-90) scale(0.0833 -0.0833)">
       <use xlink:href="#DejaVuSans-63"/>
       <use xlink:href="#DejaVuSans-6f" transform="translate(54.980469 0)"/>
       <use xlink:href="#DejaVuSans-6d" transform="translate(116.162109 0)"/>
       <use xlink:href="#DejaVuSans-6d" transform="translate(213.574219 0)"/>
       <use xlink:href="#DejaVuSans-69" transform="translate(310.986328 0)"/>
       <use xlink:href="#DejaVuSans-74" transform="translate(338.769531 0)"/>
       <use xlink:href="#DejaVuSans-74" transform="translate(377.978516 0)"/>
       <use xlink:href="#DejaVuSans-65" transform="translate(417.1875 0)"/>
       <use xlink:href="#DejaVuSans-64" transform="translate(478.710938 0)"/>
       <use xlink:href="#DejaVuSans-20" transform="translate(542.1875 0)"/>
       <use xlink:href="#DejaVuSans-6f" transform="translate(573.974609 0)"/>
       <use xlink:href="#DejaVuSans-6c" transform="translate(635.15625 0)"/>
       <use xlink:href="#DejaVuSans-69" transform="translate(662.939453 0)"/>
       <use xlink:href="#DejaVuSans-67" transform="translate(690.722656 0)"/>
       <use xlink:href="#DejaVuSans-6f" transform="translate(754.199219 0)"/>
       <use xlink:href="#DejaVuSans-64" transform="translate(815.380859 0)"/>
       <use xlink:href="#DejaVuSans-65" transform="translate(878.857422 0)"/>
       <use xlink:href="#DejaVuSans-6e" transform="translate(940.380859 0)"/>
       <use xlink:href="#DejaVuSans-64" transform="translate(1003.759766 0)"/>
       <use xlink:href="#DejaVuSans-72" transform="translate(1067.236328 0)"/>
       <use xlink:href="#DejaVuSans-6f" transform="translate(1106.099609 0)"/>
       <use xlink:href="#DejaVuSans-63" transform="translate(1167.28125 0)"/>
       <use xlink:href="#DejaVuSans-79" transform="translate(1222.261719 0)"/>
       <use xlink:href="#DejaVuSans-74" transform="translate(1281.441406 0)"/>
       <use xlink:href="#DejaVuSans-65" transform="translate(1320.650391 0)"/>
       <use xlink:href="#DejaVuSans-20" transform="translate(1382.173828 0)"/>
       <use xlink:href="#DejaVuSans-70" transform="translate(1413.960938 0)"/>
       <use xlink:href="#DejaVuSans-72" transform="translate(1477.4375 0)"/>
       <use xlink:href="#DejaVuSans-65" transform="translate(1516.300781 0)"/>
       <use xlink:href="#DejaVuSans-63" transform="translate(1577.824219 0)"/>
       <use xlink:href="#DejaVuSans-75" transform="translate(1632.804688 0)"/>
       <use xlink:href="#DejaVuSans-72" transform="translate(1696.183594 0)"/>
       <use xlink:href="#DejaVuSans-73" transform="translate(1737.296875 0)"/>
       <use xlink:href="#DejaVuSans-6f" transform="translate(1789.396484 0)"/>
       <use xlink:href="#DejaVuSans-72" transform="translate(1850.578125 0)"/>
      </g>
     </g>
    </g>
    <g id="xtick_22">
     <g id="text_22">
      <!-- caudal ganglionic eminence derived cortical interneuron -->
      <g transform="translate(400.785832 432.55145) rotate(-90) scale(0.0833 -0.0833)">
       <use xlink:href="#DejaVuSans-63"/>
       <use xlink:href="#DejaVuSans-61" transform="translate(54.980469 0)"/>
       <use xlink:href="#DejaVuSans-75" transform="translate(116.259766 0)"/>
       <use xlink:href="#DejaVuSans-64" transform="translate(179.638672 0)"/>
       <use xlink:href="#DejaVuSans-61" transform="translate(243.115234 0)"/>
       <use xlink:href="#DejaVuSans-6c" transform="translate(304.394531 0)"/>
       <use xlink:href="#DejaVuSans-20" transform="translate(332.177734 0)"/>
       <use xlink:href="#DejaVuSans-67" transform="translate(363.964844 0)"/>
       <use xlink:href="#DejaVuSans-61" transform="translate(427.441406 0)"/>
       <use xlink:href="#DejaVuSans-6e" transform="translate(488.720703 0)"/>
       <use xlink:href="#DejaVuSans-67" transform="translate(552.099609 0)"/>
       <use xlink:href="#DejaVuSans-6c" transform="translate(615.576172 0)"/>
       <use xlink:href="#DejaVuSans-69" transform="translate(643.359375 0)"/>
       <use xlink:href="#DejaVuSans-6f" transform="translate(671.142578 0)"/>
       <use xlink:href="#DejaVuSans-6e" transform="translate(732.324219 0)"/>
       <use xlink:href="#DejaVuSans-69" transform="translate(795.703125 0)"/>
       <use xlink:href="#DejaVuSans-63" transform="translate(823.486328 0)"/>
       <use xlink:href="#DejaVuSans-20" transform="translate(878.466797 0)"/>
       <use xlink:href="#DejaVuSans-65" transform="translate(910.253906 0)"/>
       <use xlink:href="#DejaVuSans-6d" transform="translate(971.777344 0)"/>
       <use xlink:href="#DejaVuSans-69" transform="translate(1069.189453 0)"/>
       <use xlink:href="#DejaVuSans-6e" transform="translate(1096.972656 0)"/>
       <use xlink:href="#DejaVuSans-65" transform="translate(1160.351562 0)"/>
       <use xlink:href="#DejaVuSans-6e" transform="translate(1221.875 0)"/>
       <use xlink:href="#DejaVuSans-63" transform="translate(1285.253906 0)"/>
       <use xlink:href="#DejaVuSans-65" transform="translate(1340.234375 0)"/>
       <use xlink:href="#DejaVuSans-20" transform="translate(1401.757812 0)"/>
       <use xlink:href="#DejaVuSans-64" transform="translate(1433.544922 0)"/>
       <use xlink:href="#DejaVuSans-65" transform="translate(1497.021484 0)"/>
       <use xlink:href="#DejaVuSans-72" transform="translate(1558.544922 0)"/>
       <use xlink:href="#DejaVuSans-69" transform="translate(1599.658203 0)"/>
       <use xlink:href="#DejaVuSans-76" transform="translate(1627.441406 0)"/>
       <use xlink:href="#DejaVuSans-65" transform="translate(1686.621094 0)"/>
       <use xlink:href="#DejaVuSans-64" transform="translate(1748.144531 0)"/>
       <use xlink:href="#DejaVuSans-20" transform="translate(1811.621094 0)"/>
       <use xlink:href="#DejaVuSans-63" transform="translate(1843.408203 0)"/>
       <use xlink:href="#DejaVuSans-6f" transform="translate(1898.388672 0)"/>
       <use xlink:href="#DejaVuSans-72" transform="translate(1959.570312 0)"/>
       <use xlink:href="#DejaVuSans-74" transform="translate(2000.683594 0)"/>
       <use xlink:href="#DejaVuSans-69" transform="translate(2039.892578 0)"/>
       <use xlink:href="#DejaVuSans-63" transform="translate(2067.675781 0)"/>
       <use xlink:href="#DejaVuSans-61" transform="translate(2122.65625 0)"/>
       <use xlink:href="#DejaVuSans-6c" transform="translate(2183.935547 0)"/>
       <use xlink:href="#DejaVuSans-20" transform="translate(2211.71875 0)"/>
       <use xlink:href="#DejaVuSans-69" transform="translate(2243.505859 0)"/>
       <use xlink:href="#DejaVuSans-6e" transform="translate(2271.289062 0)"/>
       <use xlink:href="#DejaVuSans-74" transform="translate(2334.667969 0)"/>
       <use xlink:href="#DejaVuSans-65" transform="translate(2373.876953 0)"/>
       <use xlink:href="#DejaVuSans-72" transform="translate(2435.400391 0)"/>
       <use xlink:href="#DejaVuSans-6e" transform="translate(2474.763672 0)"/>
       <use xlink:href="#DejaVuSans-65" transform="translate(2538.142578 0)"/>
       <use xlink:href="#DejaVuSans-75" transform="translate(2599.666016 0)"/>
       <use xlink:href="#DejaVuSans-72" transform="translate(2663.044922 0)"/>
       <use xlink:href="#DejaVuSans-6f" transform="translate(2701.908203 0)"/>
       <use xlink:href="#DejaVuSans-6e" transform="translate(2763.089844 0)"/>
      </g>
     </g>
    </g>
   </g>
   <g id="matplotlib.axis_2">
    <g id="ytick_1"/>
    <g id="ytick_2"/>
    <g id="ytick_3"/>
    <g id="ytick_4"/>
    <g id="ytick_5"/>
   </g>
   <g id="line2d_1">
    <path d="M 104.752208 182.628 
L 104.752208 176.233889 
L 120.211948 176.233889 
L 120.211948 182.628 
" clip-path="url(#pe10225b366)" style="fill: none; stroke: #555555; stroke-width: 1.5; stroke-linecap: square"/>
   </g>
   <g id="line2d_2">
    <path d="M 89.292468 182.628 
L 89.292468 171.42121 
L 112.482078 171.42121 
L 112.482078 176.233889 
" clip-path="url(#pe10225b366)" style="fill: none; stroke: #555555; stroke-width: 1.5; stroke-linecap: square"/>
   </g>
   <g id="line2d_3">
    <path d="M 73.832727 182.628 
L 73.832727 146.654343 
L 100.887273 146.654343 
L 100.887273 171.42121 
" clip-path="url(#pe10225b366)" style="fill: none; stroke: #555555; stroke-width: 1.5; stroke-linecap: square"/>
   </g>
   <g id="line2d_4">
    <path d="M 259.34961 182.628 
L 259.34961 182.498689 
L 274.809351 182.498689 
L 274.809351 182.628 
" clip-path="url(#pe10225b366)" style="fill: none; stroke: #555555; stroke-width: 1.5; stroke-linecap: square"/>
   </g>
   <g id="line2d_5">
    <path d="M 243.88987 182.628 
L 243.88987 182.326699 
L 267.079481 182.326699 
L 267.079481 182.498689 
" clip-path="url(#pe10225b366)" style="fill: none; stroke: #555555; stroke-width: 1.5; stroke-linecap: square"/>
   </g>
   <g id="line2d_6">
    <path d="M 228.43013 182.628 
L 228.43013 181.90964 
L 255.484675 181.90964 
L 255.484675 182.326699 
" clip-path="url(#pe10225b366)" style="fill: none; stroke: #555555; stroke-width: 1.5; stroke-linecap: square"/>
   </g>
   <g id="line2d_7">
    <path d="M 212.97039 182.628 
L 212.97039 179.218906 
L 241.957403 179.218906 
L 241.957403 181.90964 
" clip-path="url(#pe10225b366)" style="fill: none; stroke: #555555; stroke-width: 1.5; stroke-linecap: square"/>
   </g>
   <g id="line2d_8">
    <path d="M 197.510649 182.628 
L 197.510649 175.655831 
L 227.463896 175.655831 
L 227.463896 179.218906 
" clip-path="url(#pe10225b366)" style="fill: none; stroke: #555555; stroke-width: 1.5; stroke-linecap: square"/>
   </g>
   <g id="line2d_9">
    <path d="M 182.050909 182.628 
L 182.050909 173.238057 
L 212.487273 173.238057 
L 212.487273 175.655831 
" clip-path="url(#pe10225b366)" style="fill: none; stroke: #555555; stroke-width: 1.5; stroke-linecap: square"/>
   </g>
   <g id="line2d_10">
    <path d="M 352.108052 182.628 
L 352.108052 182.52292 
L 367.567792 182.52292 
L 367.567792 182.628 
" clip-path="url(#pe10225b366)" style="fill: none; stroke: #555555; stroke-width: 1.5; stroke-linecap: square"/>
   </g>
   <g id="line2d_11">
    <path d="M 336.648312 182.628 
L 336.648312 182.193112 
L 359.837922 182.193112 
L 359.837922 182.52292 
" clip-path="url(#pe10225b366)" style="fill: none; stroke: #555555; stroke-width: 1.5; stroke-linecap: square"/>
   </g>
   <g id="line2d_12">
    <path d="M 321.188571 182.628 
L 321.188571 181.985545 
L 348.243117 181.985545 
L 348.243117 182.193112 
" clip-path="url(#pe10225b366)" style="fill: none; stroke: #555555; stroke-width: 1.5; stroke-linecap: square"/>
   </g>
   <g id="line2d_13">
    <path d="M 305.728831 182.628 
L 305.728831 180.418625 
L 334.715844 180.418625 
L 334.715844 181.985545 
" clip-path="url(#pe10225b366)" style="fill: none; stroke: #555555; stroke-width: 1.5; stroke-linecap: square"/>
   </g>
   <g id="line2d_14">
    <path d="M 290.269091 182.628 
L 290.269091 171.121678 
L 320.222338 171.121678 
L 320.222338 180.418625 
" clip-path="url(#pe10225b366)" style="fill: none; stroke: #555555; stroke-width: 1.5; stroke-linecap: square"/>
   </g>
   <g id="line2d_15">
    <path d="M 197.269091 173.238057 
L 197.269091 165.28341 
L 305.245714 165.28341 
L 305.245714 171.121678 
" clip-path="url(#pe10225b366)" style="fill: none; stroke: #555555; stroke-width: 1.5; stroke-linecap: square"/>
   </g>
   <g id="line2d_16">
    <path d="M 166.591169 182.628 
L 166.591169 155.40172 
L 251.257403 155.40172 
L 251.257403 165.28341 
" clip-path="url(#pe10225b366)" style="fill: none; stroke: #555555; stroke-width: 1.5; stroke-linecap: square"/>
   </g>
   <g id="line2d_17">
    <path d="M 151.131429 182.628 
L 151.131429 149.517372 
L 208.924286 149.517372 
L 208.924286 155.40172 
" clip-path="url(#pe10225b366)" style="fill: none; stroke: #555555; stroke-width: 1.5; stroke-linecap: square"/>
   </g>
   <g id="line2d_18">
    <path d="M 383.027532 182.628 
L 383.027532 140.514321 
L 398.487273 140.514321 
L 398.487273 182.628 
" clip-path="url(#pe10225b366)" style="fill: none; stroke: #555555; stroke-width: 1.5; stroke-linecap: square"/>
   </g>
   <g id="line2d_19">
    <path d="M 180.027857 149.517372 
L 180.027857 130.359859 
L 390.757403 130.359859 
L 390.757403 140.514321 
" clip-path="url(#pe10225b366)" style="fill: none; stroke: #555555; stroke-width: 1.5; stroke-linecap: square"/>
   </g>
   <g id="line2d_20">
    <path d="M 135.671688 182.628 
L 135.671688 108.568506 
L 285.39263 108.568506 
L 285.39263 130.359859 
" clip-path="url(#pe10225b366)" style="fill: none; stroke: #555555; stroke-width: 1.5; stroke-linecap: square"/>
   </g>
   <g id="line2d_21">
    <path d="M 87.36 146.654343 
L 87.36 33.108 
L 210.532159 33.108 
L 210.532159 108.568506 
" clip-path="url(#pe10225b366)" style="fill: none; stroke: #555555; stroke-width: 1.5; stroke-linecap: square"/>
   </g>
  </g>
 </g>
 <defs>
  <clipPath id="pe10225b366">
   <rect x="57.6" y="25.632" width="357.12" height="164.472"/>
  </clipPath>
 </defs>
</svg>
